{
.appVersion = "1075";
DisplayStrings = (
"/saraU-thai",
"/saraUu-thai.small",
/abrevegrave,
"\U00F0"
);
copyright = "Copyright © 2018 by Cadson Demak Co.,Ltd.. All rights reserved.";
customParameters = (
{
name = vendorID;
value = CDK;
},
{
name = description;
value = "Copyright (c) 2018, Cadson Demak (info@cadsondemak.com)";
},
{
name = license;

glyphs = (
{
color = 9;
glyphname = A;
lastChange = "2018-03-20 12:00:42 +0000";
layers = (
{
anchors = (
{
name = bottom;
position = "{315, 0}";
},
{
name = ogonek;
position = "{553, -1}";
},
{
name = top;
position = "{325, 700}";
}
);
layerId = "0B1DFD06-3317-40CA-B510-4969A0718C16";
paths = (
{
closed = 1;
nodes = (
"563 -10 OFFCURVE",
"571 -6 OFFCURVE",
"571 3 CURVE SMOOTH",
"571 6 OFFCURVE",
"570 9 OFFCURVE",
"569 11 CURVE SMOOTH",
"551 65 OFFCURVE",
"411 532 OFFCURVE",
"384 616 CURVE SMOOTH",
"362 685 OFFCURVE",
"346 710 OFFCURVE",
"325 710 CURVE SMOOTH",
"300 710 OFFCURVE",
"281 677 OFFCURVE",
"258 605 CURVE SMOOTH",
"186 379 OFFCURVE",
"167 323 OFFCURVE",
"61 11 CURVE SMOOTH",
"60 8 OFFCURVE",
"60 7 OFFCURVE",
"60 5 CURVE SMOOTH",
"60 -2 OFFCURVE",
"66 -7 OFFCURVE",
"75 -7 CURVE SMOOTH",
"82 -7 OFFCURVE",
"86 -5 OFFCURVE",
"89 4 CURVE SMOOTH",
"201 334 OFFCURVE",
"266 538 OFFCURVE",
"288 604 CURVE SMOOTH",
"304 652 OFFCURVE",
"317 682 OFFCURVE",
"324 682 CURVE SMOOTH",
"331 682 OFFCURVE",
"345 653 OFFCURVE",
"359 607 CURVE SMOOTH",
"380 538 OFFCURVE",
"490 155 OFFCURVE",
"541 -1 CURVE SMOOTH",
"543 -6 OFFCURVE",
"549 -10 OFFCURVE",
"556 -10 CURVE SMOOTH"
);
},
{
closed = 1;
nodes = (
"545 189 OFFCURVE",
"550 196 OFFCURVE",
"550 203 CURVE SMOOTH",
"550 211 OFFCURVE",
"545 217 OFFCURVE",
"537 217 CURVE SMOOTH",
"154 221 LINE SMOOTH",
"140 221 OFFCURVE",
"135 213 OFFCURVE",
"135 207 CURVE SMOOTH",
"135 201 OFFCURVE",
"139 191 OFFCURVE",
"150 191 CURVE SMOOTH",
"535 189 LINE SMOOTH"
);
}
);
width = 631;
},
{
anchors = (
{
name = bottom;
position = "{348, 0}";
},
{
name = ogonek;
position = "{582, 26}";
},
{
name = top;
position = "{348, 700}";
}
);
layerId = "2F8C22CF-EC86-44F4-AF1A-A6C7F26A0C3C";
paths = (
{
closed = 1;
nodes = (
"596 -11 OFFCURVE",
"637 9 OFFCURVE",
"637 50 CURVE SMOOTH",
"637 56 OFFCURVE",
"636 62 OFFCURVE",
"634 69 CURVE SMOOTH",
"547 360 OFFCURVE",
"521 446 OFFCURVE",
"473 596 CURVE SMOOTH",
"445 682 OFFCURVE",
"416 712 OFFCURVE",
"357 712 CURVE SMOOTH",
"295 712 OFFCURVE",
"264 676 OFFCURVE",
"234 587 CURVE SMOOTH",
"178 418 OFFCURVE",
"160 360 OFFCURVE",
"63 70 CURVE SMOOTH",
"61 63 OFFCURVE",
"60 56 OFFCURVE",
"60 50 CURVE SMOOTH",
"60 12 OFFCURVE",
"102 -10 OFFCURVE",
"143 -10 CURVE SMOOTH",
"175 -10 OFFCURVE",
"201 2 OFFCURVE",
"212 34 CURVE SMOOTH",
"266 184 OFFCURVE",
"308 368 OFFCURVE",
"326 431 CURVE SMOOTH",
"337 470 OFFCURVE",
"341 501 OFFCURVE",
"351 501 CURVE SMOOTH",
"360 501 OFFCURVE",
"365 470 OFFCURVE",
"379 424 CURVE SMOOTH",
"399 358 OFFCURVE",
"436 182 OFFCURVE",
"485 31 CURVE SMOOTH",
"494 3 OFFCURVE",
"521 -11 OFFCURVE",
"555 -11 CURVE SMOOTH"
);
},
{
closed = 1;
nodes = (
"582 159 OFFCURVE",
"620 172 OFFCURVE",
"620 224 CURVE SMOOTH",
"620 268 OFFCURVE",
"589 286 OFFCURVE",
"545 287 CURVE SMOOTH",
"209 291 LINE SMOOTH",
"162 292 OFFCURVE",
"134 262 OFFCURVE",
"134 223 CURVE SMOOTH",
"134 188 OFFCURVE",
"158 161 OFFCURVE",
"200 161 CURVE SMOOTH",
"537 159 LINE SMOOTH"
);
}
);
width = 697;
},
{
anchors = (
{
name = bottom;
position = "{343, 0}";
},
{
name = ogonek;
position = "{579, 10}";
},
{
name = top;
position = "{349, 700}";
}
);
layerId = "17B9D149-A542-49FB-8130-D430586D7342";
paths = (
{
closed = 1;
nodes = (
"591 -10 OFFCURVE",
"612 0 OFFCURVE",
"612 22 CURVE SMOOTH",
"612 25 OFFCURVE",
"611 28 OFFCURVE",
"609 34 CURVE SMOOTH",
"561 192 OFFCURVE",
"466 510 OFFCURVE",
"434 608 CURVE SMOOTH",
"410 682 OFFCURVE",
"390 711 OFFCURVE",
"352 711 CURVE SMOOTH",
"312 711 OFFCURVE",
"289 676 OFFCURVE",
"263 598 CURVE SMOOTH",
"207 426 OFFCURVE",
"172 317 OFFCURVE",
"76 35 CURVE SMOOTH",
"75 30 OFFCURVE",
"74 27 OFFCURVE",
"74 23 CURVE SMOOTH",
"74 4 OFFCURVE",
"94 -9 OFFCURVE",
"116 -9 CURVE SMOOTH",
"133 -9 OFFCURVE",
"147 -2 OFFCURVE",
"153 16 CURVE SMOOTH",
"230 239 OFFCURVE",
"274 399 OFFCURVE",
"318 535 CURVE SMOOTH",
"332 579 OFFCURVE",
"341 610 OFFCURVE",
"349 610 CURVE SMOOTH",
"357 610 OFFCURVE",
"367 580 OFFCURVE",
"381 534 CURVE SMOOTH",
"420 405 OFFCURVE",
"482 168 OFFCURVE",
"533 12 CURVE SMOOTH",
"538 -2 OFFCURVE",
"552 -10 OFFCURVE",
"569 -10 CURVE SMOOTH"
);
},
{
closed = 1;
nodes = (
"585 167 OFFCURVE",
"592 184 OFFCURVE",
"592 206 CURVE SMOOTH",
"592 229 OFFCURVE",
"577 245 OFFCURVE",
"555 245 CURVE SMOOTH",
"190 249 LINE SMOOTH",
"163 249 OFFCURVE",
"150 233 OFFCURVE",
"150 208 CURVE SMOOTH",
"150 185 OFFCURVE",
"161 169 OFFCURVE",
"184 169 CURVE SMOOTH",
"561 167 LINE SMOOTH"
);
}
);
width = 692;
},
{
anchors = (
{
name = bottom;
position = "{273, 0}";
},
{
name = ogonek;
position = "{511, -1}";
},
{
name = top;
position = "{406, 700}";
}
);
layerId = "2214C8E2-2079-4DC2-8649-1937C1DD8804";
paths = (
{
closed = 1;
nodes = (
"518 -10 OFFCURVE",
"530 -7 OFFCURVE",
"530 6 CURVE SMOOTH",
"530 10 OFFCURVE",
"529 9 OFFCURVE",
"529 11 CURVE SMOOTH",
"524 32 OFFCURVE",
"462 539 OFFCURVE",
"451 616 CURVE SMOOTH",
"441 685 OFFCURVE",
"426 710 OFFCURVE",
"404 710 CURVE SMOOTH",
"379 710 OFFCURVE",
"359 677 OFFCURVE",
"323 605 CURVE SMOOTH",
"214 385 OFFCURVE",
"187 333 OFFCURVE",
"21 11 CURVE SMOOTH",
"20 9 OFFCURVE",
"18 9 OFFCURVE",
"19 3 CURVE SMOOTH",
"20 -4 OFFCURVE",
"24 -7 OFFCURVE",
"32 -7 CURVE SMOOTH",
"39 -7 OFFCURVE",
"43 -5 OFFCURVE",
"48 4 CURVE SMOOTH",
"185 269 OFFCURVE",
"317 533 OFFCURVE",
"353 604 CURVE SMOOTH",
"376 649 OFFCURVE",
"394 682 OFFCURVE",
"402 682 CURVE SMOOTH",
"409 682 OFFCURVE",
"418 653 OFFCURVE",
"424 607 CURVE SMOOTH",
"432 546 OFFCURVE",
"476 148 OFFCURVE",
"499 -1 CURVE SMOOTH",
"500 -6 OFFCURVE",
"505 -10 OFFCURVE",
"512 -10 CURVE SMOOTH"
);
},
{
closed = 1;
nodes = (
"537 189 OFFCURVE",
"544 198 OFFCURVE",
"544 206 CURVE SMOOTH",
"544 212 OFFCURVE",
"540 217 OFFCURVE",
"533 217 CURVE SMOOTH",
"151 221 LINE SMOOTH",
"135 221 OFFCURVE",
"129 211 OFFCURVE",
"129 204 CURVE SMOOTH",
"129 199 OFFCURVE",
"132 191 OFFCURVE",
"142 191 CURVE SMOOTH",
"526 189 LINE SMOOTH"
);
}
);
width = 631;
},
{
anchors = (
{
name = bottom;
position = "{301, 0}";
},
{
name = ogonek;
position = "{539, 10}";
},
{
name = top;
position = "{430, 700}";
}
);
layerId = "AEE50E4E-1B30-4E16-A434-AC23B12A4294";
paths = (
{
closed = 1;
nodes = (
"547 -10 OFFCURVE",
"574 2 OFFCURVE",
"574 25 CURVE SMOOTH",
"574 27 OFFCURVE",
"574 28 OFFCURVE",
"573 34 CURVE SMOOTH",
"568 75 OFFCURVE",
"514 515 OFFCURVE",
"499 608 CURVE SMOOTH",
"487 685 OFFCURVE",
"463 711 OFFCURVE",
"428 711 CURVE SMOOTH",
"385 711 OFFCURVE",
"364 673 OFFCURVE",
"326 598 CURVE SMOOTH",
"192 332 OFFCURVE",
"299 541 OFFCURVE",
"40 35 CURVE SMOOTH",
"38 31 OFFCURVE",
"36 25 OFFCURVE",
"36 23 CURVE SMOOTH",
"33 10 OFFCURVE",
"44 -9 OFFCURVE",
"72 -9 CURVE SMOOTH",
"89 -9 OFFCURVE",
"105 -2 OFFCURVE",
"114 16 CURVE SMOOTH",
"234 248 OFFCURVE",
"283 359 OFFCURVE",
"370 535 CURVE SMOOTH",
"392 579 OFFCURVE",
"407 610 OFFCURVE",
"415 610 CURVE SMOOTH",
"422 610 OFFCURVE",
"427 584 OFFCURVE",
"433 534 CURVE SMOOTH",
"449 407 OFFCURVE",
"473 142 OFFCURVE",
"493 12 CURVE SMOOTH",
"495 -2 OFFCURVE",
"509 -10 OFFCURVE",
"526 -10 CURVE SMOOTH"
);
},
{
closed = 1;
nodes = (
"572 167 OFFCURVE",
"583 186 OFFCURVE",
"586 206 CURVE SMOOTH",
"589 228 OFFCURVE",
"580 245 OFFCURVE",
"556 245 CURVE SMOOTH",
"192 249 LINE SMOOTH",
"166 249 OFFCURVE",
"150 235 OFFCURVE",
"145 208 CURVE SMOOTH",
"141 185 OFFCURVE",
"149 169 OFFCURVE",
"172 169 CURVE SMOOTH",
"548 167 LINE SMOOTH"
);
}
);
width = 692;
},
{
anchors = (
{
name = bottom;
position = "{306, 0}";
},
{
name = ogonek;
position = "{545, 26}";
},
{
name = top;
position = "{429, 700}";
}
);
layerId = "F86CB789-B416-49E2-AD1B-BE88A4A88FF7";
paths = (
{
closed = 1;
nodes = (
"567 -11 OFFCURVE",
"598 10 OFFCURVE",
"604 50 CURVE SMOOTH",
"605 56 OFFCURVE",
"605 61 OFFCURVE",
"604 69 CURVE SMOOTH",
"568 360 OFFCURVE",
"556 460 OFFCURVE",
"536 596 CURVE SMOOTH",
"523 682 OFFCURVE",
"488 712 OFFCURVE",
"430 712 CURVE SMOOTH",
"367 712 OFFCURVE",
"341 676 OFFCURVE",
"296 587 CURVE SMOOTH",
"284 563 OFFCURVE",
"51 105 OFFCURVE",
"33 70 CURVE SMOOTH",
"30 63 OFFCURVE",
"28 56 OFFCURVE",
"27 50 CURVE SMOOTH",
"20 11 OFFCURVE",
"68 -10 OFFCURVE",
"109 -10 CURVE SMOOTH",
"140 -10 OFFCURVE",
"167 2 OFFCURVE",
"184 34 CURVE SMOOTH",
"239 138 OFFCURVE",
"273 214 OFFCURVE",
"368 431 CURVE SMOOTH",
"389 478 OFFCURVE",
"396 501 OFFCURVE",
"405 501 CURVE SMOOTH",
"412 501 OFFCURVE",
"413 486 OFFCURVE",
"420 424 CURVE SMOOTH",
"432 321 OFFCURVE",
"432 310 OFFCURVE",
"456 31 CURVE SMOOTH",
"458 3 OFFCURVE",
"492 -11 OFFCURVE",
"526 -11 CURVE SMOOTH"
);
},
{
closed = 1;
nodes = (
"568 159 OFFCURVE",
"609 173 OFFCURVE",
"617 224 CURVE SMOOTH",
"624 269 OFFCURVE",
"597 286 OFFCURVE",
"554 287 CURVE SMOOTH",
"218 291 LINE SMOOTH",
"171 292 OFFCURVE",
"137 261 OFFCURVE",
"131 223 CURVE SMOOTH",
"125 188 OFFCURVE",
"144 161 OFFCURVE",
"186 161 CURVE SMOOTH",
"523 159 LINE SMOOTH"
);
}
);
width = 697;
}
);
leftKerningGroup = A;
note = A;
rightKerningGroup = A;
unicode = 0041;
},
{
color = 9;
glyphname = B;
lastChange = "2018-03-20 12:00:42 +0000";
layers = (
{
anchors = (
{
name = bottom;
position = "{312, 0}";
},
{
name = top;
position = "{312, 700}";
}
);
layerId = "0B1DFD06-3317-40CA-B510-4969A0718C16";
paths = (
{
closed = 1;
nodes = (
"119 -16 OFFCURVE",
"125 -9 OFFCURVE",
"126 12 CURVE",
"113 3 LINE",
"174 3 OFFCURVE",
"195 4 OFFCURVE",
"255 0 CURVE SMOOTH",
"405 -9 OFFCURVE",
"534 41 OFFCURVE",
"534 174 CURVE SMOOTH",
"534 274 OFFCURVE",
"458 352 OFFCURVE",
"293 360 CURVE",
"293 351 LINE",
"458 358 OFFCURVE",
"544 410 OFFCURVE",
"544 519 CURVE SMOOTH",
"544 649 OFFCURVE",
"424 706 OFFCURVE",
"289 706 CURVE SMOOTH",
"222 706 OFFCURVE",
"157 692 OFFCURVE",
"104 670 CURVE SMOOTH",
"80 660 OFFCURVE",
"73 655 OFFCURVE",
"73 641 CURVE SMOOTH",
"73 631 OFFCURVE",
"80 627 OFFCURVE",
"86 627 CURVE SMOOTH",
"96 627 OFFCURVE",
"118 640 OFFCURVE",
"122 642 CURVE",
"108 653 LINE",
"114 557 OFFCURVE",
"113 478 OFFCURVE",
"113 381 CURVE SMOOTH",
"113 252 OFFCURVE",
"108 137 OFFCURVE",
"95 18 CURVE",
"107 32 LINE",
"67 33 LINE SMOOTH",
"55 33 OFFCURVE",
"50 29 OFFCURVE",
"50 18 CURVE SMOOTH",
"50 11 OFFCURVE",
"52 3 OFFCURVE",
"67 3 CURVE SMOOTH",
"105 3 LINE",
"95 13 LINE",
"92 -7 OFFCURVE",
"95 -16 OFFCURVE",
"107 -16 CURVE SMOOTH"
);
},
{
closed = 1;
nodes = (
"140 139 OFFCURVE",
"144 256 OFFCURVE",
"144 383 CURVE SMOOTH",
"144 477 OFFCURVE",
"144 560 OFFCURVE",
"141 668 CURVE",
"128 645 LINE",
"160 669 OFFCURVE",
"231 676 OFFCURVE",
"293 676 CURVE SMOOTH",
"406 676 OFFCURVE",
"513 630 OFFCURVE",
"513 517 CURVE SMOOTH",
"513 424 OFFCURVE",
"402 374 OFFCURVE",
"239 374 CURVE SMOOTH",
"222 374 OFFCURVE",
"215 369 OFFCURVE",
"215 358 CURVE SMOOTH",
"215 344 OFFCURVE",
"223 340 OFFCURVE",
"238 340 CURVE SMOOTH",
"402 340 OFFCURVE",
"503 274 OFFCURVE",
"503 174 CURVE SMOOTH",
"503 60 OFFCURVE",
"389 23 OFFCURVE",
"232 30 CURVE SMOOTH",
"176 33 OFFCURVE",
"142 32 OFFCURVE",
"113 32 CURVE",
"125 18 LINE"
);
}
);
width = 574;
},
{
anchors = (
{
name = bottom;
position = "{336, 0}";
},
{
name = top;
position = "{335, 700}";
}
);
background = {
paths = (
{
closed = 1;
nodes = (
"92 -16 OFFCURVE",
"97 -9 OFFCURVE",
"99 3 CURVE",
"144 3 OFFCURVE",
"181 3 OFFCURVE",
"230 0 CURVE SMOOTH",
"380 -9 OFFCURVE",
"509 41 OFFCURVE",
"509 174 CURVE SMOOTH",
"509 265 OFFCURVE",
"444 337 OFFCURVE",
"308 355 CURVE",
"435 370 OFFCURVE",
"519 420 OFFCURVE",
"519 519 CURVE SMOOTH",
"519 649 OFFCURVE",
"399 706 OFFCURVE",
"264 706 CURVE SMOOTH",
"197 706 OFFCURVE",
"132 692 OFFCURVE",
"79 670 CURVE SMOOTH",
"64 664 OFFCURVE",
"48 656 OFFCURVE",
"48 640 CURVE SMOOTH",
"48 636 OFFCURVE",
"49 626 OFFCURVE",
"57 626 CURVE SMOOTH",
"67 626 OFFCURVE",
"77 636 OFFCURVE",
"84 636 CURVE",
"88 574 OFFCURVE",
"88 502 OFFCURVE",
"88 435 CURVE SMOOTH",
"88 315 OFFCURVE",
"83 151 OFFCURVE",
"72 33 CURVE",
"42 33 LINE SMOOTH",
"30 33 OFFCURVE",
"25 29 OFFCURVE",
"25 18 CURVE SMOOTH",
"25 11 OFFCURVE",
"27 3 OFFCURVE",
"42 3 CURVE SMOOTH",
"69 3 LINE",
"69 -9 OFFCURVE",
"72 -16 OFFCURVE",
"82 -16 CURVE SMOOTH"
);
},
{
closed = 1;
nodes = (
"163 32 OFFCURVE",
"122 32 OFFCURVE",
"101 32 CURVE",
"114 146 OFFCURVE",
"119 271 OFFCURVE",
"119 417 CURVE SMOOTH",
"119 483 OFFCURVE",
"118 561 OFFCURVE",
"116 653 CURVE",
"150 669 OFFCURVE",
"200 677 OFFCURVE",
"248 677 CURVE SMOOTH",
"364 677 OFFCURVE",
"489 630 OFFCURVE",
"489 517 CURVE SMOOTH",
"489 402 OFFCURVE",
"361 373 OFFCURVE",
"214 370 CURVE SMOOTH",
"197 370 OFFCURVE",
"190 369 OFFCURVE",
"190 356 CURVE SMOOTH",
"190 342 OFFCURVE",
"198 340 OFFCURVE",
"213 340 CURVE SMOOTH",
"317 340 OFFCURVE",
"478 315 OFFCURVE",
"478 180 CURVE SMOOTH",
"478 66 OFFCURVE",
"364 23 OFFCURVE",
"207 30 CURVE SMOOTH"
);
}
);
};
layerId = "2F8C22CF-EC86-44F4-AF1A-A6C7F26A0C3C";
paths = (
{
closed = 1;
nodes = (
"219 -34 OFFCURVE",
"248 -23 OFFCURVE",
"253 40 CURVE",
"206 4 LINE",
"262 0 OFFCURVE",
"310 -4 OFFCURVE",
"355 -4 CURVE SMOOTH",
"497 -4 OFFCURVE",
"615 64 OFFCURVE",
"615 196 CURVE SMOOTH",
"615 269 OFFCURVE",
"579 336 OFFCURVE",
"445 373 CURVE",
"446 326 LINE",
"580 359 OFFCURVE",
"624 421 OFFCURVE",
"624 497 CURVE SMOOTH",
"624 622 OFFCURVE",
"504 708 OFFCURVE",
"336 708 CURVE SMOOTH",
"282 708 OFFCURVE",
"212 699 OFFCURVE",
"150 673 CURVE SMOOTH",
"102 653 OFFCURVE",
"80 631 OFFCURVE",
"80 593 CURVE SMOOTH",
"80 567 OFFCURVE",
"101 542 OFFCURVE",
"132 550 CURVE SMOOTH",
"144 553 OFFCURVE",
"156 558 OFFCURVE",
"164 562 CURVE",
"123 584 LINE",
"123 498 OFFCURVE",
"124 434 OFFCURVE",
"124 384 CURVE SMOOTH",
"124 274 OFFCURVE",
"120 186 OFFCURVE",
"112 99 CURVE",
"164 131 LINE",
"124 133 LINE SMOOTH",
"79 135 OFFCURVE",
"60 96 OFFCURVE",
"60 68 CURVE SMOOTH",
"60 34 OFFCURVE",
"73 16 OFFCURVE",
"113 10 CURVE SMOOTH",
"155 4 LINE",
"102 53 LINE",
"98 -5 OFFCURVE",
"137 -34 OFFCURVE",
"181 -34 CURVE SMOOTH"
);
},
{
closed = 1;
nodes = (
"264 230 OFFCURVE",
"269 280 OFFCURVE",
"269 384 CURVE SMOOTH",
"269 472 OFFCURVE",
"269 513 OFFCURVE",
"266 611 CURVE",
"227 573 LINE",
"253 576 OFFCURVE",
"296 589 OFFCURVE",
"332 589 CURVE SMOOTH",
"432 589 OFFCURVE",
"480 548 OFFCURVE",
"480 491 CURVE SMOOTH",
"480 409 OFFCURVE",
"293 417 OFFCURVE",
"216 417 CURVE SMOOTH",
"183 417 OFFCURVE",
"138 403 OFFCURVE",
"138 352 CURVE SMOOTH",
"138 304 OFFCURVE",
"173 289 OFFCURVE",
"221 289 CURVE SMOOTH",
"304 289 OFFCURVE",
"471 280 OFFCURVE",
"471 207 CURVE SMOOTH",
"471 143 OFFCURVE",
"414 120 OFFCURVE",
"338 120 CURVE SMOOTH",
"289 120 OFFCURVE",
"256 123 OFFCURVE",
"206 127 CURVE",
"253 87 LINE"
);
}
);
width = 674;
},
{
anchors = (
{
name = bottom;
position = "{310, 0}";
},
{
name = top;
position = "{310, 700}";
}
);
layerId = "17B9D149-A542-49FB-8130-D430586D7342";
paths = (
{
closed = 1;
nodes = (
"147 -23 OFFCURVE",
"163 -15 OFFCURVE",
"165 23 CURVE",
"139 3 LINE",
"275 -1 OFFCURVE",
"154 3 OFFCURVE",
"284 -2 CURVE SMOOTH",
"426 -8 OFFCURVE",
"555 55 OFFCURVE",
"555 186 CURVE SMOOTH",
"555 278 OFFCURVE",
"492 351 OFFCURVE",
"329 365 CURVE",
"330 341 LINE",
"485 356 OFFCURVE",
"565 414 OFFCURVE",
"565 514 CURVE SMOOTH",
"565 637 OFFCURVE",
"445 707 OFFCURVE",
"297 707 CURVE SMOOTH",
"235 707 OFFCURVE",
"168 695 OFFCURVE",
"111 671 CURVE SMOOTH",
"78 657 OFFCURVE",
"64 645 OFFCURVE",
"64 623 CURVE SMOOTH",
"64 602 OFFCURVE",
"78 594 OFFCURVE",
"93 596 CURVE SMOOTH",
"106 598 OFFCURVE",
"119 605 OFFCURVE",
"127 610 CURVE",
"103 625 LINE",
"106 533 OFFCURVE",
"106 460 OFFCURVE",
"106 382 CURVE SMOOTH",
"106 261 OFFCURVE",
"101 157 OFFCURVE",
"90 50 CURVE",
"118 72 LINE",
"78 73 LINE SMOOTH",
"53 74 OFFCURVE",
"43 57 OFFCURVE",
"43 37 CURVE SMOOTH",
"43 21 OFFCURVE",
"49 8 OFFCURVE",
"74 6 CURVE SMOOTH",
"114 3 LINE",
"86 29 LINE",
"83 -6 OFFCURVE",
"99 -23 OFFCURVE",
"127 -23 CURVE SMOOTH"
);
},
{
closed = 1;
nodes = (
"178 175 OFFCURVE",
"183 266 OFFCURVE",
"183 383 CURVE SMOOTH",
"183 475 OFFCURVE",
"183 541 OFFCURVE",
"180 645 CURVE",
"156 616 LINE",
"186 632 OFFCURVE",
"256 640 OFFCURVE",
"297 640 CURVE SMOOTH",
"411 640 OFFCURVE",
"488 599 OFFCURVE",
"488 514 CURVE SMOOTH",
"488 404 OFFCURVE",
"348 396 OFFCURVE",
"246 391 CURVE SMOOTH",
"227 390 OFFCURVE",
"201 387 OFFCURVE",
"201 355 CURVE SMOOTH",
"201 323 OFFCURVE",
"227 321 OFFCURVE",
"248 320 CURVE SMOOTH",
"383 312 OFFCURVE",
"479 286 OFFCURVE",
"479 186 CURVE SMOOTH",
"479 96 OFFCURVE",
"401 64 OFFCURVE",
"263 67 CURVE SMOOTH",
"229 68 OFFCURVE",
"209 68 OFFCURVE",
"139 70 CURVE",
"165 46 LINE"
);
}
);
width = 621;
},
{
anchors = (
{
name = bottom;
position = "{270, 0}";
},
{
name = top;
position = "{393, 700}";
}
);
layerId = "2214C8E2-2079-4DC2-8649-1937C1DD8804";
paths = (
{
closed = 1;
nodes = (
"78 -15 OFFCURVE",
"81 -10 OFFCURVE",
"86 12 CURVE",
"72 3 LINE",
"153 3 OFFCURVE",
"215 -1 OFFCURVE",
"250 -1 CURVE SMOOTH",
"397 -1 OFFCURVE",
"526 68 OFFCURVE",
"526 198 CURVE SMOOTH",
"526 288 OFFCURVE",
"464 352 OFFCURVE",
"314 360 CURVE",
"313 351 LINE",
"479 357 OFFCURVE",
"597 419 OFFCURVE",
"597 542 CURVE SMOOTH",
"597 660 OFFCURVE",
"486 706 OFFCURVE",
"363 706 CURVE SMOOTH",
"296 706 OFFCURVE",
"237 692 OFFCURVE",
"180 670 CURVE SMOOTH",
"157 661 OFFCURVE",
"144 655 OFFCURVE",
"144 640 CURVE SMOOTH",
"144 629 OFFCURVE",
"150 627 OFFCURVE",
"155 627 CURVE SMOOTH",
"165 627 OFFCURVE",
"189 640 OFFCURVE",
"193 642 CURVE",
"181 653 LINE",
"178 626 OFFCURVE",
"170 557 OFFCURVE",
"138 381 CURVE SMOOTH",
"113 243 OFFCURVE",
"92 145 OFFCURVE",
"56 18 CURVE",
"71 32 LINE",
"31 33 LINE SMOOTH",
"18 33 OFFCURVE",
"11 27 OFFCURVE",
"11 15 CURVE SMOOTH",
"11 9 OFFCURVE",
"13 3 OFFCURVE",
"26 3 CURVE SMOOTH",
"64 3 LINE",
"55 12 LINE",
"49 -4 OFFCURVE",
"49 -15 OFFCURVE",
"66 -15 CURVE SMOOTH"
);
},
{
closed = 1;
nodes = (
"121 132 OFFCURVE",
"147 255 OFFCURVE",
"170 383 CURVE SMOOTH",
"193 513 OFFCURVE",
"214 652 OFFCURVE",
"217 668 CURVE",
"200 645 LINE",
"233 668 OFFCURVE",
"309 676 OFFCURVE",
"363 676 CURVE SMOOTH",
"474 676 OFFCURVE",
"565 641 OFFCURVE",
"565 542 CURVE SMOOTH",
"565 407 OFFCURVE",
"398 378 OFFCURVE",
"263 374 CURVE SMOOTH",
"253 374 OFFCURVE",
"236 373 OFFCURVE",
"236 354 CURVE SMOOTH",
"236 342 OFFCURVE",
"242 341 OFFCURVE",
"256 340 CURVE SMOOTH",
"328 337 OFFCURVE",
"494 329 OFFCURVE",
"494 194 CURVE SMOOTH",
"494 79 OFFCURVE",
"375 29 OFFCURVE",
"231 29 CURVE SMOOTH",
"224 29 OFFCURVE",
"128 32 OFFCURVE",
"77 32 CURVE",
"86 18 LINE"
);
}
);
width = 574;
},
{
anchors = (
{
name = bottom;
position = "{268, 0}";
},
{
name = top;
position = "{391, 700}";
}
);
layerId = "AEE50E4E-1B30-4E16-A434-AC23B12A4294";
paths = (
{
closed = 1;
nodes = (
"106 -23 OFFCURVE",
"118 -15 OFFCURVE",
"127 23 CURVE",
"98 3 LINE",
"231 -1 OFFCURVE",
"195 0 OFFCURVE",
"242 -2 CURVE SMOOTH",
"402 -8 OFFCURVE",
"548 63 OFFCURVE",
"548 202 CURVE SMOOTH",
"548 284 OFFCURVE",
"497 352 OFFCURVE",
"351 365 CURVE",
"348 341 LINE",
"501 354 OFFCURVE",
"617 409 OFFCURVE",
"617 527 CURVE SMOOTH",
"617 642 OFFCURVE",
"495 707 OFFCURVE",
"361 707 CURVE SMOOTH",
"302 707 OFFCURVE",
"247 699 OFFCURVE",
"187 675 CURVE SMOOTH",
"148 659 OFFCURVE",
"131 641 OFFCURVE",
"131 618 CURVE SMOOTH",
"131 601 OFFCURVE",
"141 596 OFFCURVE",
"152 596 CURVE SMOOTH",
"166 596 OFFCURVE",
"183 604 OFFCURVE",
"193 610 CURVE",
"171 625 LINE",
"158 532 OFFCURVE",
"142 443 OFFCURVE",
"131 382 CURVE SMOOTH",
"110 265 OFFCURVE",
"94 183 OFFCURVE",
"57 50 CURVE",
"89 72 LINE",
"49 73 LINE SMOOTH",
"20 74 OFFCURVE",
"7 51 OFFCURVE",
"7 30 CURVE SMOOTH",
"7 15 OFFCURVE",
"13 8 OFFCURVE",
"33 6 CURVE SMOOTH",
"73 3 LINE",
"49 29 LINE",
"40 -10 OFFCURVE",
"46 -23 OFFCURVE",
"79 -23 CURVE SMOOTH"
);
},
{
closed = 1;
nodes = (
"167 175 OFFCURVE",
"189 271 OFFCURVE",
"209 383 CURVE SMOOTH",
"217 428 OFFCURVE",
"236 540 OFFCURVE",
"252 645 CURVE",
"223 616 LINE",
"255 632 OFFCURVE",
"318 640 OFFCURVE",
"361 640 CURVE SMOOTH",
"465 640 OFFCURVE",
"539 603 OFFCURVE",
"539 527 CURVE SMOOTH",
"539 411 OFFCURVE",
"385 398 OFFCURVE",
"273 391 CURVE SMOOTH",
"252 390 OFFCURVE",
"221 384 OFFCURVE",
"221 349 CURVE SMOOTH",
"221 324 OFFCURVE",
"236 322 OFFCURVE",
"262 320 CURVE SMOOTH",
"388 311 OFFCURVE",
"472 295 OFFCURVE",
"472 202 CURVE SMOOTH",
"472 101 OFFCURVE",
"372 67 OFFCURVE",
"233 67 CURVE SMOOTH",
"209 67 OFFCURVE",
"190 68 OFFCURVE",
"109 70 CURVE",
"131 46 LINE"
);
}
);
width = 621;
},
{
anchors = (
{
name = bottom;
position = "{294, 0}";
},
{
name = top;
position = "{416, 700}";
}
);
background = {
paths = (
{
closed = 1;
nodes = (
"92 -16 OFFCURVE",
"97 -9 OFFCURVE",
"99 3 CURVE",
"144 3 OFFCURVE",
"181 3 OFFCURVE",
"230 0 CURVE SMOOTH",
"380 -9 OFFCURVE",
"509 41 OFFCURVE",
"509 174 CURVE SMOOTH",
"509 265 OFFCURVE",
"444 337 OFFCURVE",
"308 355 CURVE",
"435 370 OFFCURVE",
"519 420 OFFCURVE",
"519 519 CURVE SMOOTH",
"519 649 OFFCURVE",
"399 706 OFFCURVE",
"264 706 CURVE SMOOTH",
"197 706 OFFCURVE",
"132 692 OFFCURVE",
"79 670 CURVE SMOOTH",
"64 664 OFFCURVE",
"48 656 OFFCURVE",
"48 640 CURVE SMOOTH",
"48 636 OFFCURVE",
"49 626 OFFCURVE",
"57 626 CURVE SMOOTH",
"67 626 OFFCURVE",
"77 636 OFFCURVE",
"84 636 CURVE",
"88 574 OFFCURVE",
"88 502 OFFCURVE",
"88 435 CURVE SMOOTH",
"88 315 OFFCURVE",
"83 151 OFFCURVE",
"72 33 CURVE",
"42 33 LINE SMOOTH",
"30 33 OFFCURVE",
"25 29 OFFCURVE",
"25 18 CURVE SMOOTH",
"25 11 OFFCURVE",
"27 3 OFFCURVE",
"42 3 CURVE SMOOTH",
"69 3 LINE",
"69 -9 OFFCURVE",
"72 -16 OFFCURVE",
"82 -16 CURVE SMOOTH"
);
},
{
closed = 1;
nodes = (
"163 32 OFFCURVE",
"122 32 OFFCURVE",
"101 32 CURVE",
"114 146 OFFCURVE",
"119 271 OFFCURVE",
"119 417 CURVE SMOOTH",
"119 483 OFFCURVE",
"118 561 OFFCURVE",
"116 653 CURVE",
"150 669 OFFCURVE",
"200 677 OFFCURVE",
"248 677 CURVE SMOOTH",
"364 677 OFFCURVE",
"489 630 OFFCURVE",
"489 517 CURVE SMOOTH",
"489 402 OFFCURVE",
"361 373 OFFCURVE",
"214 370 CURVE SMOOTH",
"197 370 OFFCURVE",
"190 369 OFFCURVE",
"190 356 CURVE SMOOTH",
"190 342 OFFCURVE",
"198 340 OFFCURVE",
"213 340 CURVE SMOOTH",
"317 340 OFFCURVE",
"478 315 OFFCURVE",
"478 180 CURVE SMOOTH",
"478 66 OFFCURVE",
"364 23 OFFCURVE",
"207 30 CURVE SMOOTH"
);
}
);
};
layerId = "F86CB789-B416-49E2-AD1B-BE88A4A88FF7";
paths = (
{
closed = 1;
nodes = (
"174 -34 OFFCURVE",
"194 -30 OFFCURVE",
"218 40 CURVE",
"165 4 LINE",
"220 0 OFFCURVE",
"289 -4 OFFCURVE",
"326 -4 CURVE SMOOTH",
"503 -4 OFFCURVE",
"611 79 OFFCURVE",
"611 207 CURVE SMOOTH",
"611 276 OFFCURVE",
"580 332 OFFCURVE",
"467 367 CURVE",
"461 326 LINE",
"580 353 OFFCURVE",
"673 399 OFFCURVE",
"673 505 CURVE SMOOTH",
"673 619 OFFCURVE",
"557 708 OFFCURVE",
"404 708 CURVE SMOOTH",
"350 708 OFFCURVE",
"293 699 OFFCURVE",
"227 673 CURVE SMOOTH",
"187 657 OFFCURVE",
"142 632 OFFCURVE",
"142 586 CURVE SMOOTH",
"142 563 OFFCURVE",
"154 548 OFFCURVE",
"176 548 CURVE SMOOTH",
"193 548 OFFCURVE",
"209 557 OFFCURVE",
"221 562 CURVE",
"184 584 LINE",
"169 497 OFFCURVE",
"160 442 OFFCURVE",
"150 384 CURVE SMOOTH",
"131 278 OFFCURVE",
"109 178 OFFCURVE",
"87 99 CURVE",
"145 131 LINE",
"105 133 LINE SMOOTH",
"62 135 OFFCURVE",
"28 94 OFFCURVE",
"28 53 CURVE SMOOTH",
"28 31 OFFCURVE",
"38 15 OFFCURVE",
"73 10 CURVE SMOOTH",
"114 4 LINE",
"69 53 LINE",
"56 -4 OFFCURVE",
"61 -34 OFFCURVE",
"128 -34 CURVE"
);
},
{
closed = 1;
nodes = (
"257 207 OFFCURVE",
"276 278 OFFCURVE",
"295 384 CURVE SMOOTH",
"310 468 OFFCURVE",
"329 594 OFFCURVE",
"332 611 CURVE",
"286 573 LINE",
"313 576 OFFCURVE",
"359 591 OFFCURVE",
"392 591 CURVE SMOOTH",
"487 591 OFFCURVE",
"526 554 OFFCURVE",
"526 505 CURVE SMOOTH",
"526 423 OFFCURVE",
"414 419 OFFCURVE",
"248 417 CURVE SMOOTH",
"195 416 OFFCURVE",
"157 386 OFFCURVE",
"157 340 CURVE SMOOTH",
"157 298 OFFCURVE",
"188 290 OFFCURVE",
"230 289 CURVE SMOOTH",
"322 287 OFFCURVE",
"457 283 OFFCURVE",
"465 207 CURVE SMOOTH",
"470 154 OFFCURVE",
"412 119 OFFCURVE",
"321 119 CURVE SMOOTH",
"272 119 OFFCURVE",
"236 123 OFFCURVE",
"186 127 CURVE",
"226 87 LINE"
);
}
);
width = 674;
}
);
note = B;
unicode = 0042;
},
{
color = 9;
glyphname = C;
lastChange = "2018-03-20 12:00:42 +0000";
layers = (
{
anchors = (
{
name = bottom;
position = "{344, 0}";
},
{
name = top;
position = "{344, 700}";
}
);
layerId = "0B1DFD06-3317-40CA-B510-4969A0718C16";
paths = (
{
closed = 1;
nodes = (
"537 -2 OFFCURVE",
"658 111 OFFCURVE",
"658 235 CURVE SMOOTH",
"658 245 OFFCURVE",
"658 257 OFFCURVE",
"644 257 CURVE SMOOTH",
"634 257 OFFCURVE",
"628 250 OFFCURVE",
"628 239 CURVE SMOOTH",
"628 124 OFFCURVE",
"510 29 OFFCURVE",
"385 29 CURVE SMOOTH",
"243 29 OFFCURVE",
"81 110 OFFCURVE",
"81 329 CURVE SMOOTH",
"81 537 OFFCURVE",
"230 681 OFFCURVE",
"381 681 CURVE SMOOTH",
"470 681 OFFCURVE",
"527 638 OFFCURVE",
"583 558 CURVE SMOOTH",
"591 547 OFFCURVE",
"597 547 OFFCURVE",
"604 547 CURVE SMOOTH",
"613 547 OFFCURVE",
"619 553 OFFCURVE",
"619 563 CURVE SMOOTH",
"620 610 OFFCURVE",
"620 648 OFFCURVE",
"621 693 CURVE SMOOTH",
"621 702 OFFCURVE",
"614 707 OFFCURVE",
"604 707 CURVE SMOOTH",
"595 707 OFFCURVE",
"588 701 OFFCURVE",
"588 692 CURVE SMOOTH",
"588 665 OFFCURVE",
"589 603 OFFCURVE",
"589 578 CURVE",
"601 579 LINE",
"550 663 OFFCURVE",
"475 712 OFFCURVE",
"381 712 CURVE SMOOTH",
"213 712 OFFCURVE",
"50 569 OFFCURVE",
"50 329 CURVE SMOOTH",
"50 83 OFFCURVE",
"230 -2 OFFCURVE",
"385 -2 CURVE SMOOTH"
);
}
);
width = 688;
},
{
anchors = (
{
name = bottom;
position = "{382, 0}";
},
{
name = top;
position = "{382, 700}";
}
);
background = {
paths = (
{
closed = 1;
nodes = (
"580 -2 OFFCURVE",
"685 106 OFFCURVE",
"685 235 CURVE SMOOTH",
"685 245 OFFCURVE",
"685 257 OFFCURVE",
"671 257 CURVE SMOOTH",
"661 257 OFFCURVE",
"655 250 OFFCURVE",
"655 239 CURVE SMOOTH",
"655 163 OFFCURVE",
"599 29 OFFCURVE",
"412 29 CURVE SMOOTH",
"262 29 OFFCURVE",
"107 110 OFFCURVE",
"107 329 CURVE SMOOTH",
"107 545 OFFCURVE",
"257 681 OFFCURVE",
"408 681 CURVE SMOOTH",
"502 681 OFFCURVE",
"552 628 OFFCURVE",
"623 550 CURVE SMOOTH",
"628 545 OFFCURVE",
"633 542 OFFCURVE",
"636 542 CURVE SMOOTH",
"640 542 OFFCURVE",
"643 546 OFFCURVE",
"645 555 CURVE SMOOTH",
"648 571 OFFCURVE",
"648 592 OFFCURVE",
"648 696 CURVE SMOOTH",
"648 705 OFFCURVE",
"641 707 OFFCURVE",
"631 707 CURVE SMOOTH",
"622 707 OFFCURVE",
"615 701 OFFCURVE",
"615 692 CURVE SMOOTH",
"615 672 OFFCURVE",
"614 638 OFFCURVE",
"614 611 CURVE",
"547 674 OFFCURVE",
"490 712 OFFCURVE",
"407 712 CURVE SMOOTH",
"245 712 OFFCURVE",
"77 568 OFFCURVE",
"77 328 CURVE SMOOTH",
"77 82 OFFCURVE",
"254 -2 OFFCURVE",
"404 -2 CURVE SMOOTH"
);
}
);
};
layerId = "2F8C22CF-EC86-44F4-AF1A-A6C7F26A0C3C";
paths = (
{
closed = 1;
nodes = (
"579 -4 OFFCURVE",
"712 103 OFFCURVE",
"712 252 CURVE SMOOTH",
"712 295 OFFCURVE",
"683 322 OFFCURVE",
"635 322 CURVE SMOOTH",
"589 322 OFFCURVE",
"563 293 OFFCURVE",
"563 254 CURVE SMOOTH",
"563 177 OFFCURVE",
"486 126 OFFCURVE",
"401 126 CURVE SMOOTH",
"288 126 OFFCURVE",
"195 210 OFFCURVE",
"195 333 CURVE SMOOTH",
"195 473 OFFCURVE",
"301 584 OFFCURVE",
"404 584 CURVE SMOOTH",
"486 584 OFFCURVE",
"516 537 OFFCURVE",
"552 487 CURVE SMOOTH",
"563 472 OFFCURVE",
"586 464 OFFCURVE",
"607 464 CURVE SMOOTH",
"658 464 OFFCURVE",
"677 497 OFFCURVE",
"679 552 CURVE SMOOTH",
"680 584 OFFCURVE",
"680 617 OFFCURVE",
"680 649 CURVE SMOOTH",
"680 685 OFFCURVE",
"654 710 OFFCURVE",
"608 710 CURVE SMOOTH",
"563 710 OFFCURVE",
"543 683 OFFCURVE",
"543 646 CURVE SMOOTH",
"543 629 OFFCURVE",
"542 599 OFFCURVE",
"542 576 CURVE",
"593 576 LINE",
"579 643 OFFCURVE",
"511 714 OFFCURVE",
"364 714 CURVE SMOOTH",
"188 714 OFFCURVE",
"50 547 OFFCURVE",
"50 332 CURVE SMOOTH",
"50 129 OFFCURVE",
"191 -4 OFFCURVE",
"401 -4 CURVE SMOOTH"
);
}
);
width = 742;
},
{
anchors = (
{
name = bottom;
position = "{359, 0}";
},
{
name = top;
position = "{359, 700}";
}
);
layerId = "17B9D149-A542-49FB-8130-D430586D7342";
paths = (
{
closed = 1;
nodes = (
"567 -3 OFFCURVE",
"680 116 OFFCURVE",
"680 231 CURVE SMOOTH",
"680 264 OFFCURVE",
"670 283 OFFCURVE",
"640 283 CURVE SMOOTH",
"605 283 OFFCURVE",
"602 262 OFFCURVE",
"602 245 CURVE SMOOTH",
"602 119 OFFCURVE",
"489 68 OFFCURVE",
"388 68 CURVE SMOOTH",
"261 68 OFFCURVE",
"127 150 OFFCURVE",
"127 332 CURVE SMOOTH",
"127 511 OFFCURVE",
"240 642 OFFCURVE",
"378 642 CURVE SMOOTH",
"469 642 OFFCURVE",
"531 584 OFFCURVE",
"571 530 CURVE SMOOTH",
"582 515 OFFCURVE",
"596 514 OFFCURVE",
"603 514 CURVE SMOOTH",
"629 514 OFFCURVE",
"642 528 OFFCURVE",
"643 559 CURVE SMOOTH",
"644 596 OFFCURVE",
"645 665 OFFCURVE",
"645 671 CURVE SMOOTH",
"645 696 OFFCURVE",
"630 708 OFFCURVE",
"607 708 CURVE SMOOTH",
"581 708 OFFCURVE",
"570 694 OFFCURVE",
"570 674 CURVE SMOOTH",
"570 651 OFFCURVE",
"570 601 OFFCURVE",
"570 577 CURVE",
"598 578 LINE",
"561 658 OFFCURVE",
"483 713 OFFCURVE",
"378 713 CURVE SMOOTH",
"202 713 OFFCURVE",
"50 560 OFFCURVE",
"50 335 CURVE SMOOTH",
"50 101 OFFCURVE",
"213 -3 OFFCURVE",
"382 -3 CURVE SMOOTH"
);
}
);
width = 714;
},
{
anchors = (
{
name = bottom;
position = "{302, 0}";
},
{
name = top;
position = "{425, 700}";
}
);
layerId = "2214C8E2-2079-4DC2-8649-1937C1DD8804";
paths = (
{
closed = 1;
nodes = (
"512 -2 OFFCURVE",
"638 111 OFFCURVE",
"657 235 CURVE SMOOTH",
"659 248 OFFCURVE",
"659 257 OFFCURVE",
"647 257 CURVE SMOOTH",
"635 257 OFFCURVE",
"629 249 OFFCURVE",
"628 239 CURVE SMOOTH",
"615 134 OFFCURVE",
"489 29 OFFCURVE",
"346 29 CURVE SMOOTH",
"221 29 OFFCURVE",
"91 92 OFFCURVE",
"91 265 CURVE SMOOTH",
"91 464 OFFCURVE",
"264 681 OFFCURVE",
"465 681 CURVE SMOOTH",
"563 681 OFFCURVE",
"595 630 OFFCURVE",
"639 558 CURVE SMOOTH",
"644 549 OFFCURVE",
"649 547 OFFCURVE",
"656 547 CURVE SMOOTH",
"668 547 OFFCURVE",
"674 552 OFFCURVE",
"676 563 CURVE SMOOTH",
"684 603 OFFCURVE",
"694 655 OFFCURVE",
"701 693 CURVE SMOOTH",
"703 702 OFFCURVE",
"697 707 OFFCURVE",
"688 707 CURVE SMOOTH",
"678 707 OFFCURVE",
"670 701 OFFCURVE",
"668 692 CURVE SMOOTH",
"664 672 OFFCURVE",
"651 591 OFFCURVE",
"649 578 CURVE",
"657 579 LINE",
"624 655 OFFCURVE",
"563 712 OFFCURVE",
"465 712 CURVE SMOOTH",
"248 712 OFFCURVE",
"59 486 OFFCURVE",
"59 263 CURVE SMOOTH",
"59 68 OFFCURVE",
"216 -2 OFFCURVE",
"346 -2 CURVE SMOOTH"
);
}
);
width = 688;
},
{
anchors = (
{
name = bottom;
position = "{317, 0}";
},
{
name = top;
position = "{440, 700}";
}
);
layerId = "AEE50E4E-1B30-4E16-A434-AC23B12A4294";
paths = (
{
closed = 1;
nodes = (
"534 -3 OFFCURVE",
"659 115 OFFCURVE",
"679 231 CURVE SMOOTH",
"684 262 OFFCURVE",
"680 283 OFFCURVE",
"648 283 CURVE SMOOTH",
"614 283 OFFCURVE",
"607 260 OFFCURVE",
"603 245 CURVE SMOOTH",
"570 124 OFFCURVE",
"462 68 OFFCURVE",
"357 68 CURVE SMOOTH",
"245 68 OFFCURVE",
"138 131 OFFCURVE",
"138 276 CURVE SMOOTH",
"138 452 OFFCURVE",
"294 642 OFFCURVE",
"465 642 CURVE SMOOTH",
"558 642 OFFCURVE",
"591 585 OFFCURVE",
"622 530 CURVE SMOOTH",
"631 515 OFFCURVE",
"645 514 OFFCURVE",
"652 514 CURVE SMOOTH",
"674 514 OFFCURVE",
"693 525 OFFCURVE",
"700 559 CURVE SMOOTH",
"707 596 OFFCURVE",
"702 570 OFFCURVE",
"721 671 CURVE SMOOTH",
"725 693 OFFCURVE",
"716 708 OFFCURVE",
"689 708 CURVE SMOOTH",
"662 708 OFFCURVE",
"650 692 OFFCURVE",
"647 674 CURVE SMOOTH",
"642 645 OFFCURVE",
"645 664 OFFCURVE",
"630 577 CURVE",
"658 578 LINE",
"635 658 OFFCURVE",
"573 713 OFFCURVE",
"465 713 CURVE SMOOTH",
"250 713 OFFCURVE",
"60 493 OFFCURVE",
"60 274 CURVE SMOOTH",
"60 86 OFFCURVE",
"204 -3 OFFCURVE",
"357 -3 CURVE SMOOTH"
);
}
);
width = 714;
},
{
anchors = (
{
name = bottom;
position = "{340, 0}";
},
{
name = top;
position = "{463, 700}";
}
);
background = {
paths = (
{
closed = 1;
nodes = (
"580 -2 OFFCURVE",
"685 106 OFFCURVE",
"685 235 CURVE SMOOTH",
"685 245 OFFCURVE",
"685 257 OFFCURVE",
"671 257 CURVE SMOOTH",
"661 257 OFFCURVE",
"655 250 OFFCURVE",
"655 239 CURVE SMOOTH",
"655 163 OFFCURVE",
"599 29 OFFCURVE",
"412 29 CURVE SMOOTH",
"262 29 OFFCURVE",
"107 110 OFFCURVE",
"107 329 CURVE SMOOTH",
"107 545 OFFCURVE",
"257 681 OFFCURVE",
"408 681 CURVE SMOOTH",
"502 681 OFFCURVE",
"552 628 OFFCURVE",
"623 550 CURVE SMOOTH",
"628 545 OFFCURVE",
"633 542 OFFCURVE",
"636 542 CURVE SMOOTH",
"640 542 OFFCURVE",
"643 546 OFFCURVE",
"645 555 CURVE SMOOTH",
"648 571 OFFCURVE",
"648 592 OFFCURVE",
"648 696 CURVE SMOOTH",
"648 705 OFFCURVE",
"641 707 OFFCURVE",
"631 707 CURVE SMOOTH",
"622 707 OFFCURVE",
"615 701 OFFCURVE",
"615 692 CURVE SMOOTH",
"615 672 OFFCURVE",
"614 638 OFFCURVE",
"614 611 CURVE",
"547 674 OFFCURVE",
"490 712 OFFCURVE",
"407 712 CURVE SMOOTH",
"245 712 OFFCURVE",
"77 568 OFFCURVE",
"77 328 CURVE SMOOTH",
"77 82 OFFCURVE",
"254 -2 OFFCURVE",
"404 -2 CURVE SMOOTH"
);
}
);
};
layerId = "F86CB789-B416-49E2-AD1B-BE88A4A88FF7";
paths = (
{
closed = 1;
nodes = (
"599 -4 OFFCURVE",
"706 160 OFFCURVE",
"714 252 CURVE SMOOTH",
"718 296 OFFCURVE",
"697 322 OFFCURVE",
"648 322 CURVE SMOOTH",
"589 322 OFFCURVE",
"573 284 OFFCURVE",
"566 254 CURVE SMOOTH",
"542 160 OFFCURVE",
"452 126 OFFCURVE",
"381 126 CURVE SMOOTH",
"281 126 OFFCURVE",
"208 191 OFFCURVE",
"208 294 CURVE SMOOTH",
"208 429 OFFCURVE",
"335 584 OFFCURVE",
"469 584 CURVE SMOOTH",
"548 584 OFFCURVE",
"573 530 OFFCURVE",
"596 487 CURVE SMOOTH",
"604 472 OFFCURVE",
"625 464 OFFCURVE",
"649 464 CURVE SMOOTH",
"697 464 OFFCURVE",
"723 497 OFFCURVE",
"734 552 CURVE SMOOTH",
"739 580 OFFCURVE",
"750 636 OFFCURVE",
"752 649 CURVE SMOOTH",
"758 682 OFFCURVE",
"739 710 OFFCURVE",
"691 710 CURVE SMOOTH",
"649 710 OFFCURVE",
"623 688 OFFCURVE",
"615 646 CURVE SMOOTH",
"611 624 OFFCURVE",
"613 636 OFFCURVE",
"602 576 CURVE",
"653 576 LINE",
"652 641 OFFCURVE",
"602 714 OFFCURVE",
"469 714 CURVE SMOOTH",
"248 714 OFFCURVE",
"61 512 OFFCURVE",
"61 298 CURVE SMOOTH",
"61 119 OFFCURVE",
"193 -4 OFFCURVE",
"381 -4 CURVE SMOOTH"
);
}
);
width = 742;
}
);
leftKerningGroup = C;
note = C;
rightKerningGroup = C;
unicode = 0043;
},
{
color = 9;
glyphname = D;
lastChange = "2018-03-20 12:00:42 +0000";
layers = (
{
anchors = (
{
name = bottom;
position = "{313, 0}";
},
{
name = center;
position = "{313, 350}";
},
{
name = top;
position = "{313, 700}";
}
);
layerId = "0B1DFD06-3317-40CA-B510-4969A0718C16";
paths = (
{
closed = 1;
nodes = (
"106 8 OFFCURVE",
"127 8 OFFCURVE",
"152 8 CURVE SMOOTH",
"431 8 OFFCURVE",
"593 145 OFFCURVE",
"593 359 CURVE SMOOTH",
"593 605 OFFCURVE",
"372 698 OFFCURVE",
"97 698 CURVE SMOOTH",
"68 698 OFFCURVE",
"60 697 OFFCURVE",
"60 683 CURVE SMOOTH",
"60 668 OFFCURVE",
"71 667 OFFCURVE",
"83 667 CURVE SMOOTH",
"270 667 OFFCURVE",
"562 630 OFFCURVE",
"562 359 CURVE SMOOTH",
"562 152 OFFCURVE",
"399 38 OFFCURVE",
"149 38 CURVE",
"159 30 LINE",
"142 692 LINE SMOOTH",
"142 705 OFFCURVE",
"138 713 OFFCURVE",
"127 713 CURVE SMOOTH",
"117 713 OFFCURVE",
"110 708 OFFCURVE",
"110 691 CURVE SMOOTH",
"128 30 LINE",
"136 38 LINE",
"76 38 LINE SMOOTH",
"66 38 OFFCURVE",
"61 32 OFFCURVE",
"61 23 CURVE SMOOTH",
"61 14 OFFCURVE",
"65 8 OFFCURVE",
"77 8 CURVE SMOOTH"
);
}
);
width = 643;
},
{
anchors = (
{
name = bottom;
position = "{347, 0}";
},
{
name = center;
position = "{357, 351}";
},
{
name = top;
position = "{347, 700}";
}
);
background = {
paths = (
{
closed = 1;
nodes = (
"473 8 OFFCURVE",
"635 142 OFFCURVE",
"635 357 CURVE SMOOTH",
"635 606 OFFCURVE",
"417 698 OFFCURVE",
"127 698 CURVE SMOOTH",
"114 698 OFFCURVE",
"102 699 OFFCURVE",
"102 686 CURVE SMOOTH",
"102 674 OFFCURVE",
"109 669 OFFCURVE",
"125 669 CURVE SMOOTH",
"413 669 OFFCURVE",
"606 581 OFFCURVE",
"606 358 CURVE SMOOTH",
"606 158 OFFCURVE",
"431 37 OFFCURVE",
"201 37 CURVE",
"183 686 LINE SMOOTH",
"183 703 OFFCURVE",
"182 712 OFFCURVE",
"168 712 CURVE SMOOTH",
"153 712 OFFCURVE",
"152 701 OFFCURVE",
"152 684 CURVE SMOOTH",
"170 37 LINE",
"115 37 LINE SMOOTH",
"108 37 OFFCURVE",
"103 34 OFFCURVE",
"103 25 CURVE SMOOTH",
"103 13 OFFCURVE",
"107 8 OFFCURVE",
"119 8 CURVE SMOOTH",
"148 8 OFFCURVE",
"169 8 OFFCURVE",
"194 8 CURVE SMOOTH"
);
}
);
};
layerId = "2F8C22CF-EC86-44F4-AF1A-A6C7F26A0C3C";
paths = (
{
closed = 1;
nodes = (
"178 5 OFFCURVE",
"197 5 OFFCURVE",
"218 5 CURVE SMOOTH",
"491 5 OFFCURVE",
"667 147 OFFCURVE",
"667 362 CURVE SMOOTH",
"667 592 OFFCURVE",
"458 703 OFFCURVE",
"205 703 CURVE SMOOTH",
"104 703 OFFCURVE",
"70 685 OFFCURVE",
"70 636 CURVE SMOOTH",
"70 577 OFFCURVE",
"120 574 OFFCURVE",
"159 574 CURVE SMOOTH",
"309 574 OFFCURVE",
"522 545 OFFCURVE",
"522 362 CURVE SMOOTH",
"522 219 OFFCURVE",
"385 133 OFFCURVE",
"233 133 CURVE",
"283 85 LINE",
"268 636 LINE SMOOTH",
"267 690 OFFCURVE",
"255 719 OFFCURVE",
"194 719 CURVE SMOOTH",
"129 719 OFFCURVE",
"122 687 OFFCURVE",
"123 637 CURVE SMOOTH",
"138 85 LINE",
"186 133 LINE",
"128 133 LINE SMOOTH",
"88 133 OFFCURVE",
"71 111 OFFCURVE",
"71 71 CURVE SMOOTH",
"71 23 OFFCURVE",
"95 5 OFFCURVE",
"153 5 CURVE SMOOTH"
);
}
);
width = 717;
},
{
anchors = (
{
name = bottom;
position = "{339, 0}";
},
{
name = center;
position = "{343, 350}";
},
{
name = top;
position = "{339, 700}";
}
);
layerId = "17B9D149-A542-49FB-8130-D430586D7342";
paths = (
{
closed = 1;
nodes = (
"148 7 OFFCURVE",
"168 7 OFFCURVE",
"191 7 CURVE SMOOTH",
"467 7 OFFCURVE",
"635 146 OFFCURVE",
"635 361 CURVE SMOOTH",
"635 605 OFFCURVE",
"419 700 OFFCURVE",
"152 700 CURVE SMOOTH",
"106 700 OFFCURVE",
"77 697 OFFCURVE",
"77 663 CURVE SMOOTH",
"77 633 OFFCURVE",
"101 630 OFFCURVE",
"126 630 CURVE SMOOTH",
"318 630 OFFCURVE",
"559 590 OFFCURVE",
"559 361 CURVE SMOOTH",
"559 177 OFFCURVE",
"406 76 OFFCURVE",
"195 76 CURVE",
"221 52 LINE",
"205 670 LINE SMOOTH",
"205 699 OFFCURVE",
"198 715 OFFCURVE",
"167 715 CURVE SMOOTH",
"139 715 OFFCURVE",
"127 703 OFFCURVE",
"128 669 CURVE SMOOTH",
"145 52 LINE",
"169 76 LINE",
"110 76 LINE SMOOTH",
"88 76 OFFCURVE",
"78 64 OFFCURVE",
"78 42 CURVE SMOOTH",
"78 16 OFFCURVE",
"92 7 OFFCURVE",
"120 7 CURVE SMOOTH"
);
}
);
width = 687;
},
{
anchors = (
{
name = bottom;
position = "{271, 0}";
},
{
name = center;
position = "{333, 350}";
},
{
name = top;
position = "{394, 700}";
}
);
layerId = "2214C8E2-2079-4DC2-8649-1937C1DD8804";
paths = (
{
closed = 1;
nodes = (
"65 8 OFFCURVE",
"86 8 OFFCURVE",
"111 8 CURVE SMOOTH",
"401 8 OFFCURVE",
"620 164 OFFCURVE",
"620 401 CURVE SMOOTH",
"620 626 OFFCURVE",
"424 698 OFFCURVE",
"180 698 CURVE SMOOTH",
"151 698 OFFCURVE",
"140 697 OFFCURVE",
"138 683 CURVE SMOOTH",
"136 669 OFFCURVE",
"145 667 OFFCURVE",
"159 667 CURVE SMOOTH",
"352 667 OFFCURVE",
"588 639 OFFCURVE",
"588 404 CURVE SMOOTH",
"588 183 OFFCURVE",
"379 38 OFFCURVE",
"114 38 CURVE",
"122 30 LINE",
"222 692 LINE SMOOTH",
"224 705 OFFCURVE",
"222 713 OFFCURVE",
"211 713 CURVE SMOOTH",
"201 713 OFFCURVE",
"193 708 OFFCURVE",
"190 691 CURVE SMOOTH",
"91 30 LINE",
"101 38 LINE",
"41 38 LINE SMOOTH",
"29 38 OFFCURVE",
"22 29 OFFCURVE",
"22 19 CURVE SMOOTH",
"22 12 OFFCURVE",
"25 8 OFFCURVE",
"36 8 CURVE SMOOTH"
);
}
);
width = 643;
},
{
anchors = (
{
name = bottom;
position = "{297, 0}";
},
{
name = center;
position = "{363, 350}";
},
{
name = top;
position = "{420, 700}";
}
);
layerId = "AEE50E4E-1B30-4E16-A434-AC23B12A4294";
paths = (
{
closed = 1;
nodes = (
"107 7 OFFCURVE",
"143 7 OFFCURVE",
"166 7 CURVE SMOOTH",
"448 7 OFFCURVE",
"662 164 OFFCURVE",
"662 401 CURVE SMOOTH",
"662 622 OFFCURVE",
"475 700 OFFCURVE",
"233 700 CURVE SMOOTH",
"187 700 OFFCURVE",
"158 697 OFFCURVE",
"152 663 CURVE SMOOTH",
"147 633 OFFCURVE",
"169 630 OFFCURVE",
"195 630 CURVE SMOOTH",
"389 630 OFFCURVE",
"586 597 OFFCURVE",
"586 401 CURVE SMOOTH",
"586 208 OFFCURVE",
"395 76 OFFCURVE",
"166 76 CURVE",
"188 52 LINE",
"281 670 LINE SMOOTH",
"285 698 OFFCURVE",
"284 715 OFFCURVE",
"251 715 CURVE SMOOTH",
"223 715 OFFCURVE",
"209 703 OFFCURVE",
"204 669 CURVE SMOOTH",
"112 52 LINE",
"140 76 LINE",
"81 76 LINE SMOOTH",
"55 76 OFFCURVE",
"42 56 OFFCURVE",
"42 35 CURVE SMOOTH",
"42 14 OFFCURVE",
"54 7 OFFCURVE",
"79 7 CURVE SMOOTH"
);
}
);
width = 687;
},
{
anchors = (
{
name = bottom;
position = "{305, 0}";
},
{
name = center;
position = "{377, 351}";
},
{
name = top;
position = "{428, 700}";
}
);
background = {
paths = (
{
closed = 1;
nodes = (
"473 8 OFFCURVE",
"635 142 OFFCURVE",
"635 357 CURVE SMOOTH",
"635 606 OFFCURVE",
"417 698 OFFCURVE",
"127 698 CURVE SMOOTH",
"114 698 OFFCURVE",
"102 699 OFFCURVE",
"102 686 CURVE SMOOTH",
"102 674 OFFCURVE",
"109 669 OFFCURVE",
"125 669 CURVE SMOOTH",
"413 669 OFFCURVE",
"606 581 OFFCURVE",
"606 358 CURVE SMOOTH",
"606 158 OFFCURVE",
"431 37 OFFCURVE",
"201 37 CURVE",
"183 686 LINE SMOOTH",
"183 703 OFFCURVE",
"182 712 OFFCURVE",
"168 712 CURVE SMOOTH",
"153 712 OFFCURVE",
"152 701 OFFCURVE",
"152 684 CURVE SMOOTH",
"170 37 LINE",
"115 37 LINE SMOOTH",
"108 37 OFFCURVE",
"103 34 OFFCURVE",
"103 25 CURVE SMOOTH",
"103 13 OFFCURVE",
"107 8 OFFCURVE",
"119 8 CURVE SMOOTH",
"148 8 OFFCURVE",
"169 8 OFFCURVE",
"194 8 CURVE SMOOTH"
);
}
);
};
layerId = "F86CB789-B416-49E2-AD1B-BE88A4A88FF7";
paths = (
{
closed = 1;
nodes = (
"137 5 OFFCURVE",
"166 5 OFFCURVE",
"187 5 CURVE SMOOTH",
"467 5 OFFCURVE",
"694 149 OFFCURVE",
"694 390 CURVE SMOOTH",
"694 598 OFFCURVE",
"517 703 OFFCURVE",
"289 703 CURVE SMOOTH",
"205 703 OFFCURVE",
"139 691 OFFCURVE",
"139 625 CURVE SMOOTH",
"139 578 OFFCURVE",
"172 574 OFFCURVE",
"218 574 CURVE SMOOTH",
"348 574 OFFCURVE",
"547 551 OFFCURVE",
"547 390 CURVE SMOOTH",
"547 244 OFFCURVE",
"384 129 OFFCURVE",
"214 133 CURVE",
"256 85 LINE",
"338 636 LINE SMOOTH",
"347 693 OFFCURVE",
"337 719 OFFCURVE",
"279 719 CURVE SMOOTH",
"214 719 OFFCURVE",
"201 687 OFFCURVE",
"193 637 CURVE SMOOTH",
"111 85 LINE",
"167 133 LINE",
"109 133 LINE SMOOTH",
"62 133 OFFCURVE",
"40 96 OFFCURVE",
"40 56 CURVE SMOOTH",
"40 19 OFFCURVE",
"59 5 OFFCURVE",
"112 5 CURVE SMOOTH"
);
}
);
width = 717;
}
);
note = D;
unicode = 0044;
},
{
color = 9;
glyphname = E;
lastChange = "2018-03-20 12:00:42 +0000";
layers = (
{
anchors = (
{
name = bottom;
position = "{311, 0}";
},
{
name = ogonek;
position = "{510, 30}";
},
{
name = top;
position = "{311, 700}";
},
{
name = topleft;
position = "{55, 700}";
}
);
layerId = "0B1DFD06-3317-40CA-B510-4969A0718C16";
paths = (
{
closed = 1;
nodes = (
"406 13 OFFCURVE",
"476 15 OFFCURVE",
"513 22 CURVE SMOOTH",
"526 24 OFFCURVE",
"528 28 OFFCURVE",
"528 36 CURVE SMOOTH",
"528 48 OFFCURVE",
"523 55 OFFCURVE",
"509 53 CURVE SMOOTH",
"456 47 OFFCURVE",
"428 44 OFFCURVE",
"346 44 CURVE SMOOTH",
"264 44 OFFCURVE",
"184 47 OFFCURVE",
"136 52 CURVE",
"147 41 LINE",
"157 160 OFFCURVE",
"169 209 OFFCURVE",
"169 437 CURVE SMOOTH",
"169 503 OFFCURVE",
"168 604 OFFCURVE",
"164 671 CURVE",
"155 660 LINE",
"198 663 OFFCURVE",
"242 666 OFFCURVE",
"325 666 CURVE SMOOTH",
"420 666 OFFCURVE",
"464 662 OFFCURVE",
"517 657 CURVE SMOOTH",
"525 656 OFFCURVE",
"534 660 OFFCURVE",
"534 672 CURVE SMOOTH",
"534 681 OFFCURVE",
"528 686 OFFCURVE",
"518 687 CURVE SMOOTH",
"461 693 OFFCURVE",
"420 696 OFFCURVE",
"311 696 CURVE SMOOTH",
"248 696 OFFCURVE",
"197 695 OFFCURVE",
"132 690 CURVE SMOOTH",
"118 689 OFFCURVE",
"112 685 OFFCURVE",
"112 673 CURVE SMOOTH",
"112 660 OFFCURVE",
"119 658 OFFCURVE",
"145 660 CURVE",
"134 670 LINE",
"139 603 OFFCURVE",
"138 490 OFFCURVE",
"138 406 CURVE SMOOTH",
"138 239 OFFCURVE",
"128 128 OFFCURVE",
"114 42 CURVE",
"127 52 LINE",
"110 54 OFFCURVE",
"100 55 OFFCURVE",
"96 55 CURVE SMOOTH",
"85 55 OFFCURVE",
"80 49 OFFCURVE",
"80 39 CURVE SMOOTH",
"80 30 OFFCURVE",
"84 25 OFFCURVE",
"96 24 CURVE SMOOTH",
"195 15 OFFCURVE",
"276 14 OFFCURVE",
"324 14 CURVE SMOOTH"
);
},
{
closed = 1;
nodes = (
"443 349 OFFCURVE",
"446 354 OFFCURVE",
"446 363 CURVE SMOOTH",
"446 375 OFFCURVE",
"440 380 OFFCURVE",
"430 380 CURVE SMOOTH",
"396 380 OFFCURVE",
"330 384 OFFCURVE",
"267 384 CURVE SMOOTH",
"217 384 OFFCURVE",
"145 387 OFFCURVE",
"109 387 CURVE SMOOTH",
"99 387 OFFCURVE",
"93 381 OFFCURVE",
"93 372 CURVE SMOOTH",
"93 363 OFFCURVE",
"98 356 OFFCURVE",
"110 356 CURVE SMOOTH",
"144 356 OFFCURVE",
"204 355 OFFCURVE",
"264 354 CURVE SMOOTH",
"341 353 OFFCURVE",
"399 349 OFFCURVE",
"431 349 CURVE SMOOTH"
);
}
);
width = 574;
},
{
anchors = (
{
name = bottom;
position = "{348, 0}";
},
{
name = ogonek;
position = "{540, 51}";
},
{
name = top;
position = "{348, 700}";
},
{
name = topleft;
position = "{118, 652}";
}
);
layerId = "2F8C22CF-EC86-44F4-AF1A-A6C7F26A0C3C";
paths = (
{
closed = 1;
nodes = (
"398 9 OFFCURVE",
"492 8 OFFCURVE",
"540 18 CURVE SMOOTH",
"578 26 OFFCURVE",
"594 47 OFFCURVE",
"594 81 CURVE SMOOTH",
"594 125 OFFCURVE",
"566 151 OFFCURVE",
"517 145 CURVE SMOOTH",
"468 139 OFFCURVE",
"438 136 OFFCURVE",
"361 136 CURVE SMOOTH",
"317 136 OFFCURVE",
"283 137 OFFCURVE",
"208 145 CURVE",
"259 93 LINE",
"278 213 OFFCURVE",
"278 254 OFFCURVE",
"278 382 CURVE SMOOTH",
"278 431 OFFCURVE",
"274 520 OFFCURVE",
"274 620 CURVE",
"227 567 LINE",
"260 570 OFFCURVE",
"317 574 OFFCURVE",
"382 574 CURVE SMOOTH",
"447 574 OFFCURVE",
"498 570 OFFCURVE",
"544 566 CURVE SMOOTH",
"579 563 OFFCURVE",
"600 592 OFFCURVE",
"600 631 CURVE SMOOTH",
"600 674 OFFCURVE",
"573 689 OFFCURVE",
"537 693 CURVE SMOOTH",
"504 697 OFFCURVE",
"431 701 OFFCURVE",
"336 701 CURVE SMOOTH",
"289 701 OFFCURVE",
"207 700 OFFCURVE",
"168 696 CURVE SMOOTH",
"123 691 OFFCURVE",
"98 675 OFFCURVE",
"98 631 CURVE SMOOTH",
"98 593 OFFCURVE",
"117 566 OFFCURVE",
"179 567 CURVE",
"132 620 LINE",
"132 506 OFFCURVE",
"131 416 OFFCURVE",
"131 376 CURVE SMOOTH",
"131 285 OFFCURVE",
"136 225 OFFCURVE",
"113 103 CURVE",
"169 148 LINE",
"147 148 OFFCURVE",
"126 148 OFFCURVE",
"111 147 CURVE SMOOTH",
"82 144 OFFCURVE",
"70 116 OFFCURVE",
"70 84 CURVE SMOOTH",
"70 50 OFFCURVE",
"83 28 OFFCURVE",
"114 24 CURVE SMOOTH",
"221 10 OFFCURVE",
"281 9 OFFCURVE",
"340 9 CURVE SMOOTH"
);
},
{
closed = 1;
nodes = (
"509 300 OFFCURVE",
"525 327 OFFCURVE",
"525 367 CURVE SMOOTH",
"525 420 OFFCURVE",
"497 425 OFFCURVE",
"481 427 CURVE SMOOTH",
"443 431 OFFCURVE",
"363 431 OFFCURVE",
"289 431 CURVE SMOOTH",
"215 431 OFFCURVE",
"154 433 OFFCURVE",
"141 433 CURVE SMOOTH",
"88 433 OFFCURVE",
"81 394 OFFCURVE",
"81 368 CURVE SMOOTH",
"81 324 OFFCURVE",
"101 303 OFFCURVE",
"134 303 CURVE SMOOTH",
"172 303 OFFCURVE",
"151 303 OFFCURVE",
"300 302 CURVE SMOOTH",
"439 301 OFFCURVE",
"412 300 OFFCURVE",
"481 300 CURVE SMOOTH"
);
}
);
width = 640;
},
{
anchors = (
{
name = bottom;
position = "{301, 0}";
},
{
name = ogonek;
position = "{497, 38}";
},
{
name = top;
position = "{301, 700}";
},
{
name = topleft;
position = "{55, 681}";
}
);
layerId = "17B9D149-A542-49FB-8130-D430586D7342";
paths = (
{
closed = 1;
nodes = (
"370 12 OFFCURVE",
"458 11 OFFCURVE",
"499 20 CURVE SMOOTH",
"515 23 OFFCURVE",
"529 30 OFFCURVE",
"529 55 CURVE SMOOTH",
"529 80 OFFCURVE",
"515 93 OFFCURVE",
"487 90 CURVE SMOOTH",
"434 84 OFFCURVE",
"403 81 OFFCURVE",
"325 81 CURVE SMOOTH",
"262 81 OFFCURVE",
"199 83 OFFCURVE",
"140 89 CURVE",
"167 62 LINE",
"179 161 OFFCURVE",
"188 234 OFFCURVE",
"188 391 CURVE SMOOTH",
"188 482 OFFCURVE",
"185 570 OFFCURVE",
"183 651 CURVE",
"159 623 LINE",
"198 626 OFFCURVE",
"249 629 OFFCURVE",
"319 629 CURVE SMOOTH",
"400 629 OFFCURVE",
"453 625 OFFCURVE",
"503 621 CURVE SMOOTH",
"522 619 OFFCURVE",
"535 633 OFFCURVE",
"535 656 CURVE SMOOTH",
"535 682 OFFCURVE",
"518 686 OFFCURVE",
"501 689 CURVE SMOOTH",
"466 694 OFFCURVE",
"395 698 OFFCURVE",
"293 698 CURVE SMOOTH",
"242 698 OFFCURVE",
"168 697 OFFCURVE",
"121 692 CURVE SMOOTH",
"103 690 OFFCURVE",
"81 687 OFFCURVE",
"81 656 CURVE SMOOTH",
"81 633 OFFCURVE",
"93 621 OFFCURVE",
"134 623 CURVE",
"108 650 LINE",
"111 564 OFFCURVE",
"110 455 OFFCURVE",
"110 392 CURVE SMOOTH",
"110 252 OFFCURVE",
"106 167 OFFCURVE",
"89 66 CURVE",
"119 90 LINE",
"100 92 OFFCURVE",
"86 92 OFFCURVE",
"76 92 CURVE SMOOTH",
"61 92 OFFCURVE",
"51 77 OFFCURVE",
"51 57 CURVE SMOOTH",
"51 39 OFFCURVE",
"59 26 OFFCURVE",
"78 24 CURVE SMOOTH",
"175 13 OFFCURVE",
"240 12 OFFCURVE",
"316 12 CURVE SMOOTH"
);
},
{
closed = 1;
nodes = (
"444 329 OFFCURVE",
"453 345 OFFCURVE",
"453 366 CURVE SMOOTH",
"453 385 OFFCURVE",
"446 399 OFFCURVE",
"425 399 CURVE SMOOTH",
"385 399 OFFCURVE",
"333 402 OFFCURVE",
"255 403 CURVE SMOOTH",
"180 404 OFFCURVE",
"146 405 OFFCURVE",
"94 405 CURVE SMOOTH",
"71 405 OFFCURVE",
"63 389 OFFCURVE",
"63 370 CURVE SMOOTH",
"63 347 OFFCURVE",
"76 335 OFFCURVE",
"98 335 CURVE SMOOTH",
"150 335 OFFCURVE",
"196 333 OFFCURVE",
"253 333 CURVE SMOOTH",
"340 333 OFFCURVE",
"385 329 OFFCURVE",
"425 329 CURVE SMOOTH"
);
}
);
width = 573;
},
{
anchors = (
{
name = bottom;
position = "{269, 0}";
},
{
name = ogonek;
position = "{473, 30}";
},
{
name = top;
position = "{392, 700}";
},
{
name = topleft;
position = "{136, 700}";
}
);
layerId = "2214C8E2-2079-4DC2-8649-1937C1DD8804";
paths = (
{
closed = 1;
nodes = (
"366 13 OFFCURVE",
"437 15 OFFCURVE",
"475 22 CURVE SMOOTH",
"488 24 OFFCURVE",
"491 28 OFFCURVE",
"492 36 CURVE SMOOTH",
"494 48 OFFCURVE",
"491 55 OFFCURVE",
"476 53 CURVE SMOOTH",
"422 47 OFFCURVE",
"394 44 OFFCURVE",
"312 44 CURVE SMOOTH",
"230 44 OFFCURVE",
"150 47 OFFCURVE",
"103 52 CURVE",
"112 41 LINE",
"143 160 OFFCURVE",
"164 209 OFFCURVE",
"204 437 CURVE SMOOTH",
"216 503 OFFCURVE",
"233 604 OFFCURVE",
"240 671 CURVE",
"229 660 LINE",
"273 663 OFFCURVE",
"317 666 OFFCURVE",
"400 666 CURVE SMOOTH",
"495 666 OFFCURVE",
"539 662 OFFCURVE",
"591 657 CURVE SMOOTH",
"599 656 OFFCURVE",
"608 660 OFFCURVE",
"610 672 CURVE SMOOTH",
"612 681 OFFCURVE",
"607 686 OFFCURVE",
"597 687 CURVE SMOOTH",
"541 693 OFFCURVE",
"501 696 OFFCURVE",
"392 696 CURVE SMOOTH",
"329 696 OFFCURVE",
"278 695 OFFCURVE",
"212 690 CURVE SMOOTH",
"197 689 OFFCURVE",
"191 685 OFFCURVE",
"189 673 CURVE SMOOTH",
"186 660 OFFCURVE",
"193 658 OFFCURVE",
"219 660 CURVE",
"210 670 LINE",
"203 603 OFFCURVE",
"182 490 OFFCURVE",
"168 406 CURVE SMOOTH",
"138 239 OFFCURVE",
"109 128 OFFCURVE",
"79 42 CURVE",
"94 52 LINE",
"78 54 OFFCURVE",
"68 55 OFFCURVE",
"64 55 CURVE SMOOTH",
"53 55 OFFCURVE",
"47 49 OFFCURVE",
"45 39 CURVE SMOOTH",
"43 30 OFFCURVE",
"46 25 OFFCURVE",
"58 24 CURVE SMOOTH",
"156 15 OFFCURVE",
"236 14 OFFCURVE",
"284 14 CURVE SMOOTH"
);
},
{
closed = 1;
nodes = (
"463 349 OFFCURVE",
"466 354 OFFCURVE",
"468 363 CURVE SMOOTH",
"470 375 OFFCURVE",
"465 380 OFFCURVE",
"455 380 CURVE SMOOTH",
"421 380 OFFCURVE",
"356 384 OFFCURVE",
"293 384 CURVE SMOOTH",
"243 384 OFFCURVE",
"171 387 OFFCURVE",
"135 387 CURVE SMOOTH",
"125 387 OFFCURVE",
"118 381 OFFCURVE",
"117 372 CURVE SMOOTH",
"115 363 OFFCURVE",
"119 356 OFFCURVE",
"131 356 CURVE SMOOTH",
"165 356 OFFCURVE",
"225 355 OFFCURVE",
"284 354 CURVE SMOOTH",
"361 353 OFFCURVE",
"419 349 OFFCURVE",
"451 349 CURVE SMOOTH"
);
}
);
width = 574;
},
{
anchors = (
{
name = bottom;
position = "{259, 0}";
},
{
name = ogonek;
position = "{462, 38}";
},
{
name = top;
position = "{382, 700}";
},
{
name = topleft;
position = "{133, 681}";
}
);
layerId = "AEE50E4E-1B30-4E16-A434-AC23B12A4294";
paths = (
{
closed = 1;
nodes = (
"330 12 OFFCURVE",
"418 11 OFFCURVE",
"461 20 CURVE SMOOTH",
"477 23 OFFCURVE",
"492 30 OFFCURVE",
"497 55 CURVE SMOOTH",
"501 80 OFFCURVE",
"489 93 OFFCURVE",
"461 90 CURVE SMOOTH",
"407 84 OFFCURVE",
"375 81 OFFCURVE",
"297 81 CURVE SMOOTH",
"234 81 OFFCURVE",
"172 83 OFFCURVE",
"114 89 CURVE",
"136 62 LINE",
"165 161 OFFCURVE",
"187 234 OFFCURVE",
"215 391 CURVE SMOOTH",
"231 482 OFFCURVE",
"244 570 OFFCURVE",
"256 651 CURVE",
"227 623 LINE",
"266 626 OFFCURVE",
"318 629 OFFCURVE",
"388 629 CURVE SMOOTH",
"469 629 OFFCURVE",
"521 625 OFFCURVE",
"570 621 CURVE SMOOTH",
"589 619 OFFCURVE",
"605 633 OFFCURVE",
"609 656 CURVE SMOOTH",
"613 682 OFFCURVE",
"597 686 OFFCURVE",
"580 689 CURVE SMOOTH",
"546 694 OFFCURVE",
"476 698 OFFCURVE",
"374 698 CURVE SMOOTH",
"323 698 OFFCURVE",
"249 697 OFFCURVE",
"201 692 CURVE SMOOTH",
"183 690 OFFCURVE",
"160 687 OFFCURVE",
"155 656 CURVE SMOOTH",
"151 633 OFFCURVE",
"160 621 OFFCURVE",
"202 623 CURVE",
"181 650 LINE",
"168 564 OFFCURVE",
"148 455 OFFCURVE",
"137 392 CURVE SMOOTH",
"112 252 OFFCURVE",
"93 167 OFFCURVE",
"59 66 CURVE",
"93 90 LINE",
"74 92 OFFCURVE",
"60 92 OFFCURVE",
"50 92 CURVE SMOOTH",
"35 92 OFFCURVE",
"23 77 OFFCURVE",
"19 57 CURVE SMOOTH",
"16 39 OFFCURVE",
"22 26 OFFCURVE",
"40 24 CURVE SMOOTH",
"135 13 OFFCURVE",
"200 12 OFFCURVE",
"276 12 CURVE SMOOTH"
);
},
{
closed = 1;
nodes = (
"460 329 OFFCURVE",
"472 345 OFFCURVE",
"476 366 CURVE SMOOTH",
"479 385 OFFCURVE",
"474 399 OFFCURVE",
"453 399 CURVE SMOOTH",
"413 399 OFFCURVE",
"362 402 OFFCURVE",
"284 403 CURVE SMOOTH",
"209 404 OFFCURVE",
"175 405 OFFCURVE",
"123 405 CURVE SMOOTH",
"100 405 OFFCURVE",
"90 389 OFFCURVE",
"86 370 CURVE SMOOTH",
"82 347 OFFCURVE",
"93 335 OFFCURVE",
"115 335 CURVE SMOOTH",
"167 335 OFFCURVE",
"213 333 OFFCURVE",
"270 333 CURVE SMOOTH",
"357 333 OFFCURVE",
"401 329 OFFCURVE",
"441 329 CURVE SMOOTH"
);
}
);
width = 573;
},
{
anchors = (
{
name = bottom;
position = "{306, 0}";
},
{
name = ogonek;
position = "{507, 51}";
},
{
name = top;
position = "{429, 700}";
},
{
name = topleft;
position = "{191, 652}";
}
);
layerId = "F86CB789-B416-49E2-AD1B-BE88A4A88FF7";
paths = (
{
closed = 1;
nodes = (
"358 9 OFFCURVE",
"451 8 OFFCURVE",
"501 18 CURVE SMOOTH",
"541 26 OFFCURVE",
"560 47 OFFCURVE",
"566 81 CURVE SMOOTH",
"574 125 OFFCURVE",
"551 151 OFFCURVE",
"501 145 CURVE SMOOTH",
"451 139 OFFCURVE",
"420 136 OFFCURVE",
"343 136 CURVE SMOOTH",
"299 136 OFFCURVE",
"265 137 OFFCURVE",
"192 145 CURVE",
"233 93 LINE",
"274 213 OFFCURVE",
"281 254 OFFCURVE",
"303 382 CURVE SMOOTH",
"312 431 OFFCURVE",
"324 520 OFFCURVE",
"341 620 CURVE",
"285 567 LINE",
"319 570 OFFCURVE",
"376 574 OFFCURVE",
"441 574 CURVE SMOOTH",
"506 574 OFFCURVE",
"557 570 OFFCURVE",
"602 566 CURVE SMOOTH",
"636 563 OFFCURVE",
"662 592 OFFCURVE",
"669 631 CURVE SMOOTH",
"677 674 OFFCURVE",
"652 689 OFFCURVE",
"617 693 CURVE SMOOTH",
"585 697 OFFCURVE",
"513 701 OFFCURVE",
"418 701 CURVE SMOOTH",
"371 701 OFFCURVE",
"288 700 OFFCURVE",
"249 696 CURVE SMOOTH",
"203 691 OFFCURVE",
"175 675 OFFCURVE",
"167 631 CURVE SMOOTH",
"161 593 OFFCURVE",
"175 566 OFFCURVE",
"237 567 CURVE",
"199 620 LINE",
"179 506 OFFCURVE",
"162 416 OFFCURVE",
"155 376 CURVE SMOOTH",
"139 285 OFFCURVE",
"134 225 OFFCURVE",
"89 103 CURVE",
"153 148 LINE",
"131 148 OFFCURVE",
"110 148 OFFCURVE",
"95 147 CURVE SMOOTH",
"65 144 OFFCURVE",
"48 116 OFFCURVE",
"43 84 CURVE SMOOTH",
"37 50 OFFCURVE",
"46 28 OFFCURVE",
"76 24 CURVE SMOOTH",
"181 10 OFFCURVE",
"241 9 OFFCURVE",
"300 9 CURVE SMOOTH"
);
},
{
closed = 1;
nodes = (
"520 300 OFFCURVE",
"541 327 OFFCURVE",
"548 367 CURVE SMOOTH",
"557 420 OFFCURVE",
"530 425 OFFCURVE",
"514 427 CURVE SMOOTH",
"477 431 OFFCURVE",
"397 431 OFFCURVE",
"323 431 CURVE SMOOTH",
"249 431 OFFCURVE",
"188 433 OFFCURVE",
"175 433 CURVE SMOOTH",
"122 433 OFFCURVE",
"108 394 OFFCURVE",
"104 368 CURVE SMOOTH",
"96 324 OFFCURVE",
"112 303 OFFCURVE",
"145 303 CURVE SMOOTH",
"183 303 OFFCURVE",
"162 303 OFFCURVE",
"311 302 CURVE SMOOTH",
"450 301 OFFCURVE",
"423 300 OFFCURVE",
"492 300 CURVE SMOOTH"
);
}
);
width = 640;
}
);
note = E;
unicode = 0045;
},
{
color = 9;
glyphname = F;
lastChange = "2018-03-20 12:00:42 +0000";
layers = (
{
anchors = (
{
name = bottom;
position = "{306, 0}";
},
{
name = top;
position = "{306, 700}";
}
);
layerId = "0B1DFD06-3317-40CA-B510-4969A0718C16";
paths = (
{
closed = 1;
nodes = (
"168 6 OFFCURVE",
"175 10 OFFCURVE",
"176 18 CURVE SMOOTH",
"182 70 OFFCURVE",
"188 192 OFFCURVE",
"188 341 CURVE SMOOTH",
"188 533 OFFCURVE",
"174 644 OFFCURVE",
"168 728 CURVE SMOOTH",
"167 741 OFFCURVE",
"161 745 OFFCURVE",
"151 745 CURVE SMOOTH",
"141 745 OFFCURVE",
"135 739 OFFCURVE",
"136 727 CURVE SMOOTH",
"144 633 OFFCURVE",
"157 548 OFFCURVE",
"157 338 CURVE SMOOTH",
"157 162 OFFCURVE",
"150 75 OFFCURVE",
"145 20 CURVE SMOOTH",
"144 11 OFFCURVE",
"151 6 OFFCURVE",
"160 6 CURVE SMOOTH"
);
},
{
closed = 1;
nodes = (
"187 338 OFFCURVE",
"217 343 OFFCURVE",
"319 343 CURVE SMOOTH",
"384 343 OFFCURVE",
"416 341 OFFCURVE",
"456 339 CURVE SMOOTH",
"463 339 OFFCURVE",
"472 340 OFFCURVE",
"472 352 CURVE SMOOTH",
"472 363 OFFCURVE",
"465 368 OFFCURVE",
"455 369 CURVE SMOOTH",
"440 371 OFFCURVE",
"372 373 OFFCURVE",
"315 373 CURVE SMOOTH",
"224 373 OFFCURVE",
"189 368 OFFCURVE",
"95 356 CURVE SMOOTH",
"87 355 OFFCURVE",
"82 348 OFFCURVE",
"82 339 CURVE SMOOTH",
"82 327 OFFCURVE",
"91 324 OFFCURVE",
"98 325 CURVE SMOOTH"
);
},
{
closed = 1;
nodes = (
"528 655 OFFCURVE",
"533 661 OFFCURVE",
"533 670 CURVE SMOOTH",
"533 679 OFFCURVE",
"529 685 OFFCURVE",
"518 687 CURVE SMOOTH",
"465 697 OFFCURVE",
"419 700 OFFCURVE",
"321 700 CURVE SMOOTH",
"264 700 OFFCURVE",
"242 699 OFFCURVE",
"97 689 CURVE SMOOTH",
"83 688 OFFCURVE",
"80 681 OFFCURVE",
"80 673 CURVE SMOOTH",
"80 664 OFFCURVE",
"84 657 OFFCURVE",
"98 658 CURVE SMOOTH",
"210 666 OFFCURVE",
"253 670 OFFCURVE",
"324 670 CURVE SMOOTH",
"404 670 OFFCURVE",
"452 665 OFFCURVE",
"516 657 CURVE SMOOTH"
);
}
);
width = 573;
},
{
anchors = (
{
name = bottom;
position = "{367, 0}";
},
{
name = top;
position = "{367, 700}";
}
);
layerId = "2F8C22CF-EC86-44F4-AF1A-A6C7F26A0C3C";
paths = (
{
closed = 1;
nodes = (
"256 5 OFFCURVE",
"281 30 OFFCURVE",
"283 65 CURVE SMOOTH",
"287 132 OFFCURVE",
"292 214 OFFCURVE",
"292 344 CURVE SMOOTH",
"292 508 OFFCURVE",
"284 594 OFFCURVE",
"276 678 CURVE SMOOTH",
"272 720 OFFCURVE",
"251 746 OFFCURVE",
"205 746 CURVE SMOOTH",
"157 746 OFFCURVE",
"126 717 OFFCURVE",
"129 679 CURVE SMOOTH",
"138 572 OFFCURVE",
"147 519 OFFCURVE",
"147 331 CURVE SMOOTH",
"147 206 OFFCURVE",
"143 139 OFFCURVE",
"137 66 CURVE SMOOTH",
"134 30 OFFCURVE",
"164 5 OFFCURVE",
"210 5 CURVE SMOOTH"
);
},
{
closed = 1;
nodes = (
"185 287 OFFCURVE",
"249 294 OFFCURVE",
"340 294 CURVE SMOOTH",
"400 294 OFFCURVE",
"438 291 OFFCURVE",
"488 286 CURVE SMOOTH",
"534 282 OFFCURVE",
"551 314 OFFCURVE",
"551 348 CURVE SMOOTH",
"551 382 OFFCURVE",
"534 402 OFFCURVE",
"497 411 CURVE SMOOTH",
"454 421 OFFCURVE",
"372 422 OFFCURVE",
"336 422 CURVE SMOOTH",
"263 422 OFFCURVE",
"184 418 OFFCURVE",
"136 409 CURVE SMOOTH",
"102 403 OFFCURVE",
"73 391 OFFCURVE",
"73 345 CURVE SMOOTH",
"73 306 OFFCURVE",
"94 276 OFFCURVE",
"125 280 CURVE SMOOTH"
);
},
{
closed = 1;
nodes = (
"580 564 OFFCURVE",
"601 593 OFFCURVE",
"601 631 CURVE SMOOTH",
"601 663 OFFCURVE",
"587 686 OFFCURVE",
"544 695 CURVE SMOOTH",
"510 702 OFFCURVE",
"427 707 OFFCURVE",
"357 707 CURVE SMOOTH",
"312 707 OFFCURVE",
"169 705 OFFCURVE",
"129 701 CURVE SMOOTH",
"91 697 OFFCURVE",
"70 685 OFFCURVE",
"70 638 CURVE SMOOTH",
"70 589 OFFCURVE",
"92 575 OFFCURVE",
"142 575 CURVE SMOOTH",
"168 575 OFFCURVE",
"287 579 OFFCURVE",
"351 579 CURVE SMOOTH",
"436 579 OFFCURVE",
"503 572 OFFCURVE",
"541 568 CURVE SMOOTH"
);
}
);
width = 641;
},
{
anchors = (
{
name = bottom;
position = "{302, 0}";
},
{
name = top;
position = "{302, 700}";
}
);
layerId = "17B9D149-A542-49FB-8130-D430586D7342";
paths = (
{
closed = 1;
nodes = (
"171 6 OFFCURVE",
"185 18 OFFCURVE",
"187 37 CURVE SMOOTH",
"192 97 OFFCURVE",
"197 197 OFFCURVE",
"197 337 CURVE SMOOTH",
"197 524 OFFCURVE",
"188 628 OFFCURVE",
"179 707 CURVE SMOOTH",
"176 733 OFFCURVE",
"163 745 OFFCURVE",
"140 745 CURVE SMOOTH",
"115 745 OFFCURVE",
"99 731 OFFCURVE",
"101 708 CURVE SMOOTH",
"113 598 OFFCURVE",
"121 521 OFFCURVE",
"121 333 CURVE SMOOTH",
"121 171 OFFCURVE",
"115 98 OFFCURVE",
"110 38 CURVE SMOOTH",
"108 19 OFFCURVE",
"124 6 OFFCURVE",
"148 6 CURVE SMOOTH"
);
},
{
closed = 1;
nodes = (
"159 318 OFFCURVE",
"200 323 OFFCURVE",
"300 323 CURVE SMOOTH",
"364 323 OFFCURVE",
"394 321 OFFCURVE",
"437 318 CURVE SMOOTH",
"464 316 OFFCURVE",
"471 334 OFFCURVE",
"471 350 CURVE SMOOTH",
"471 368 OFFCURVE",
"462 382 OFFCURVE",
"440 386 CURVE SMOOTH",
"416 390 OFFCURVE",
"339 393 OFFCURVE",
"283 393 CURVE SMOOTH",
"197 393 OFFCURVE",
"149 386 OFFCURVE",
"79 377 CURVE SMOOTH",
"56 374 OFFCURVE",
"46 360 OFFCURVE",
"46 341 CURVE SMOOTH",
"46 319 OFFCURVE",
"59 305 OFFCURVE",
"77 307 CURVE SMOOTH"
);
},
{
closed = 1;
nodes = (
"517 618 OFFCURVE",
"528 635 OFFCURVE",
"528 655 CURVE SMOOTH",
"528 678 OFFCURVE",
"514 686 OFFCURVE",
"496 690 CURVE SMOOTH",
"466 697 OFFCURVE",
"393 703 OFFCURVE",
"302 703 CURVE SMOOTH",
"228 703 OFFCURVE",
"158 699 OFFCURVE",
"78 694 CURVE SMOOTH",
"50 692 OFFCURVE",
"44 678 OFFCURVE",
"44 660 CURVE SMOOTH",
"44 637 OFFCURVE",
"53 624 OFFCURVE",
"81 625 CURVE SMOOTH",
"149 628 OFFCURVE",
"231 634 OFFCURVE",
"307 634 CURVE SMOOTH",
"382 634 OFFCURVE",
"436 628 OFFCURVE",
"494 621 CURVE SMOOTH"
);
}
);
width = 559;
},
{
anchors = (
{
name = bottom;
position = "{264, 0}";
},
{
name = top;
position = "{387, 700}";
}
);
layerId = "2214C8E2-2079-4DC2-8649-1937C1DD8804";
paths = (
{
closed = 1;
nodes = (
"127 6 OFFCURVE",
"135 10 OFFCURVE",
"137 18 CURVE SMOOTH",
"152 70 OFFCURVE",
"180 192 OFFCURVE",
"206 341 CURVE SMOOTH",
"240 533 OFFCURVE",
"246 644 OFFCURVE",
"254 728 CURVE SMOOTH",
"256 741 OFFCURVE",
"250 745 OFFCURVE",
"240 745 CURVE SMOOTH",
"230 745 OFFCURVE",
"223 739 OFFCURVE",
"222 727 CURVE SMOOTH",
"214 633 OFFCURVE",
"212 548 OFFCURVE",
"175 338 CURVE SMOOTH",
"144 162 OFFCURVE",
"121 75 OFFCURVE",
"107 20 CURVE SMOOTH",
"104 11 OFFCURVE",
"110 6 OFFCURVE",
"119 6 CURVE SMOOTH"
);
},
{
closed = 1;
nodes = (
"203 338 OFFCURVE",
"257 343 OFFCURVE",
"337 343 CURVE SMOOTH",
"402 343 OFFCURVE",
"434 341 OFFCURVE",
"474 339 CURVE SMOOTH",
"482 339 OFFCURVE",
"492 340 OFFCURVE",
"492 356 CURVE SMOOTH",
"492 364 OFFCURVE",
"487 368 OFFCURVE",
"478 369 CURVE SMOOTH",
"463 371 OFFCURVE",
"396 373 OFFCURVE",
"339 373 CURVE SMOOTH",
"248 373 OFFCURVE",
"212 368 OFFCURVE",
"116 356 CURVE SMOOTH",
"107 355 OFFCURVE",
"100 346 OFFCURVE",
"100 335 CURVE SMOOTH",
"100 327 OFFCURVE",
"105 325 OFFCURVE",
"111 325 CURVE SMOOTH"
);
},
{
closed = 1;
nodes = (
"603 655 OFFCURVE",
"610 663 OFFCURVE",
"610 675 CURVE SMOOTH",
"610 681 OFFCURVE",
"606 685 OFFCURVE",
"597 687 CURVE SMOOTH",
"546 697 OFFCURVE",
"500 700 OFFCURVE",
"402 700 CURVE SMOOTH",
"345 700 OFFCURVE",
"323 699 OFFCURVE",
"176 689 CURVE SMOOTH",
"159 688 OFFCURVE",
"156 678 OFFCURVE",
"156 669 CURVE SMOOTH",
"156 663 OFFCURVE",
"160 658 OFFCURVE",
"169 658 CURVE SMOOTH",
"185 658 OFFCURVE",
"326 670 OFFCURVE",
"400 670 CURVE SMOOTH",
"480 670 OFFCURVE",
"527 665 OFFCURVE",
"590 657 CURVE SMOOTH"
);
}
);
width = 573;
},
{
anchors = (
{
name = bottom;
position = "{260, 0}";
},
{
name = top;
position = "{383, 700}";
}
);
layerId = "AEE50E4E-1B30-4E16-A434-AC23B12A4294";
paths = (
{
closed = 1;
nodes = (
"130 6 OFFCURVE",
"146 18 OFFCURVE",
"152 37 CURVE SMOOTH",
"167 97 OFFCURVE",
"190 197 OFFCURVE",
"214 337 CURVE SMOOTH",
"247 524 OFFCURVE",
"257 628 OFFCURVE",
"262 707 CURVE SMOOTH",
"263 733 OFFCURVE",
"252 745 OFFCURVE",
"229 745 CURVE SMOOTH",
"204 745 OFFCURVE",
"186 731 OFFCURVE",
"184 708 CURVE SMOOTH",
"176 598 OFFCURVE",
"171 521 OFFCURVE",
"138 333 CURVE SMOOTH",
"109 171 OFFCURVE",
"90 98 OFFCURVE",
"75 38 CURVE SMOOTH",
"71 21 OFFCURVE",
"81 6 OFFCURVE",
"107 6 CURVE SMOOTH"
);
},
{
closed = 1;
nodes = (
"173 318 OFFCURVE",
"215 323 OFFCURVE",
"315 323 CURVE SMOOTH",
"379 323 OFFCURVE",
"409 321 OFFCURVE",
"451 318 CURVE SMOOTH",
"482 316 OFFCURVE",
"492 340 OFFCURVE",
"492 358 CURVE SMOOTH",
"492 372 OFFCURVE",
"484 383 OFFCURVE",
"466 386 CURVE SMOOTH",
"443 390 OFFCURVE",
"366 393 OFFCURVE",
"310 393 CURVE SMOOTH",
"224 393 OFFCURVE",
"175 386 OFFCURVE",
"103 377 CURVE SMOOTH",
"77 374 OFFCURVE",
"63 356 OFFCURVE",
"63 332 CURVE SMOOTH",
"63 315 OFFCURVE",
"73 305 OFFCURVE",
"89 307 CURVE SMOOTH"
);
},
{
closed = 1;
nodes = (
"588 618 OFFCURVE",
"602 641 OFFCURVE",
"602 664 CURVE SMOOTH",
"602 680 OFFCURVE",
"590 687 OFFCURVE",
"576 690 CURVE SMOOTH",
"547 697 OFFCURVE",
"475 703 OFFCURVE",
"384 703 CURVE SMOOTH",
"310 703 OFFCURVE",
"239 699 OFFCURVE",
"158 694 CURVE SMOOTH",
"131 692 OFFCURVE",
"117 676 OFFCURVE",
"117 649 CURVE SMOOTH",
"117 633 OFFCURVE",
"126 624 OFFCURVE",
"149 625 CURVE SMOOTH",
"218 628 OFFCURVE",
"301 634 OFFCURVE",
"377 634 CURVE SMOOTH",
"452 634 OFFCURVE",
"505 628 OFFCURVE",
"561 621 CURVE SMOOTH"
);
}
);
width = 559;
},
{
anchors = (
{
name = bottom;
position = "{325, 0}";
},
{
name = top;
position = "{448, 700}";
}
);
layerId = "F86CB789-B416-49E2-AD1B-BE88A4A88FF7";
paths = (
{
closed = 1;
nodes = (
"215 5 OFFCURVE",
"244 30 OFFCURVE",
"252 65 CURVE SMOOTH",
"268 132 OFFCURVE",
"288 214 OFFCURVE",
"311 344 CURVE SMOOTH",
"340 508 OFFCURVE",
"347 594 OFFCURVE",
"354 678 CURVE SMOOTH",
"357 720 OFFCURVE",
"341 746 OFFCURVE",
"295 746 CURVE SMOOTH",
"247 746 OFFCURVE",
"210 717 OFFCURVE",
"207 679 CURVE SMOOTH",
"197 572 OFFCURVE",
"197 519 OFFCURVE",
"163 331 CURVE SMOOTH",
"141 206 OFFCURVE",
"122 140 OFFCURVE",
"107 66 CURVE SMOOTH",
"99 26 OFFCURVE",
"128 5 OFFCURVE",
"169 5 CURVE SMOOTH"
);
},
{
closed = 1;
nodes = (
"194 287 OFFCURVE",
"259 294 OFFCURVE",
"350 294 CURVE SMOOTH",
"410 294 OFFCURVE",
"447 291 OFFCURVE",
"496 286 CURVE SMOOTH",
"549 281 OFFCURVE",
"571 324 OFFCURVE",
"571 363 CURVE SMOOTH",
"571 388 OFFCURVE",
"557 403 OFFCURVE",
"527 411 CURVE SMOOTH",
"486 421 OFFCURVE",
"404 422 OFFCURVE",
"368 422 CURVE SMOOTH",
"295 422 OFFCURVE",
"216 418 OFFCURVE",
"166 409 CURVE SMOOTH",
"121 401 OFFCURVE",
"90 380 OFFCURVE",
"90 327 CURVE SMOOTH",
"90 297 OFFCURVE",
"106 277 OFFCURVE",
"132 280 CURVE SMOOTH"
);
},
{
closed = 1;
nodes = (
"642 563 OFFCURVE",
"672 602 OFFCURVE",
"672 647 CURVE SMOOTH",
"672 671 OFFCURVE",
"659 688 OFFCURVE",
"625 695 CURVE SMOOTH",
"592 702 OFFCURVE",
"510 707 OFFCURVE",
"440 707 CURVE SMOOTH",
"395 707 OFFCURVE",
"251 705 OFFCURVE",
"211 701 CURVE SMOOTH",
"165 696 OFFCURVE",
"138 674 OFFCURVE",
"138 619 CURVE SMOOTH",
"138 585 OFFCURVE",
"158 575 OFFCURVE",
"201 575 CURVE SMOOTH",
"227 575 OFFCURVE",
"347 579 OFFCURVE",
"411 579 CURVE SMOOTH",
"496 579 OFFCURVE",
"562 572 OFFCURVE",
"599 568 CURVE SMOOTH"
);
}
);
width = 641;
}
);
note = F;
unicode = 0046;
},
{
color = 9;
glyphname = G;
lastChange = "2018-03-20 12:00:42 +0000";
layers = (
{
anchors = (
{
name = bottom;
position = "{365, 0}";
},
{
name = top;
position = "{365, 700}";
}
);
layerId = "0B1DFD06-3317-40CA-B510-4969A0718C16";
paths = (
{
closed = 1;
nodes = (
"560 3 OFFCURVE",
"629 119 OFFCURVE",
"629 317 CURVE",
"619 305 LINE",
"676 304 LINE SMOOTH",
"684 304 OFFCURVE",
"690 309 OFFCURVE",
"690 319 CURVE SMOOTH",
"690 329 OFFCURVE",
"685 334 OFFCURVE",
"676 334 CURVE SMOOTH",
"431 339 LINE SMOOTH",
"424 339 OFFCURVE",
"414 336 OFFCURVE",
"414 323 CURVE SMOOTH",
"414 312 OFFCURVE",
"421 308 OFFCURVE",
"431 308 CURVE SMOOTH",
"611 305 LINE",
"598 317 LINE",
"598 139 OFFCURVE",
"542 34 OFFCURVE",
"381 34 CURVE SMOOTH",
"193 34 OFFCURVE",
"81 176 OFFCURVE",
"81 341 CURVE SMOOTH",
"81 505 OFFCURVE",
"191 657 OFFCURVE",
"376 657 CURVE SMOOTH",
"474 657 OFFCURVE",
"528 614 OFFCURVE",
"583 561 CURVE SMOOTH",
"593 551 OFFCURVE",
"598 548 OFFCURVE",
"607 548 CURVE SMOOTH",
"619 548 OFFCURVE",
"624 554 OFFCURVE",
"628 563 CURVE SMOOTH",
"635 580 OFFCURVE",
"637 616 OFFCURVE",
"637 644 CURVE SMOOTH",
"637 651 OFFCURVE",
"631 655 OFFCURVE",
"622 655 CURVE SMOOTH",
"612 655 OFFCURVE",
"608 651 OFFCURVE",
"608 635 CURVE SMOOTH",
"608 612 OFFCURVE",
"607 599 OFFCURVE",
"602 574 CURVE",
"615 574 LINE",
"559 639 OFFCURVE",
"483 688 OFFCURVE",
"373 688 CURVE SMOOTH",
"175 688 OFFCURVE",
"50 528 OFFCURVE",
"50 346 CURVE SMOOTH",
"50 169 OFFCURVE",
"168 3 OFFCURVE",
"382 3 CURVE SMOOTH"
);
}
);
width = 730;
},
{
anchors = (
{
name = bottom;
position = "{400, 0}";
},
{
name = top;
position = "{400, 700}";
}
);
layerId = "2F8C22CF-EC86-44F4-AF1A-A6C7F26A0C3C";
paths = (
{
closed = 1;
nodes = (
"580 -1 OFFCURVE",
"675 114 OFFCURVE",
"675 304 CURVE",
"632 259 LINE",
"669 258 LINE SMOOTH",
"714 257 OFFCURVE",
"740 285 OFFCURVE",
"740 324 CURVE SMOOTH",
"740 363 OFFCURVE",
"715 386 OFFCURVE",
"663 387 CURVE SMOOTH",
"435 392 LINE SMOOTH",
"390 393 OFFCURVE",
"364 365 OFFCURVE",
"364 324 CURVE SMOOTH",
"364 289 OFFCURVE",
"383 262 OFFCURVE",
"432 261 CURVE SMOOTH",
"575 258 LINE",
"536 304 LINE",
"536 184 OFFCURVE",
"482 129 OFFCURVE",
"398 129 CURVE SMOOTH",
"292 129 OFFCURVE",
"195 217 OFFCURVE",
"195 348 CURVE SMOOTH",
"195 476 OFFCURVE",
"288 561 OFFCURVE",
"412 561 CURVE SMOOTH",
"488 561 OFFCURVE",
"523 529 OFFCURVE",
"547 507 CURVE SMOOTH",
"578 480 OFFCURVE",
"593 471 OFFCURVE",
"621 471 CURVE SMOOTH",
"648 471 OFFCURVE",
"665 480 OFFCURVE",
"677 503 CURVE SMOOTH",
"690 528 OFFCURVE",
"693 563 OFFCURVE",
"691 616 CURVE SMOOTH",
"690 643 OFFCURVE",
"662 668 OFFCURVE",
"617 668 CURVE SMOOTH",
"573 668 OFFCURVE",
"549 644 OFFCURVE",
"549 607 CURVE SMOOTH",
"549 593 OFFCURVE",
"549 581 OFFCURVE",
"549 570 CURVE",
"596 570 LINE",
"596 604 OFFCURVE",
"531 692 OFFCURVE",
"385 692 CURVE SMOOTH",
"198 692 OFFCURVE",
"50 546 OFFCURVE",
"50 348 CURVE SMOOTH",
"50 149 OFFCURVE",
"198 -1 OFFCURVE",
"402 -1 CURVE SMOOTH"
);
}
);
width = 770;
},
{
anchors = (
{
name = bottom;
position = "{375, 0}";
},
{
name = top;
position = "{375, 700}";
}
);
layerId = "17B9D149-A542-49FB-8130-D430586D7342";
paths = (
{
closed = 1;
nodes = (
"562 1 OFFCURVE",
"643 115 OFFCURVE",
"643 312 CURVE",
"620 287 LINE",
"669 286 LINE SMOOTH",
"692 285 OFFCURVE",
"706 299 OFFCURVE",
"706 321 CURVE SMOOTH",
"706 343 OFFCURVE",
"693 355 OFFCURVE",
"667 355 CURVE SMOOTH",
"429 360 LINE SMOOTH",
"409 361 OFFCURVE",
"390 350 OFFCURVE",
"390 324 CURVE SMOOTH",
"390 307 OFFCURVE",
"398 290 OFFCURVE",
"427 289 CURVE SMOOTH",
"593 286 LINE",
"569 312 LINE",
"569 157 OFFCURVE",
"514 72 OFFCURVE",
"384 72 CURVE SMOOTH",
"228 72 OFFCURVE",
"123 193 OFFCURVE",
"123 344 CURVE SMOOTH",
"123 494 OFFCURVE",
"226 619 OFFCURVE",
"388 619 CURVE SMOOTH",
"477 619 OFFCURVE",
"519 581 OFFCURVE",
"565 539 CURVE SMOOTH",
"583 523 OFFCURVE",
"592 517 OFFCURVE",
"608 517 CURVE SMOOTH",
"622 517 OFFCURVE",
"636 522 OFFCURVE",
"644 539 CURVE SMOOTH",
"653 558 OFFCURVE",
"655 597 OFFCURVE",
"655 633 CURVE SMOOTH",
"654 648 OFFCURVE",
"639 660 OFFCURVE",
"616 660 CURVE SMOOTH",
"592 660 OFFCURVE",
"580 647 OFFCURVE",
"580 624 CURVE SMOOTH",
"580 605 OFFCURVE",
"580 592 OFFCURVE",
"577 572 CURVE",
"603 572 LINE",
"574 620 OFFCURVE",
"504 690 OFFCURVE",
"374 690 CURVE SMOOTH",
"181 690 OFFCURVE",
"46 536 OFFCURVE",
"46 347 CURVE SMOOTH",
"46 161 OFFCURVE",
"176 1 OFFCURVE",
"385 1 CURVE SMOOTH"
);
}
);
width = 741;
},
{
anchors = (
{
name = bottom;
position = "{323, 0}";
},
{
name = top;
position = "{446, 700}";
}
);
layerId = "2214C8E2-2079-4DC2-8649-1937C1DD8804";
paths = (
{
closed = 1;
nodes = (
"523 3 OFFCURVE",
"608 119 OFFCURVE",
"643 317 CURVE",
"631 305 LINE",
"690 304 LINE SMOOTH",
"699 304 OFFCURVE",
"705 311 OFFCURVE",
"705 324 CURVE SMOOTH",
"705 331 OFFCURVE",
"700 334 OFFCURVE",
"693 334 CURVE SMOOTH",
"446 339 LINE SMOOTH",
"438 339 OFFCURVE",
"429 335 OFFCURVE",
"429 319 CURVE SMOOTH",
"429 311 OFFCURVE",
"434 308 OFFCURVE",
"443 308 CURVE SMOOTH",
"623 305 LINE",
"612 317 LINE",
"581 139 OFFCURVE",
"506 34 OFFCURVE",
"345 34 CURVE SMOOTH",
"181 34 OFFCURVE",
"94 142 OFFCURVE",
"94 280 CURVE SMOOTH",
"94 475 OFFCURVE",
"252 657 OFFCURVE",
"450 657 CURVE SMOOTH",
"548 657 OFFCURVE",
"594 614 OFFCURVE",
"640 561 CURVE SMOOTH",
"648 551 OFFCURVE",
"653 548 OFFCURVE",
"662 548 CURVE SMOOTH",
"674 548 OFFCURVE",
"680 554 OFFCURVE",
"685 563 CURVE SMOOTH",
"695 580 OFFCURVE",
"704 616 OFFCURVE",
"709 644 CURVE SMOOTH",
"710 651 OFFCURVE",
"704 655 OFFCURVE",
"695 655 CURVE SMOOTH",
"685 655 OFFCURVE",
"681 651 OFFCURVE",
"678 635 CURVE SMOOTH",
"674 612 OFFCURVE",
"671 599 OFFCURVE",
"661 574 CURVE",
"674 574 LINE",
"625 635 OFFCURVE",
"559 688 OFFCURVE",
"449 688 CURVE SMOOTH",
"235 688 OFFCURVE",
"63 494 OFFCURVE",
"63 278 CURVE SMOOTH",
"63 129 OFFCURVE",
"159 3 OFFCURVE",
"345 3 CURVE SMOOTH"
);
}
);
width = 730;
},
{
anchors = (
{
name = bottom;
position = "{334, 0}";
},
{
name = top;
position = "{456, 700}";
}
);
layerId = "AEE50E4E-1B30-4E16-A434-AC23B12A4294";
paths = (
{
closed = 1;
nodes = (
"528 1 OFFCURVE",
"621 115 OFFCURVE",
"656 312 CURVE",
"629 287 LINE",
"680 286 LINE SMOOTH",
"705 286 OFFCURVE",
"722 302 OFFCURVE",
"722 328 CURVE SMOOTH",
"722 346 OFFCURVE",
"711 355 OFFCURVE",
"688 355 CURVE SMOOTH",
"447 360 LINE SMOOTH",
"426 360 OFFCURVE",
"404 347 OFFCURVE",
"404 318 CURVE SMOOTH",
"404 301 OFFCURVE",
"412 290 OFFCURVE",
"436 289 CURVE SMOOTH",
"601 286 LINE",
"582 312 LINE",
"555 157 OFFCURVE",
"485 72 OFFCURVE",
"354 72 CURVE SMOOTH",
"218 72 OFFCURVE",
"137 164 OFFCURVE",
"137 292 CURVE SMOOTH",
"137 460 OFFCURVE",
"271 619 OFFCURVE",
"450 619 CURVE SMOOTH",
"542 619 OFFCURVE",
"581 578 OFFCURVE",
"618 539 CURVE SMOOTH",
"633 523 OFFCURVE",
"641 517 OFFCURVE",
"657 517 CURVE SMOOTH",
"671 517 OFFCURVE",
"686 522 OFFCURVE",
"697 539 CURVE SMOOTH",
"709 558 OFFCURVE",
"717 589 OFFCURVE",
"724 633 CURVE SMOOTH",
"727 650 OFFCURVE",
"711 660 OFFCURVE",
"690 660 CURVE SMOOTH",
"666 660 OFFCURVE",
"652 647 OFFCURVE",
"648 624 CURVE SMOOTH",
"645 604 OFFCURVE",
"641 589 OFFCURVE",
"636 572 CURVE",
"662 572 LINE",
"641 620 OFFCURVE",
"581 690 OFFCURVE",
"450 690 CURVE SMOOTH",
"236 690 OFFCURVE",
"59 503 OFFCURVE",
"59 293 CURVE SMOOTH",
"59 131 OFFCURVE",
"169 1 OFFCURVE",
"354 1 CURVE SMOOTH"
);
}
);
width = 741;
},
{
anchors = (
{
name = bottom;
position = "{358, 0}";
},
{
name = top;
position = "{481, 700}";
}
);
layerId = "F86CB789-B416-49E2-AD1B-BE88A4A88FF7";
paths = (
{
closed = 1;
nodes = (
"546 -1 OFFCURVE",
"653 114 OFFCURVE",
"687 304 CURVE",
"636 259 LINE",
"679 258 LINE SMOOTH",
"735 257 OFFCURVE",
"756 299 OFFCURVE",
"756 336 CURVE SMOOTH",
"756 369 OFFCURVE",
"735 386 OFFCURVE",
"689 387 CURVE SMOOTH",
"455 392 LINE SMOOTH",
"405 393 OFFCURVE",
"378 357 OFFCURVE",
"378 312 CURVE SMOOTH",
"378 281 OFFCURVE",
"394 262 OFFCURVE",
"436 261 CURVE SMOOTH",
"578 258 LINE",
"548 304 LINE",
"526 184 OFFCURVE",
"463 129 OFFCURVE",
"379 129 CURVE SMOOTH",
"285 129 OFFCURVE",
"210 197 OFFCURVE",
"210 307 CURVE SMOOTH",
"210 443 OFFCURVE",
"323 561 OFFCURVE",
"469 561 CURVE SMOOTH",
"545 561 OFFCURVE",
"574 529 OFFCURVE",
"594 507 CURVE SMOOTH",
"622 477 OFFCURVE",
"640 471 OFFCURVE",
"661 471 CURVE SMOOTH",
"685 471 OFFCURVE",
"709 479 OFFCURVE",
"724 503 CURVE SMOOTH",
"741 529 OFFCURVE",
"758 591 OFFCURVE",
"758 618 CURVE SMOOTH",
"758 652 OFFCURVE",
"730 668 OFFCURVE",
"692 668 CURVE SMOOTH",
"646 668 OFFCURVE",
"624 645 OFFCURVE",
"614 607 CURVE SMOOTH",
"611 596 OFFCURVE",
"608 583 OFFCURVE",
"608 570 CURVE",
"655 570 LINE",
"655 596 OFFCURVE",
"606 692 OFFCURVE",
"455 692 CURVE SMOOTH",
"243 692 OFFCURVE",
"63 522 OFFCURVE",
"63 304 CURVE SMOOTH",
"63 131 OFFCURVE",
"177 -1 OFFCURVE",
"368 -1 CURVE SMOOTH"
);
}
);
width = 770;
}
);
note = G;
unicode = 0047;
},
{
color = 9;
glyphname = H;
lastChange = "2018-03-20 12:00:42 +0000";
layers = (
{
anchors = (
{
name = bottom;
position = "{336, 0}";
},
{
name = center;
position = "{336, 350}";
},
{
name = top;
position = "{336, 700}";
},
{
name = topleft;
position = "{23, 700}";
}
);
layerId = "0B1DFD06-3317-40CA-B510-4969A0718C16";
paths = (
{
closed = 1;
nodes = (
"123 -5 OFFCURVE",
"127 -1 OFFCURVE",
"128 6 CURVE SMOOTH",
"184 702 LINE SMOOTH",
"185 713 OFFCURVE",
"181 721 OFFCURVE",
"170 721 CURVE SMOOTH",
"161 721 OFFCURVE",
"154 716 OFFCURVE",
"153 704 CURVE SMOOTH",
"97 10 LINE SMOOTH",
"96 1 OFFCURVE",
"101 -5 OFFCURVE",
"113 -5 CURVE SMOOTH"
);
},
{
closed = 1;
nodes = (
"618 297 OFFCURVE",
"624 302 OFFCURVE",
"624 313 CURVE SMOOTH",
"624 324 OFFCURVE",
"618 329 OFFCURVE",
"606 329 CURVE SMOOTH",
"75 337 LINE SMOOTH",
"68 337 OFFCURVE",
"60 333 OFFCURVE",
"60 322 CURVE SMOOTH",
"60 314 OFFCURVE",
"64 307 OFFCURVE",
"74 307 CURVE SMOOTH",
"607 297 LINE"
);
},
{
closed = 1;
nodes = (
"567 0 OFFCURVE",
"571 6 OFFCURVE",
"571 17 CURVE SMOOTH",
"551 705 LINE SMOOTH",
"551 714 OFFCURVE",
"546 721 OFFCURVE",
"535 721 CURVE SMOOTH",
"525 721 OFFCURVE",
"520 715 OFFCURVE",
"520 703 CURVE SMOOTH",
"540 16 LINE SMOOTH",
"540 5 OFFCURVE",
"545 0 OFFCURVE",
"557 0 CURVE"
);
}
);
width = 684;
},
{
anchors = (
{
name = bottom;
position = "{400, 0}";
},
{
name = center;
position = "{400, 351}";
},
{
name = top;
position = "{400, 700}";
},
{
name = topleft;
position = "{108, 700}";
}
);
layerId = "2F8C22CF-EC86-44F4-AF1A-A6C7F26A0C3C";
paths = (
{
closed = 1;
nodes = (
"229 -7 OFFCURVE",
"254 9 OFFCURVE",
"257 45 CURVE SMOOTH",
"305 651 LINE SMOOTH",
"308 693 OFFCURVE",
"284 723 OFFCURVE",
"236 723 CURVE SMOOTH",
"191 723 OFFCURVE",
"162 698 OFFCURVE",
"159 662 CURVE SMOOTH",
"111 55 LINE SMOOTH",
"108 13 OFFCURVE",
"136 -7 OFFCURVE",
"185 -7 CURVE SMOOTH"
);
},
{
closed = 1;
nodes = (
"698 254 OFFCURVE",
"735 270 OFFCURVE",
"735 319 CURVE SMOOTH",
"735 368 OFFCURVE",
"698 384 OFFCURVE",
"651 385 CURVE SMOOTH",
"155 392 LINE SMOOTH",
"110 393 OFFCURVE",
"70 371 OFFCURVE",
"70 328 CURVE SMOOTH",
"70 286 OFFCURVE",
"108 263 OFFCURVE",
"151 262 CURVE SMOOTH",
"650 254 LINE"
);
},
{
closed = 1;
nodes = (
"655 -2 OFFCURVE",
"682 25 OFFCURVE",
"681 67 CURVE SMOOTH",
"664 659 LINE SMOOTH",
"663 694 OFFCURVE",
"636 723 OFFCURVE",
"590 723 CURVE SMOOTH",
"543 723 OFFCURVE",
"516 694 OFFCURVE",
"517 655 CURVE SMOOTH",
"535 63 LINE SMOOTH",
"536 23 OFFCURVE",
"565 -2 OFFCURVE",
"609 -2 CURVE SMOOTH"
);
}
);
width = 805;
},
{
anchors = (
{
name = bottom;
position = "{356, 0}";
},
{
name = center;
position = "{356, 350}";
},
{
name = top;
position = "{356, 700}";
},
{
name = topleft;
position = "{51, 700}";
}
);
layerId = "17B9D149-A542-49FB-8130-D430586D7342";
paths = (
{
closed = 1;
nodes = (
"155 -6 OFFCURVE",
"172 0 OFFCURVE",
"174 22 CURVE SMOOTH",
"227 682 LINE SMOOTH",
"228 702 OFFCURVE",
"219 722 OFFCURVE",
"190 722 CURVE SMOOTH",
"170 722 OFFCURVE",
"152 712 OFFCURVE",
"150 687 CURVE SMOOTH",
"97 28 LINE SMOOTH",
"95 4 OFFCURVE",
"111 -6 OFFCURVE",
"136 -6 CURVE SMOOTH"
);
},
{
closed = 1;
nodes = (
"644 280 OFFCURVE",
"663 289 OFFCURVE",
"663 315 CURVE SMOOTH",
"663 342 OFFCURVE",
"644 351 OFFCURVE",
"618 351 CURVE SMOOTH",
"101 359 LINE SMOOTH",
"77 359 OFFCURVE",
"58 347 OFFCURVE",
"58 324 CURVE SMOOTH",
"58 300 OFFCURVE",
"79 289 OFFCURVE",
"99 289 CURVE SMOOTH",
"618 280 LINE"
);
},
{
closed = 1;
nodes = (
"596 -1 OFFCURVE",
"610 14 OFFCURVE",
"609 37 CURVE SMOOTH",
"590 687 LINE SMOOTH",
"590 706 OFFCURVE",
"576 722 OFFCURVE",
"551 722 CURVE SMOOTH",
"526 722 OFFCURVE",
"513 707 OFFCURVE",
"513 684 CURVE SMOOTH",
"532 35 LINE SMOOTH",
"533 12 OFFCURVE",
"547 -1 OFFCURVE",
"572 -1 CURVE"
);
}
);
width = 713;
},
{
anchors = (
{
name = bottom;
position = "{294, 0}";
},
{
name = center;
position = "{356, 350}";
},
{
name = top;
position = "{417, 700}";
},
{
name = topleft;
position = "{104, 700}";
}
);
layerId = "2214C8E2-2079-4DC2-8649-1937C1DD8804";
paths = (
{
closed = 1;
nodes = (
"80 -5 OFFCURVE",
"85 -1 OFFCURVE",
"87 6 CURVE SMOOTH",
"266 702 LINE SMOOTH",
"269 713 OFFCURVE",
"266 721 OFFCURVE",
"255 721 CURVE SMOOTH",
"246 721 OFFCURVE",
"238 716 OFFCURVE",
"235 704 CURVE SMOOTH",
"57 10 LINE SMOOTH",
"54 1 OFFCURVE",
"58 -5 OFFCURVE",
"70 -5 CURVE SMOOTH"
);
},
{
closed = 1;
nodes = (
"629 297 OFFCURVE",
"637 304 OFFCURVE",
"637 316 CURVE SMOOTH",
"637 327 OFFCURVE",
"630 329 OFFCURVE",
"622 329 CURVE SMOOTH",
"92 337 LINE SMOOTH",
"84 337 OFFCURVE",
"74 331 OFFCURVE",
"74 319 CURVE SMOOTH",
"74 314 OFFCURVE",
"76 307 OFFCURVE",
"86 307 CURVE SMOOTH",
"617 297 LINE"
);
},
{
closed = 1;
nodes = (
"525 0 OFFCURVE",
"530 6 OFFCURVE",
"532 17 CURVE SMOOTH",
"633 705 LINE SMOOTH",
"635 714 OFFCURVE",
"631 721 OFFCURVE",
"620 721 CURVE SMOOTH",
"610 721 OFFCURVE",
"604 715 OFFCURVE",
"602 703 CURVE SMOOTH",
"501 16 LINE SMOOTH",
"499 5 OFFCURVE",
"503 0 OFFCURVE",
"515 0 CURVE"
);
}
);
width = 684;
},
{
anchors = (
{
name = bottom;
position = "{314, 0}";
},
{
name = center;
position = "{376, 350}";
},
{
name = top;
position = "{437, 700}";
},
{
name = topleft;
position = "{132, 700}";
}
);
layerId = "AEE50E4E-1B30-4E16-A434-AC23B12A4294";
paths = (
{
closed = 1;
nodes = (
"112 -6 OFFCURVE",
"130 0 OFFCURVE",
"136 22 CURVE SMOOTH",
"305 682 LINE SMOOTH",
"311 707 OFFCURVE",
"300 722 OFFCURVE",
"275 722 CURVE SMOOTH",
"255 722 OFFCURVE",
"236 712 OFFCURVE",
"229 687 CURVE SMOOTH",
"60 28 LINE SMOOTH",
"55 7 OFFCURVE",
"65 -6 OFFCURVE",
"93 -6 CURVE SMOOTH"
);
},
{
closed = 1;
nodes = (
"656 280 OFFCURVE",
"678 295 OFFCURVE",
"678 321 CURVE SMOOTH",
"678 343 OFFCURVE",
"663 351 OFFCURVE",
"638 351 CURVE SMOOTH",
"122 359 LINE SMOOTH",
"94 359 OFFCURVE",
"72 343 OFFCURVE",
"72 319 CURVE SMOOTH",
"72 296 OFFCURVE",
"92 289 OFFCURVE",
"108 289 CURVE SMOOTH",
"625 280 LINE"
);
},
{
closed = 1;
nodes = (
"554 -1 OFFCURVE",
"570 14 OFFCURVE",
"574 37 CURVE SMOOTH",
"669 687 LINE SMOOTH",
"672 706 OFFCURVE",
"661 722 OFFCURVE",
"636 722 CURVE SMOOTH",
"609 722 OFFCURVE",
"595 704 OFFCURVE",
"592 684 CURVE SMOOTH",
"496 35 LINE SMOOTH",
"493 12 OFFCURVE",
"505 -1 OFFCURVE",
"530 -1 CURVE"
);
}
);
width = 713;
},
{
anchors = (
{
name = bottom;
position = "{358, 0}";
},
{
name = center;
position = "{420, 351}";
},
{
name = top;
position = "{481, 700}";
},
{
name = topleft;
position = "{189, 700}";
}
);
layerId = "F86CB789-B416-49E2-AD1B-BE88A4A88FF7";
paths = (
{
closed = 1;
nodes = (
"186 -7 OFFCURVE",
"214 9 OFFCURVE",
"223 45 CURVE SMOOTH",
"378 651 LINE SMOOTH",
"389 691 OFFCURVE",
"370 723 OFFCURVE",
"321 723 CURVE SMOOTH",
"276 723 OFFCURVE",
"243 698 OFFCURVE",
"234 662 CURVE SMOOTH",
"79 55 LINE SMOOTH",
"67 12 OFFCURVE",
"95 -7 OFFCURVE",
"142 -7 CURVE SMOOTH"
);
},
{
closed = 1;
nodes = (
"707 254 OFFCURVE",
"750 276 OFFCURVE",
"750 334 CURVE SMOOTH",
"750 371 OFFCURVE",
"719 384 OFFCURVE",
"677 385 CURVE SMOOTH",
"182 392 LINE SMOOTH",
"133 393 OFFCURVE",
"85 367 OFFCURVE",
"85 316 CURVE SMOOTH",
"85 282 OFFCURVE",
"116 263 OFFCURVE",
"155 262 CURVE SMOOTH",
"653 254 LINE"
);
},
{
closed = 1;
nodes = (
"613 -2 OFFCURVE",
"644 25 OFFCURVE",
"651 67 CURVE SMOOTH",
"738 659 LINE SMOOTH",
"744 699 OFFCURVE",
"724 723 OFFCURVE",
"675 723 CURVE SMOOTH",
"628 723 OFFCURVE",
"596 694 OFFCURVE",
"590 655 CURVE SMOOTH",
"504 63 LINE SMOOTH",
"499 28 OFFCURVE",
"521 -2 OFFCURVE",
"567 -2 CURVE SMOOTH"
);
}
);
width = 805;
}
);
note = H;
unicode = 0048;
},
{
color = 9;
glyphname = I;
lastChange = "2018-03-20 12:00:42 +0000";
layers = (
{
anchors = (
{
name = bottom;
position = "{223, 0}";
},
{
name = ogonek;
position = "{370, 14}";
},
{
name = top;
position = "{223, 700}";
},
{
name = topleft;
position = "{44, 700}";
}
);
layerId = "0B1DFD06-3317-40CA-B510-4969A0718C16";
paths = (
{
closed = 1;
nodes = (
"253 267 OFFCURVE",
"257 431 OFFCURVE",
"257 681 CURVE",
"226 681 LINE",
"226 431 OFFCURVE",
"220 268 OFFCURVE",
"205 30 CURVE",
"236 29 LINE"
);
},
{
closed = 1;
nodes = (
"384 5 OFFCURVE",
"388 11 OFFCURVE",
"388 21 CURVE SMOOTH",
"388 31 OFFCURVE",
"384 37 OFFCURVE",
"373 37 CURVE SMOOTH",
"70 41 LINE SMOOTH",
"62 41 OFFCURVE",
"55 37 OFFCURVE",
"55 26 CURVE SMOOTH",
"55 16 OFFCURVE",
"61 10 OFFCURVE",
"68 10 CURVE SMOOTH",
"373 5 LINE SMOOTH"
);
},
{
closed = 1;
nodes = (
"77 667 OFFCURVE",
"183 677 OFFCURVE",
"236 677 CURVE SMOOTH",
"314 677 OFFCURVE",
"327 676 OFFCURVE",
"371 672 CURVE SMOOTH",
"380 671 OFFCURVE",
"388 675 OFFCURVE",
"388 687 CURVE SMOOTH",
"388 698 OFFCURVE",
"382 701 OFFCURVE",
"374 702 CURVE SMOOTH",
"332 709 OFFCURVE",
"238 708 OFFCURVE",
"223 708 CURVE SMOOTH",
"185 708 OFFCURVE",
"83 701 OFFCURVE",
"66 698 CURVE SMOOTH",
"55 696 OFFCURVE",
"50 691 OFFCURVE",
"50 682 CURVE SMOOTH",
"50 673 OFFCURVE",
"56 667 OFFCURVE",
"65 667 CURVE SMOOTH"
);
}
);
width = 438;
},
{
anchors = (
{
name = bottom;
position = "{265, 0}";
},
{
name = ogonek;
position = "{418, 37}";
},
{
name = top;
position = "{265, 700}";
},
{
name = topleft;
position = "{104, 700}";
}
);
layerId = "2F8C22CF-EC86-44F4-AF1A-A6C7F26A0C3C";
paths = (
{
closed = 1;
nodes = (
"343 249 OFFCURVE",
"347 445 OFFCURVE",
"347 636 CURVE",
"202 636 LINE",
"202 445 OFFCURVE",
"196 253 OFFCURVE",
"184 78 CURVE",
"328 69 LINE"
);
},
{
closed = 1;
nodes = (
"452 2 OFFCURVE",
"470 29 OFFCURVE",
"470 68 CURVE SMOOTH",
"470 105 OFFCURVE",
"455 132 OFFCURVE",
"406 133 CURVE SMOOTH",
"105 137 LINE SMOOTH",
"76 137 OFFCURVE",
"45 119 OFFCURVE",
"45 71 CURVE SMOOTH",
"45 43 OFFCURVE",
"56 7 OFFCURVE",
"105 6 CURVE SMOOTH",
"405 2 LINE"
);
},
{
closed = 1;
nodes = (
"120 571 OFFCURVE",
"155 580 OFFCURVE",
"285 580 CURVE SMOOTH",
"360 580 OFFCURVE",
"389 577 OFFCURVE",
"407 577 CURVE SMOOTH",
"456 577 OFFCURVE",
"470 607 OFFCURVE",
"470 640 CURVE SMOOTH",
"470 676 OFFCURVE",
"452 702 OFFCURVE",
"413 705 CURVE SMOOTH",
"373 708 OFFCURVE",
"336 712 OFFCURVE",
"265 711 CURVE SMOOTH",
"189 710 OFFCURVE",
"118 705 OFFCURVE",
"97 702 CURVE SMOOTH",
"63 697 OFFCURVE",
"40 681 OFFCURVE",
"40 636 CURVE SMOOTH",
"40 596 OFFCURVE",
"59 571 OFFCURVE",
"97 571 CURVE SMOOTH"
);
}
);
width = 510;
},
{
anchors = (
{
name = bottom;
position = "{225, 0}";
},
{
name = ogonek;
position = "{375, 23}";
},
{
name = top;
position = "{225, 700}";
},
{
name = topleft;
position = "{54, 700}";
}
);
layerId = "17B9D149-A542-49FB-8130-D430586D7342";
paths = (
{
closed = 1;
nodes = (
"275 260 OFFCURVE",
"279 437 OFFCURVE",
"279 663 CURVE",
"202 663 LINE",
"202 437 OFFCURVE",
"196 262 OFFCURVE",
"182 49 CURVE",
"258 45 LINE"
);
},
{
closed = 1;
nodes = (
"397 4 OFFCURVE",
"406 18 OFFCURVE",
"406 40 CURVE SMOOTH",
"406 61 OFFCURVE",
"398 75 OFFCURVE",
"372 75 CURVE SMOOTH",
"70 79 LINE SMOOTH",
"53 79 OFFCURVE",
"37 69 OFFCURVE",
"37 44 CURVE SMOOTH",
"37 24 OFFCURVE",
"46 9 OFFCURVE",
"68 8 CURVE SMOOTH",
"371 4 LINE SMOOTH"
);
},
{
closed = 1;
nodes = (
"69 629 OFFCURVE",
"175 638 OFFCURVE",
"228 638 CURVE SMOOTH",
"325 638 OFFCURVE",
"338 637 OFFCURVE",
"371 634 CURVE SMOOTH",
"393 632 OFFCURVE",
"406 646 OFFCURVE",
"406 669 CURVE SMOOTH",
"406 695 OFFCURVE",
"391 700 OFFCURVE",
"375 703 CURVE SMOOTH",
"346 708 OFFCURVE",
"291 709 OFFCURVE",
"256 709 CURVE SMOOTH",
"178 709 OFFCURVE",
"87 704 OFFCURVE",
"64 700 CURVE SMOOTH",
"47 697 OFFCURVE",
"32 689 OFFCURVE",
"32 665 CURVE SMOOTH",
"32 642 OFFCURVE",
"45 629 OFFCURVE",
"58 629 CURVE SMOOTH"
);
}
);
width = 438;
},
{
anchors = (
{
name = bottom;
position = "{181, 0}";
},
{
name = ogonek;
position = "{330, 14}";
},
{
name = top;
position = "{304, 700}";
},
{
name = topleft;
position = "{125, 700}";
}
);
layerId = "2214C8E2-2079-4DC2-8649-1937C1DD8804";
paths = (
{
closed = 1;
nodes = (
"258 267 OFFCURVE",
"291 431 OFFCURVE",
"335 681 CURVE",
"304 681 LINE",
"260 431 OFFCURVE",
"225 268 OFFCURVE",
"168 30 CURVE",
"199 29 LINE"
);
},
{
closed = 1;
nodes = (
"344 5 OFFCURVE",
"350 13 OFFCURVE",
"350 25 CURVE SMOOTH",
"350 33 OFFCURVE",
"347 37 OFFCURVE",
"338 37 CURVE SMOOTH",
"35 41 LINE SMOOTH",
"26 41 OFFCURVE",
"18 36 OFFCURVE",
"18 23 CURVE SMOOTH",
"18 14 OFFCURVE",
"22 10 OFFCURVE",
"28 10 CURVE SMOOTH",
"332 5 LINE SMOOTH"
);
},
{
closed = 1;
nodes = (
"153 667 OFFCURVE",
"260 677 OFFCURVE",
"313 677 CURVE SMOOTH",
"391 677 OFFCURVE",
"404 676 OFFCURVE",
"447 672 CURVE SMOOTH",
"457 671 OFFCURVE",
"467 676 OFFCURVE",
"467 690 CURVE SMOOTH",
"467 699 OFFCURVE",
"463 701 OFFCURVE",
"456 702 CURVE SMOOTH",
"415 709 OFFCURVE",
"319 708 OFFCURVE",
"306 708 CURVE SMOOTH",
"268 708 OFFCURVE",
"164 701 OFFCURVE",
"147 698 CURVE SMOOTH",
"135 696 OFFCURVE",
"128 690 OFFCURVE",
"128 680 CURVE SMOOTH",
"128 672 OFFCURVE",
"133 667 OFFCURVE",
"141 667 CURVE SMOOTH"
);
}
);
width = 438;
},
{
anchors = (
{
name = bottom;
position = "{183, 0}";
},
{
name = ogonek;
position = "{337, 23}";
},
{
name = top;
position = "{306, 700}";
},
{
name = topleft;
position = "{135, 700}";
}
);
layerId = "AEE50E4E-1B30-4E16-A434-AC23B12A4294";
paths = (
{
closed = 1;
nodes = (
"279 260 OFFCURVE",
"314 437 OFFCURVE",
"354 663 CURVE",
"277 663 LINE",
"237 437 OFFCURVE",
"200 262 OFFCURVE",
"149 49 CURVE",
"224 45 LINE"
);
},
{
closed = 1;
nodes = (
"358 4 OFFCURVE",
"372 23 OFFCURVE",
"372 48 CURVE SMOOTH",
"372 67 OFFCURVE",
"364 75 OFFCURVE",
"343 75 CURVE SMOOTH",
"42 79 LINE SMOOTH",
"23 79 OFFCURVE",
"2 65 OFFCURVE",
"2 36 CURVE SMOOTH",
"2 18 OFFCURVE",
"10 9 OFFCURVE",
"27 8 CURVE SMOOTH",
"330 4 LINE SMOOTH"
);
},
{
closed = 1;
nodes = (
"138 629 OFFCURVE",
"245 638 OFFCURVE",
"298 638 CURVE SMOOTH",
"395 638 OFFCURVE",
"408 637 OFFCURVE",
"441 634 CURVE SMOOTH",
"465 632 OFFCURVE",
"483 651 OFFCURVE",
"483 677 CURVE SMOOTH",
"483 690 OFFCURVE",
"478 699 OFFCURVE",
"457 703 CURVE SMOOTH",
"429 708 OFFCURVE",
"375 709 OFFCURVE",
"340 709 CURVE SMOOTH",
"262 709 OFFCURVE",
"169 704 OFFCURVE",
"145 700 CURVE SMOOTH",
"126 697 OFFCURVE",
"106 686 OFFCURVE",
"106 658 CURVE SMOOTH",
"106 637 OFFCURVE",
"117 629 OFFCURVE",
"127 629 CURVE SMOOTH"
);
}
);
width = 438;
},
{
anchors = (
{
name = bottom;
position = "{223, 0}";
},
{
name = ogonek;
position = "{383, 37}";
},
{
name = top;
position = "{346, 700}";
},
{
name = topleft;
position = "{185, 700}";
}
);
layerId = "F86CB789-B416-49E2-AD1B-BE88A4A88FF7";
paths = (
{
closed = 1;
nodes = (
"345 249 OFFCURVE",
"383 445 OFFCURVE",
"417 636 CURVE",
"272 636 LINE",
"238 445 OFFCURVE",
"199 253 OFFCURVE",
"156 78 CURVE",
"298 69 LINE"
);
},
{
closed = 1;
nodes = (
"414 2 OFFCURVE",
"442 38 OFFCURVE",
"442 87 CURVE SMOOTH",
"442 114 OFFCURVE",
"427 132 OFFCURVE",
"387 133 CURVE SMOOTH",
"87 137 LINE SMOOTH",
"41 137 OFFCURVE",
"14 97 OFFCURVE",
"14 54 CURVE SMOOTH",
"14 30 OFFCURVE",
"25 7 OFFCURVE",
"64 6 CURVE SMOOTH",
"363 2 LINE"
);
},
{
closed = 1;
nodes = (
"179 571 OFFCURVE",
"215 580 OFFCURVE",
"345 580 CURVE SMOOTH",
"420 580 OFFCURVE",
"450 577 OFFCURVE",
"466 577 CURVE SMOOTH",
"520 577 OFFCURVE",
"542 612 OFFCURVE",
"542 656 CURVE SMOOTH",
"542 683 OFFCURVE",
"528 702 OFFCURVE",
"495 705 CURVE SMOOTH",
"460 708 OFFCURVE",
"429 711 OFFCURVE",
"370 711 CURVE SMOOTH",
"285 711 OFFCURVE",
"202 705 OFFCURVE",
"179 702 CURVE SMOOTH",
"131 695 OFFCURVE",
"108 663 OFFCURVE",
"108 618 CURVE SMOOTH",
"108 589 OFFCURVE",
"124 571 OFFCURVE",
"156 571 CURVE SMOOTH"
);
}
);
width = 510;
}
);
note = I;
unicode = 0049;
},
{
color = 9;
glyphname = J;
lastChange = "2018-03-20 12:00:42 +0000";
layers = (
{
anchors = (
{
name = bottom;
position = "{270, 0}";
},
{
name = top;
position = "{425, 700}";
}
);
layerId = "0B1DFD06-3317-40CA-B510-4969A0718C16";
paths = (
{
closed = 1;
nodes = (
"356 2 OFFCURVE",
"442 83 OFFCURVE",
"442 259 CURVE SMOOTH",
"442 373 OFFCURVE",
"439 530 OFFCURVE",
"448 681 CURVE",
"418 681 LINE",
"409 532 OFFCURVE",
"411 373 OFFCURVE",
"411 258 CURVE SMOOTH",
"411 90 OFFCURVE",
"333 33 OFFCURVE",
"241 33 CURVE SMOOTH",
"171 33 OFFCURVE",
"81 51 OFFCURVE",
"81 251 CURVE SMOOTH",
"81 264 OFFCURVE",
"77 271 OFFCURVE",
"66 271 CURVE SMOOTH",
"54 271 OFFCURVE",
"50 264 OFFCURVE",
"50 251 CURVE SMOOTH",
"50 42 OFFCURVE",
"156 2 OFFCURVE",
"243 2 CURVE SMOOTH"
);
},
{
closed = 1;
nodes = (
"377 671 OFFCURVE",
"473 671 OFFCURVE",
"525 668 CURVE SMOOTH",
"532 668 OFFCURVE",
"537 674 OFFCURVE",
"537 683 CURVE SMOOTH",
"537 692 OFFCURVE",
"533 697 OFFCURVE",
"525 698 CURVE SMOOTH",
"506 700 OFFCURVE",
"465 699 OFFCURVE",
"426 699 CURVE SMOOTH",
"391 699 OFFCURVE",
"348 698 OFFCURVE",
"321 695 CURVE SMOOTH",
"313 694 OFFCURVE",
"308 688 OFFCURVE",
"308 679 CURVE SMOOTH",
"308 670 OFFCURVE",
"313 664 OFFCURVE",
"322 665 CURVE SMOOTH"
);
}
);
width = 587;
},
{
anchors = (
{
name = bottom;
position = "{279, 0}";
},
{
name = top;
position = "{435, 700}";
}
);
layerId = "2F8C22CF-EC86-44F4-AF1A-A6C7F26A0C3C";
paths = (
{
closed = 1;
nodes = (
"424 -2 OFFCURVE",
"511 103 OFFCURVE",
"511 272 CURVE SMOOTH",
"511 397 OFFCURVE",
"504 488 OFFCURVE",
"513 640 CURVE",
"368 639 LINE",
"360 488 OFFCURVE",
"362 397 OFFCURVE",
"362 271 CURVE SMOOTH",
"362 172 OFFCURVE",
"320 129 OFFCURVE",
"271 129 CURVE SMOOTH",
"221 129 OFFCURVE",
"188 170 OFFCURVE",
"186 264 CURVE SMOOTH",
"186 304 OFFCURVE",
"163 334 OFFCURVE",
"116 334 CURVE SMOOTH",
"65 334 OFFCURVE",
"40 307 OFFCURVE",
"40 259 CURVE SMOOTH",
"40 97 OFFCURVE",
"129 -2 OFFCURVE",
"276 -2 CURVE SMOOTH"
);
},
{
closed = 1;
nodes = (
"341 576 OFFCURVE",
"495 576 OFFCURVE",
"538 576 CURVE SMOOTH",
"581 576 OFFCURVE",
"599 605 OFFCURVE",
"599 639 CURVE SMOOTH",
"599 672 OFFCURVE",
"586 699 OFFCURVE",
"537 702 CURVE SMOOTH",
"517 703 OFFCURVE",
"462 704 OFFCURVE",
"434 704 CURVE SMOOTH",
"389 704 OFFCURVE",
"355 703 OFFCURVE",
"307 701 CURVE SMOOTH",
"281 700 OFFCURVE",
"261 678 OFFCURVE",
"261 639 CURVE SMOOTH",
"261 595 OFFCURVE",
"280 576 OFFCURVE",
"325 576 CURVE SMOOTH"
);
}
);
width = 659;
},
{
anchors = (
{
name = bottom;
position = "{251, 0}";
},
{
name = top;
position = "{406, 700}";
}
);
layerId = "17B9D149-A542-49FB-8130-D430586D7342";
paths = (
{
closed = 1;
nodes = (
"383 0 OFFCURVE",
"448 95 OFFCURVE",
"448 258 CURVE SMOOTH",
"448 378 OFFCURVE",
"449 509 OFFCURVE",
"451 665 CURVE",
"375 664 LINE",
"366 514 OFFCURVE",
"368 383 OFFCURVE",
"368 263 CURVE SMOOTH",
"368 123 OFFCURVE",
"306 71 OFFCURVE",
"226 71 CURVE SMOOTH",
"111 71 OFFCURVE",
"104 180 OFFCURVE",
"100 256 CURVE SMOOTH",
"99 282 OFFCURVE",
"89 296 OFFCURVE",
"60 296 CURVE SMOOTH",
"30 296 OFFCURVE",
"23 281 OFFCURVE",
"23 236 CURVE SMOOTH",
"23 64 OFFCURVE",
"127 0 OFFCURVE",
"242 0 CURVE SMOOTH"
);
},
{
closed = 1;
nodes = (
"313 629 OFFCURVE",
"492 631 OFFCURVE",
"502 631 CURVE SMOOTH",
"531 631 OFFCURVE",
"539 646 OFFCURVE",
"539 665 CURVE SMOOTH",
"539 684 OFFCURVE",
"531 698 OFFCURVE",
"507 700 CURVE SMOOTH",
"487 701 OFFCURVE",
"444 701 OFFCURVE",
"442 701 CURVE SMOOTH",
"371 701 OFFCURVE",
"328 700 OFFCURVE",
"292 697 CURVE SMOOTH",
"279 696 OFFCURVE",
"266 686 OFFCURVE",
"266 664 CURVE SMOOTH",
"266 641 OFFCURVE",
"281 629 OFFCURVE",
"304 629 CURVE SMOOTH"
);
}
);
width = 549;
},
{
anchors = (
{
name = bottom;
position = "{228, 0}";
},
{
name = top;
position = "{506, 700}";
}
);
layerId = "2214C8E2-2079-4DC2-8649-1937C1DD8804";
paths = (
{
closed = 1;
nodes = (
"322 2 OFFCURVE",
"415 83 OFFCURVE",
"446 259 CURVE SMOOTH",
"466 373 OFFCURVE",
"490 530 OFFCURVE",
"526 681 CURVE",
"496 681 LINE",
"461 532 OFFCURVE",
"435 373 OFFCURVE",
"414 258 CURVE SMOOTH",
"385 90 OFFCURVE",
"297 33 OFFCURVE",
"205 33 CURVE SMOOTH",
"87 33 OFFCURVE",
"58 119 OFFCURVE",
"83 251 CURVE SMOOTH",
"85 258 OFFCURVE",
"86 271 OFFCURVE",
"72 271 CURVE SMOOTH",
"60 271 OFFCURVE",
"55 264 OFFCURVE",
"52 251 CURVE SMOOTH",
"29 111 OFFCURVE",
"62 2 OFFCURVE",
"209 2 CURVE SMOOTH"
);
},
{
closed = 1;
nodes = (
"468 668 OFFCURVE",
"553 669 OFFCURVE",
"601 668 CURVE SMOOTH",
"609 668 OFFCURVE",
"616 676 OFFCURVE",
"616 688 CURVE SMOOTH",
"616 694 OFFCURVE",
"612 697 OFFCURVE",
"606 698 CURVE SMOOTH",
"602 698 OFFCURVE",
"562 699 OFFCURVE",
"507 699 CURVE SMOOTH",
"472 699 OFFCURVE",
"429 698 OFFCURVE",
"402 695 CURVE SMOOTH",
"392 694 OFFCURVE",
"385 686 OFFCURVE",
"385 674 CURVE SMOOTH",
"385 669 OFFCURVE",
"389 665 OFFCURVE",
"395 665 CURVE SMOOTH"
);
}
);
width = 587;
},
{
anchors = (
{
name = bottom;
position = "{209, 0}";
},
{
name = top;
position = "{487, 700}";
}
);
layerId = "AEE50E4E-1B30-4E16-A434-AC23B12A4294";
paths = (
{
closed = 1;
nodes = (
"346 0 OFFCURVE",
"423 95 OFFCURVE",
"451 258 CURVE SMOOTH",
"473 378 OFFCURVE",
"497 509 OFFCURVE",
"526 665 CURVE",
"450 664 LINE",
"415 514 OFFCURVE",
"394 383 OFFCURVE",
"372 263 CURVE SMOOTH",
"348 123 OFFCURVE",
"277 71 OFFCURVE",
"197 71 CURVE SMOOTH",
"103 71 OFFCURVE",
"81 143 OFFCURVE",
"103 256 CURVE SMOOTH",
"107 277 OFFCURVE",
"101 296 OFFCURVE",
"70 296 CURVE SMOOTH",
"40 296 OFFCURVE",
"31 281 OFFCURVE",
"23 236 CURVE SMOOTH",
"-2 91 OFFCURVE",
"62 0 OFFCURVE",
"202 0 CURVE SMOOTH"
);
},
{
closed = 1;
nodes = (
"382 629 OFFCURVE",
"561 631 OFFCURVE",
"571 631 CURVE SMOOTH",
"605 631 OFFCURVE",
"615 652 OFFCURVE",
"615 675 CURVE SMOOTH",
"615 689 OFFCURVE",
"608 698 OFFCURVE",
"588 700 CURVE SMOOTH",
"569 701 OFFCURVE",
"540 701 OFFCURVE",
"524 701 CURVE SMOOTH",
"453 701 OFFCURVE",
"409 700 OFFCURVE",
"373 697 CURVE SMOOTH",
"359 696 OFFCURVE",
"340 684 OFFCURVE",
"340 656 CURVE SMOOTH",
"340 638 OFFCURVE",
"353 629 OFFCURVE",
"373 629 CURVE SMOOTH"
);
}
);
width = 549;
},
{
anchors = (
{
name = bottom;
position = "{237, 0}";
},
{
name = top;
position = "{516, 700}";
}
);
layerId = "F86CB789-B416-49E2-AD1B-BE88A4A88FF7";
paths = (
{
closed = 1;
nodes = (
"393 -2 OFFCURVE",
"486 98 OFFCURVE",
"517 272 CURVE SMOOTH",
"539 397 OFFCURVE",
"548 488 OFFCURVE",
"584 640 CURVE",
"439 639 LINE",
"404 488 OFFCURVE",
"390 397 OFFCURVE",
"368 271 CURVE SMOOTH",
"350 172 OFFCURVE",
"301 129 OFFCURVE",
"252 129 CURVE SMOOTH",
"202 129 OFFCURVE",
"176 170 OFFCURVE",
"191 264 CURVE SMOOTH",
"198 304 OFFCURVE",
"180 334 OFFCURVE",
"133 334 CURVE SMOOTH",
"82 334 OFFCURVE",
"52 307 OFFCURVE",
"44 259 CURVE SMOOTH",
"15 95 OFFCURVE",
"103 -2 OFFCURVE",
"247 -2 CURVE SMOOTH"
);
},
{
closed = 1;
nodes = (
"401 576 OFFCURVE",
"555 576 OFFCURVE",
"598 576 CURVE SMOOTH",
"641 576 OFFCURVE",
"664 605 OFFCURVE",
"670 639 CURVE SMOOTH",
"675 672 OFFCURVE",
"667 699 OFFCURVE",
"619 702 CURVE SMOOTH",
"599 703 OFFCURVE",
"544 704 OFFCURVE",
"516 704 CURVE SMOOTH",
"471 704 OFFCURVE",
"437 703 OFFCURVE",
"389 701 CURVE SMOOTH",
"362 700 OFFCURVE",
"339 678 OFFCURVE",
"332 639 CURVE SMOOTH",
"324 595 OFFCURVE",
"340 576 OFFCURVE",
"385 576 CURVE SMOOTH"
);
}
);
width = 659;
}
);
note = J;
unicode = 004A;
},
{
color = 9;
glyphname = K;
lastChange = "2018-03-20 12:00:42 +0000";
layers = (
{
anchors = (
{
name = bottom;
position = "{286, 0}";
},
{
name = top;
position = "{286, 700}";
}
);
layerId = "0B1DFD06-3317-40CA-B510-4969A0718C16";
paths = (
{
closed = 1;
nodes = (
"104 2 OFFCURVE",
"113 6 OFFCURVE",
"113 23 CURVE SMOOTH",
"113 50 OFFCURVE",
"113 57 OFFCURVE",
"116 360 CURVE",
"106 360 LINE",
"180 279 OFFCURVE",
"215 245 OFFCURVE",
"298 176 CURVE SMOOTH",
"382 107 OFFCURVE",
"441 61 OFFCURVE",
"522 7 CURVE SMOOTH",
"525 5 OFFCURVE",
"530 3 OFFCURVE",
"534 3 CURVE SMOOTH",
"542 3 OFFCURVE",
"548 12 OFFCURVE",
"548 19 CURVE SMOOTH",
"548 24 OFFCURVE",
"546 28 OFFCURVE",
"540 32 CURVE SMOOTH",
"462 86 OFFCURVE",
"418 112 OFFCURVE",
"317 198 CURVE SMOOTH",
"228 273 OFFCURVE",
"200 306 OFFCURVE",
"137 369 CURVE",
"203 413 OFFCURVE",
"250 440 OFFCURVE",
"342 502 CURVE SMOOTH",
"425 558 OFFCURVE",
"524 629 OFFCURVE",
"562 658 CURVE SMOOTH",
"567 662 OFFCURVE",
"569 667 OFFCURVE",
"569 672 CURVE SMOOTH",
"569 681 OFFCURVE",
"562 688 OFFCURVE",
"554 688 CURVE SMOOTH",
"551 688 OFFCURVE",
"548 687 OFFCURVE",
"545 685 CURVE SMOOTH",
"501 650 OFFCURVE",
"443 605 OFFCURVE",
"319 523 CURVE SMOOTH",
"252 479 OFFCURVE",
"181 433 OFFCURVE",
"106 389 CURVE",
"117 389 LINE",
"116 458 OFFCURVE",
"116 545 OFFCURVE",
"116 680 CURVE SMOOTH",
"116 690 OFFCURVE",
"109 697 OFFCURVE",
"100 697 CURVE SMOOTH",
"91 697 OFFCURVE",
"83 692 OFFCURVE",
"83 683 CURVE SMOOTH",
"83 561 OFFCURVE",
"84 468 OFFCURVE",
"84 390 CURVE SMOOTH",
"84 235 OFFCURVE",
"80 54 OFFCURVE",
"80 21 CURVE SMOOTH",
"80 9 OFFCURVE",
"83 2 OFFCURVE",
"95 2 CURVE SMOOTH"
);
}
);
width = 619;
},
{
anchors = (
{
name = bottom;
position = "{329, 0}";
},
{
name = top;
position = "{329, 700}";
}
);
layerId = "2F8C22CF-EC86-44F4-AF1A-A6C7F26A0C3C";
paths = (
{
closed = 1;
nodes = (
"186 -2 OFFCURVE",
"215 29 OFFCURVE",
"215 72 CURVE SMOOTH",
"215 154 OFFCURVE",
"217 183 OFFCURVE",
"218 290 CURVE",
"168 290 LINE",
"224 240 OFFCURVE",
"280 191 OFFCURVE",
"336 141 CURVE SMOOTH",
"385 97 OFFCURVE",
"434 54 OFFCURVE",
"483 10 CURVE SMOOTH",
"496 1 OFFCURVE",
"512 -4 OFFCURVE",
"528 -4 CURVE SMOOTH",
"570 -4 OFFCURVE",
"601 28 OFFCURVE",
"601 67 CURVE SMOOTH",
"601 84 OFFCURVE",
"593 102 OFFCURVE",
"573 119 CURVE SMOOTH",
"502 176 OFFCURVE",
"467 208 OFFCURVE",
"415 251 CURVE SMOOTH",
"370 288 OFFCURVE",
"325 326 OFFCURVE",
"267 371 CURVE",
"273 375 OFFCURVE",
"348 423 OFFCURVE",
"425 472 CURVE SMOOTH",
"511 528 OFFCURVE",
"547 551 OFFCURVE",
"596 586 CURVE SMOOTH",
"611 597 OFFCURVE",
"618 615 OFFCURVE",
"618 634 CURVE SMOOTH",
"618 673 OFFCURVE",
"590 702 OFFCURVE",
"545 702 CURVE SMOOTH",
"529 702 OFFCURVE",
"512 697 OFFCURVE",
"499 688 CURVE SMOOTH",
"446 649 OFFCURVE",
"392 611 OFFCURVE",
"339 572 CURVE SMOOTH",
"282 530 OFFCURVE",
"225 489 OFFCURVE",
"168 447 CURVE",
"219 447 LINE",
"218 527 OFFCURVE",
"218 566 OFFCURVE",
"218 634 CURVE SMOOTH",
"218 673 OFFCURVE",
"191 701 OFFCURVE",
"146 701 CURVE SMOOTH",
"101 701 OFFCURVE",
"72 673 OFFCURVE",
"72 637 CURVE SMOOTH",
"73 533 OFFCURVE",
"75 470 OFFCURVE",
"75 353 CURVE SMOOTH",
"75 253 OFFCURVE",
"70 183 OFFCURVE",
"70 64 CURVE SMOOTH",
"70 14 OFFCURVE",
"93 -2 OFFCURVE",
"142 -2 CURVE SMOOTH"
);
}
);
width = 658;
},
{
anchors = (
{
name = bottom;
position = "{303, 0}";
},
{
name = top;
position = "{303, 700}";
}
);
layerId = "17B9D149-A542-49FB-8130-D430586D7342";
paths = (
{
closed = 1;
nodes = (
"137 0 OFFCURVE",
"153 12 OFFCURVE",
"153 37 CURVE SMOOTH",
"155 181 OFFCURVE",
"156 229 OFFCURVE",
"157 332 CURVE",
"131 332 LINE",
"198 263 OFFCURVE",
"244 220 OFFCURVE",
"313 162 CURVE SMOOTH",
"384 102 OFFCURVE",
"492 17 OFFCURVE",
"509 6 CURVE SMOOTH",
"517 1 OFFCURVE",
"524 -1 OFFCURVE",
"531 -1 CURVE SMOOTH",
"549 -1 OFFCURVE",
"568 12 OFFCURVE",
"568 36 CURVE SMOOTH",
"568 48 OFFCURVE",
"563 60 OFFCURVE",
"553 67 CURVE SMOOTH",
"476 122 OFFCURVE",
"437 150 OFFCURVE",
"356 219 CURVE SMOOTH",
"285 279 OFFCURVE",
"250 314 OFFCURVE",
"189 370 CURVE",
"230 398 OFFCURVE",
"284 430 OFFCURVE",
"375 490 CURVE SMOOTH",
"464 549 OFFCURVE",
"566 621 OFFCURVE",
"576 629 CURVE SMOOTH",
"585 636 OFFCURVE",
"589 646 OFFCURVE",
"589 656 CURVE SMOOTH",
"589 678 OFFCURVE",
"571 694 OFFCURVE",
"551 694 CURVE SMOOTH",
"542 694 OFFCURVE",
"534 691 OFFCURVE",
"527 686 CURVE SMOOTH",
"393 585 OFFCURVE",
"440 621 OFFCURVE",
"327 543 CURVE SMOOTH",
"264 499 OFFCURVE",
"199 455 OFFCURVE",
"131 412 CURVE",
"158 412 LINE",
"156 543 OFFCURVE",
"157 517 OFFCURVE",
"157 662 CURVE SMOOTH",
"157 683 OFFCURVE",
"142 699 OFFCURVE",
"118 699 CURVE SMOOTH",
"95 699 OFFCURVE",
"79 684 OFFCURVE",
"79 665 CURVE SMOOTH",
"79 552 OFFCURVE",
"81 464 OFFCURVE",
"81 380 CURVE SMOOTH",
"81 246 OFFCURVE",
"76 148 OFFCURVE",
"76 45 CURVE SMOOTH",
"76 15 OFFCURVE",
"88 0 OFFCURVE",
"114 0 CURVE SMOOTH"
);
}
);
width = 607;
},
{
anchors = (
{
name = bottom;
position = "{244, 0}";
},
{
name = top;
position = "{367, 700}";
}
);
layerId = "2214C8E2-2079-4DC2-8649-1937C1DD8804";
paths = (
{
closed = 1;
nodes = (
"64 2 OFFCURVE",
"71 6 OFFCURVE",
"74 23 CURVE SMOOTH",
"79 50 OFFCURVE",
"81 57 OFFCURVE",
"137 360 CURVE",
"127 360 LINE",
"187 279 OFFCURVE",
"216 245 OFFCURVE",
"287 176 CURVE SMOOTH",
"359 107 OFFCURVE",
"410 61 OFFCURVE",
"482 7 CURVE SMOOTH",
"488 2 OFFCURVE",
"493 3 OFFCURVE",
"499 6 CURVE SMOOTH",
"505 9 OFFCURVE",
"509 15 OFFCURVE",
"509 22 CURVE SMOOTH",
"509 27 OFFCURVE",
"506 30 OFFCURVE",
"504 32 CURVE SMOOTH",
"433 84 OFFCURVE",
"396 112 OFFCURVE",
"310 198 CURVE SMOOTH",
"234 273 OFFCURVE",
"212 306 OFFCURVE",
"160 369 CURVE",
"234 411 OFFCURVE",
"286 438 OFFCURVE",
"389 500 CURVE SMOOTH",
"481 556 OFFCURVE",
"593 625 OFFCURVE",
"636 658 CURVE SMOOTH",
"642 662 OFFCURVE",
"646 667 OFFCURVE",
"646 673 CURVE SMOOTH",
"646 681 OFFCURVE",
"640 688 OFFCURVE",
"633 688 CURVE SMOOTH",
"631 688 OFFCURVE",
"628 687 OFFCURVE",
"624 685 CURVE SMOOTH",
"574 650 OFFCURVE",
"508 605 OFFCURVE",
"369 523 CURVE SMOOTH",
"294 479 OFFCURVE",
"215 433 OFFCURVE",
"133 389 CURVE",
"144 389 LINE",
"170 553 OFFCURVE",
"158 484 OFFCURVE",
"193 680 CURVE SMOOTH",
"195 690 OFFCURVE",
"190 697 OFFCURVE",
"181 697 CURVE SMOOTH",
"172 697 OFFCURVE",
"163 692 OFFCURVE",
"161 683 CURVE SMOOTH",
"140 561 OFFCURVE",
"125 468 OFFCURVE",
"111 390 CURVE SMOOTH",
"79 214 OFFCURVE",
"41 28 OFFCURVE",
"41 15 CURVE SMOOTH",
"41 5 OFFCURVE",
"47 2 OFFCURVE",
"55 2 CURVE SMOOTH"
);
}
);
width = 619;
},
{
anchors = (
{
name = bottom;
position = "{261, 0}";
},
{
name = top;
position = "{384, 700}";
}
);
layerId = "AEE50E4E-1B30-4E16-A434-AC23B12A4294";
paths = (
{
closed = 1;
nodes = (
"95 0 OFFCURVE",
"113 12 OFFCURVE",
"118 37 CURVE SMOOTH",
"145 181 OFFCURVE",
"154 229 OFFCURVE",
"174 332 CURVE",
"148 332 LINE",
"202 263 OFFCURVE",
"241 220 OFFCURVE",
"300 162 CURVE SMOOTH",
"360 102 OFFCURVE",
"453 17 OFFCURVE",
"468 6 CURVE SMOOTH",
"475 1 OFFCURVE",
"482 -1 OFFCURVE",
"489 -1 CURVE SMOOTH",
"509 -1 OFFCURVE",
"533 18 OFFCURVE",
"533 44 CURVE SMOOTH",
"533 53 OFFCURVE",
"530 61 OFFCURVE",
"523 67 CURVE SMOOTH",
"456 122 OFFCURVE",
"421 151 OFFCURVE",
"353 219 CURVE SMOOTH",
"292 279 OFFCURVE",
"263 314 OFFCURVE",
"212 370 CURVE",
"257 397 OFFCURVE",
"329 436 OFFCURVE",
"419 490 CURVE SMOOTH",
"521 550 OFFCURVE",
"628 618 OFFCURVE",
"645 629 CURVE SMOOTH",
"657 637 OFFCURVE",
"664 650 OFFCURVE",
"664 663 CURVE SMOOTH",
"664 680 OFFCURVE",
"649 694 OFFCURVE",
"631 694 CURVE SMOOTH",
"623 694 OFFCURVE",
"614 691 OFFCURVE",
"606 686 CURVE SMOOTH",
"467 593 OFFCURVE",
"507 621 OFFCURVE",
"381 543 CURVE SMOOTH",
"310 499 OFFCURVE",
"237 455 OFFCURVE",
"162 412 CURVE",
"189 412 LINE",
"210 543 OFFCURVE",
"205 517 OFFCURVE",
"231 662 CURVE SMOOTH",
"234 683 OFFCURVE",
"223 699 OFFCURVE",
"199 699 CURVE SMOOTH",
"176 699 OFFCURVE",
"158 684 OFFCURVE",
"154 665 CURVE SMOOTH",
"134 552 OFFCURVE",
"121 464 OFFCURVE",
"106 380 CURVE SMOOTH",
"103 363 OFFCURVE",
"41 51 OFFCURVE",
"41 31 CURVE SMOOTH",
"41 10 OFFCURVE",
"51 0 OFFCURVE",
"72 0 CURVE SMOOTH"
);
}
);
width = 607;
},
{
anchors = (
{
name = bottom;
position = "{287, 0}";
},
{
name = top;
position = "{410, 700}";
}
);
layerId = "F86CB789-B416-49E2-AD1B-BE88A4A88FF7";
paths = (
{
closed = 1;
nodes = (
"144 -2 OFFCURVE",
"178 29 OFFCURVE",
"186 72 CURVE SMOOTH",
"200 154 OFFCURVE",
"207 183 OFFCURVE",
"227 290 CURVE",
"177 290 LINE",
"224 240 OFFCURVE",
"272 191 OFFCURVE",
"319 141 CURVE SMOOTH",
"360 97 OFFCURVE",
"402 54 OFFCURVE",
"443 10 CURVE SMOOTH",
"455 1 OFFCURVE",
"470 -4 OFFCURVE",
"485 -4 CURVE SMOOTH",
"531 -4 OFFCURVE",
"572 35 OFFCURVE",
"572 76 CURVE SMOOTH",
"572 91 OFFCURVE",
"566 105 OFFCURVE",
"552 119 CURVE SMOOTH",
"491 176 OFFCURVE",
"462 208 OFFCURVE",
"417 251 CURVE SMOOTH",
"379 288 OFFCURVE",
"340 326 OFFCURVE",
"290 371 CURVE",
"297 375 OFFCURVE",
"381 423 OFFCURVE",
"466 472 CURVE SMOOTH",
"562 528 OFFCURVE",
"602 551 OFFCURVE",
"657 586 CURVE SMOOTH",
"678 599 OFFCURVE",
"689 623 OFFCURVE",
"689 646 CURVE SMOOTH",
"689 673 OFFCURVE",
"664 702 OFFCURVE",
"627 702 CURVE SMOOTH",
"610 702 OFFCURVE",
"593 697 OFFCURVE",
"578 688 CURVE SMOOTH",
"518 649 OFFCURVE",
"458 611 OFFCURVE",
"398 572 CURVE SMOOTH",
"333 530 OFFCURVE",
"269 489 OFFCURVE",
"205 447 CURVE",
"256 447 LINE",
"269 527 OFFCURVE",
"276 566 OFFCURVE",
"288 634 CURVE SMOOTH",
"295 670 OFFCURVE",
"274 701 OFFCURVE",
"228 701 CURVE SMOOTH",
"183 701 OFFCURVE",
"149 673 OFFCURVE",
"142 637 CURVE SMOOTH",
"125 533 OFFCURVE",
"116 470 OFFCURVE",
"95 353 CURVE SMOOTH",
"91 332 OFFCURVE",
"39 79 OFFCURVE",
"39 55 CURVE SMOOTH",
"39 18 OFFCURVE",
"58 -2 OFFCURVE",
"100 -2 CURVE SMOOTH"
);
}
);
width = 658;
}
);
note = K;
unicode = 004B;
},
{
color = 9;
glyphname = L;
lastChange = "2018-03-20 12:00:42 +0000";
layers = (
{
anchors = (
{
name = bottom;
position = "{251, 0}";
},
{
name = center;
position = "{276, 335}";
},
{
name = top;
position = "{127, 700}";
},
{
name = topright;
position = "{98, 549}";
}
);
layerId = "0B1DFD06-3317-40CA-B510-4969A0718C16";
paths = (
{
closed = 1;
nodes = (
"309 0 OFFCURVE",
"360 6 OFFCURVE",
"451 23 CURVE SMOOTH",
"462 25 OFFCURVE",
"468 31 OFFCURVE",
"468 42 CURVE SMOOTH",
"468 57 OFFCURVE",
"456 59 OFFCURVE",
"446 57 CURVE SMOOTH",
"341 37 OFFCURVE",
"295 31 OFFCURVE",
"229 31 CURVE SMOOTH",
"94 31 OFFCURVE",
"91 66 OFFCURVE",
"91 217 CURVE SMOOTH",
"91 362 OFFCURVE",
"101 437 OFFCURVE",
"137 682 CURVE SMOOTH",
"139 696 OFFCURVE",
"134 702 OFFCURVE",
"124 702 CURVE SMOOTH",
"115 702 OFFCURVE",
"108 697 OFFCURVE",
"106 685 CURVE SMOOTH",
"74 486 OFFCURVE",
"60 342 OFFCURVE",
"60 202 CURVE SMOOTH",
"60 38 OFFCURVE",
"79 0 OFFCURVE",
"244 0 CURVE SMOOTH"
);
}
);
width = 508;
},
{
anchors = (
{
name = bottom;
position = "{280, 0}";
},
{
name = center;
position = "{373, 350}";
},
{
name = top;
position = "{177, 700}";
},
{
name = topright;
position = "{166, 564}";
}
);
layerId = "2F8C22CF-EC86-44F4-AF1A-A6C7F26A0C3C";
paths = (
{
closed = 1;
nodes = (
"359 -3 OFFCURVE",
"402 6 OFFCURVE",
"473 19 CURVE SMOOTH",
"522 28 OFFCURVE",
"550 48 OFFCURVE",
"550 86 CURVE SMOOTH",
"550 122 OFFCURVE",
"525 159 OFFCURVE",
"479 150 CURVE SMOOTH",
"443 143 OFFCURVE",
"335 124 OFFCURVE",
"274 122 CURVE SMOOTH",
"210 120 OFFCURVE",
"200 137 OFFCURVE",
"200 235 CURVE SMOOTH",
"200 377 OFFCURVE",
"221 500 OFFCURVE",
"243 626 CURVE SMOOTH",
"251 671 OFFCURVE",
"230 705 OFFCURVE",
"176 705 CURVE SMOOTH",
"132 705 OFFCURVE",
"104 683 OFFCURVE",
"99 652 CURVE SMOOTH",
"81 546 OFFCURVE",
"60 412 OFFCURVE",
"60 239 CURVE SMOOTH",
"60 50 OFFCURVE",
"85 -3 OFFCURVE",
"279 -3 CURVE SMOOTH"
);
}
);
width = 580;
},
{
anchors = (
{
name = bottom;
position = "{263, 0}";
},
{
name = center;
position = "{315, 341}";
},
{
name = top;
position = "{158, 700}";
},
{
name = topright;
position = "{127, 564}";
}
);
layerId = "17B9D149-A542-49FB-8130-D430586D7342";
paths = (
{
closed = 1;
nodes = (
"330 -1 OFFCURVE",
"377 6 OFFCURVE",
"460 21 CURVE SMOOTH",
"487 26 OFFCURVE",
"501 38 OFFCURVE",
"501 60 CURVE SMOOTH",
"501 79 OFFCURVE",
"491 98 OFFCURVE",
"460 94 CURVE SMOOTH",
"436 91 OFFCURVE",
"332 67 OFFCURVE",
"242 68 CURVE SMOOTH",
"144 70 OFFCURVE",
"135 100 OFFCURVE",
"135 217 CURVE SMOOTH",
"135 367 OFFCURVE",
"150 465 OFFCURVE",
"180 660 CURVE SMOOTH",
"184 685 OFFCURVE",
"174 703 OFFCURVE",
"145 703 CURVE SMOOTH",
"121 703 OFFCURVE",
"107 690 OFFCURVE",
"104 672 CURVE SMOOTH",
"77 505 OFFCURVE",
"61 373 OFFCURVE",
"61 219 CURVE SMOOTH",
"61 43 OFFCURVE",
"82 -1 OFFCURVE",
"259 -1 CURVE SMOOTH"
);
}
);
width = 526;
},
{
anchors = (
{
name = bottom;
position = "{209, 0}";
},
{
name = center;
position = "{293, 335}";
},
{
name = top;
position = "{208, 700}";
},
{
name = topright;
position = "{153, 549}";
}
);
layerId = "2214C8E2-2079-4DC2-8649-1937C1DD8804";
paths = (
{
closed = 1;
nodes = (
"267 0 OFFCURVE",
"319 6 OFFCURVE",
"413 23 CURVE SMOOTH",
"425 25 OFFCURVE",
"433 32 OFFCURVE",
"433 46 CURVE SMOOTH",
"433 55 OFFCURVE",
"427 58 OFFCURVE",
"420 58 CURVE SMOOTH",
"404 58 OFFCURVE",
"301 31 OFFCURVE",
"192 31 CURVE SMOOTH",
"100 31 OFFCURVE",
"73 47 OFFCURVE",
"73 105 CURVE SMOOTH",
"73 223 OFFCURVE",
"145 471 OFFCURVE",
"215 682 CURVE SMOOTH",
"219 694 OFFCURVE",
"214 702 OFFCURVE",
"204 702 CURVE SMOOTH",
"195 702 OFFCURVE",
"189 697 OFFCURVE",
"185 685 CURVE SMOOTH",
"122 498 OFFCURVE",
"42 221 OFFCURVE",
"42 98 CURVE SMOOTH",
"42 21 OFFCURVE",
"80 0 OFFCURVE",
"202 0 CURVE SMOOTH"
);
}
);
width = 508;
},
{
anchors = (
{
name = bottom;
position = "{221, 0}";
},
{
name = center;
position = "{333, 341}";
},
{
name = top;
position = "{239, 700}";
},
{
name = topright;
position = "{184, 564}";
}
);
layerId = "AEE50E4E-1B30-4E16-A434-AC23B12A4294";
paths = (
{
closed = 1;
nodes = (
"288 -1 OFFCURVE",
"336 6 OFFCURVE",
"422 21 CURVE SMOOTH",
"453 27 OFFCURVE",
"471 41 OFFCURVE",
"471 68 CURVE SMOOTH",
"471 84 OFFCURVE",
"462 97 OFFCURVE",
"435 94 CURVE SMOOTH",
"411 91 OFFCURVE",
"306 68 OFFCURVE",
"218 68 CURVE SMOOTH",
"138 68 OFFCURVE",
"121 77 OFFCURVE",
"121 134 CURVE SMOOTH",
"121 284 OFFCURVE",
"250 649 OFFCURVE",
"256 671 CURVE SMOOTH",
"262 693 OFFCURVE",
"245 703 OFFCURVE",
"227 703 CURVE SMOOTH",
"203 703 OFFCURVE",
"187 690 OFFCURVE",
"180 672 CURVE SMOOTH",
"121 498 OFFCURVE",
"45 231 OFFCURVE",
"45 107 CURVE SMOOTH",
"45 23 OFFCURVE",
"86 -1 OFFCURVE",
"217 -1 CURVE SMOOTH"
);
}
);
width = 526;
},
{
anchors = (
{
name = bottom;
position = "{238, 0}";
},
{
name = center;
position = "{393, 350}";
},
{
name = top;
position = "{258, 700}";
},
{
name = topright;
position = "{223, 564}";
}
);
layerId = "F86CB789-B416-49E2-AD1B-BE88A4A88FF7";
paths = (
{
closed = 1;
nodes = (
"316 -3 OFFCURVE",
"361 6 OFFCURVE",
"434 19 CURVE SMOOTH",
"491 29 OFFCURVE",
"524 53 OFFCURVE",
"524 100 CURVE SMOOTH",
"524 127 OFFCURVE",
"509 151 OFFCURVE",
"477 151 CURVE SMOOTH",
"448 151 OFFCURVE",
"332 122 OFFCURVE",
"247 122 CURVE SMOOTH",
"206 122 OFFCURVE",
"191 131 OFFCURVE",
"191 168 CURVE SMOOTH",
"191 313 OFFCURVE",
"304 605 OFFCURVE",
"317 652 CURVE SMOOTH",
"325 680 OFFCURVE",
"299 705 OFFCURVE",
"258 705 CURVE SMOOTH",
"214 705 OFFCURVE",
"182 683 OFFCURVE",
"172 652 CURVE SMOOTH",
"122 507 OFFCURVE",
"46 245 OFFCURVE",
"46 120 CURVE SMOOTH",
"46 26 OFFCURVE",
"91 -3 OFFCURVE",
"236 -3 CURVE SMOOTH"
);
}
);
width = 580;
}
);
note = L;
unicode = 004C;
},
{
color = 9;
glyphname = M;
lastChange = "2018-03-20 12:00:42 +0000";
layers = (
{
anchors = (
{
name = bottom;
position = "{393, 0}";
},
{
name = top;
position = "{393, 700}";
}
);
layerId = "0B1DFD06-3317-40CA-B510-4969A0718C16";
paths = (
{
closed = 1;
nodes = (
"692 -5 OFFCURVE",
"695 3 OFFCURVE",
"695 12 CURVE SMOOTH",
"695 123 OFFCURVE",
"694 224 OFFCURVE",
"693 311 CURVE SMOOTH",
"690 585 OFFCURVE",
"662 711 OFFCURVE",
"605 711 CURVE SMOOTH",
"540 711 OFFCURVE",
"410 541 OFFCURVE",
"382 302 CURVE",
"391 302 LINE",
"352 540 OFFCURVE",
"251 711 OFFCURVE",
"178 711 CURVE SMOOTH",
"118 711 OFFCURVE",
"82 596 OFFCURVE",
"82 322 CURVE SMOOTH",
"82 194 OFFCURVE",
"80 85 OFFCURVE",
"80 13 CURVE SMOOTH",
"80 3 OFFCURVE",
"91 0 OFFCURVE",
"97 0 CURVE SMOOTH",
"104 0 OFFCURVE",
"112 4 OFFCURVE",
"112 14 CURVE SMOOTH",
"112 192 OFFCURVE",
"113 80 OFFCURVE",
"113 323 CURVE SMOOTH",
"113 512 OFFCURVE",
"137 682 OFFCURVE",
"182 682 CURVE SMOOTH",
"214 682 OFFCURVE",
"270 594 OFFCURVE",
"299 524 CURVE SMOOTH",
"334 440 OFFCURVE",
"356 319 OFFCURVE",
"369 282 CURVE SMOOTH",
"372 272 OFFCURVE",
"376 268 OFFCURVE",
"388 268 CURVE SMOOTH",
"396 268 OFFCURVE",
"402 270 OFFCURVE",
"404 282 CURVE SMOOTH",
"420 363 OFFCURVE",
"441 460 OFFCURVE",
"480 535 CURVE SMOOTH",
"508 589 OFFCURVE",
"570 679 OFFCURVE",
"600 679 CURVE SMOOTH",
"638 679 OFFCURVE",
"661 537 OFFCURVE",
"662 311 CURVE SMOOTH",
"663 181 OFFCURVE",
"663 121 OFFCURVE",
"664 12 CURVE SMOOTH",
"664 3 OFFCURVE",
"665 -5 OFFCURVE",
"680 -5 CURVE SMOOTH"
);
}
);
width = 775;
},
{
anchors = (
{
name = bottom;
position = "{412, 0}";
},
{
name = top;
position = "{412, 700}";
}
);
layerId = "2F8C22CF-EC86-44F4-AF1A-A6C7F26A0C3C";
paths = (
{
closed = 1;
nodes = (
"713 -7 OFFCURVE",
"739 19 OFFCURVE",
"739 64 CURVE SMOOTH",
"739 202 OFFCURVE",
"736 272 OFFCURVE",
"735 335 CURVE SMOOTH",
"731 574 OFFCURVE",
"709 713 OFFCURVE",
"602 713 CURVE SMOOTH",
"443 713 OFFCURVE",
"408 407 OFFCURVE",
"385 357 CURVE",
"420 357 LINE",
"394 411 OFFCURVE",
"373 713 OFFCURVE",
"210 713 CURVE SMOOTH",
"114 713 OFFCURVE",
"76 607 OFFCURVE",
"73 336 CURVE SMOOTH",
"72 256 OFFCURVE",
"70 183 OFFCURVE",
"70 77 CURVE SMOOTH",
"70 15 OFFCURVE",
"100 -3 OFFCURVE",
"141 -3 CURVE SMOOTH",
"189 -3 OFFCURVE",
"216 22 OFFCURVE",
"216 57 CURVE SMOOTH",
"216 162 OFFCURVE",
"213 226 OFFCURVE",
"216 333 CURVE SMOOTH",
"218 423 OFFCURVE",
"221 536 OFFCURVE",
"230 536 CURVE SMOOTH",
"237 536 OFFCURVE",
"270 453 OFFCURVE",
"283 415 CURVE SMOOTH",
"298 371 OFFCURVE",
"317 296 OFFCURVE",
"324 277 CURVE SMOOTH",
"335 245 OFFCURVE",
"359 228 OFFCURVE",
"405 228 CURVE SMOOTH",
"449 228 OFFCURVE",
"475 244 OFFCURVE",
"485 281 CURVE SMOOTH",
"488 294 OFFCURVE",
"503 355 OFFCURVE",
"520 411 CURVE SMOOTH",
"529 441 OFFCURVE",
"559 536 OFFCURVE",
"572 536 CURVE SMOOTH",
"583 536 OFFCURVE",
"593 466 OFFCURVE",
"593 329 CURVE SMOOTH",
"593 240 OFFCURVE",
"593 154 OFFCURVE",
"593 59 CURVE SMOOTH",
"593 20 OFFCURVE",
"621 -7 OFFCURVE",
"667 -7 CURVE SMOOTH"
);
}
);
width = 809;
},
{
anchors = (
{
name = bottom;
position = "{405, 0}";
},
{
name = top;
position = "{405, 700}";
}
);
layerId = "17B9D149-A542-49FB-8130-D430586D7342";
paths = (
{
closed = 1;
nodes = (
"705 -6 OFFCURVE",
"717 11 OFFCURVE",
"717 32 CURVE SMOOTH",
"717 132 OFFCURVE",
"715 228 OFFCURVE",
"714 321 CURVE SMOOTH",
"711 567 OFFCURVE",
"691 712 OFFCURVE",
"609 712 CURVE SMOOTH",
"506 712 OFFCURVE",
"414 488 OFFCURVE",
"388 324 CURVE",
"407 324 LINE",
"374 487 OFFCURVE",
"304 712 OFFCURVE",
"196 712 CURVE SMOOTH",
"117 712 OFFCURVE",
"86 591 OFFCURVE",
"83 328 CURVE SMOOTH",
"82 242 OFFCURVE",
"80 74 OFFCURVE",
"80 38 CURVE SMOOTH",
"80 18 OFFCURVE",
"84 -1 OFFCURVE",
"117 -1 CURVE SMOOTH",
"144 -1 OFFCURVE",
"158 11 OFFCURVE",
"158 31 CURVE SMOOTH",
"158 144 OFFCURVE",
"157 237 OFFCURVE",
"159 327 CURVE SMOOTH",
"162 472 OFFCURVE",
"173 624 OFFCURVE",
"205 624 CURVE SMOOTH",
"228 624 OFFCURVE",
"273 541 OFFCURVE",
"297 480 CURVE SMOOTH",
"324 410 OFFCURVE",
"346 305 OFFCURVE",
"355 280 CURVE SMOOTH",
"362 260 OFFCURVE",
"375 252 OFFCURVE",
"398 252 CURVE SMOOTH",
"418 252 OFFCURVE",
"436 258 OFFCURVE",
"441 282 CURVE SMOOTH",
"454 342 OFFCURVE",
"471 419 OFFCURVE",
"500 485 CURVE SMOOTH",
"520 530 OFFCURVE",
"569 622 OFFCURVE",
"596 622 CURVE SMOOTH",
"621 622 OFFCURVE",
"639 543 OFFCURVE",
"639 189 CURVE SMOOTH",
"639 150 OFFCURVE",
"639 127 OFFCURVE",
"640 31 CURVE SMOOTH",
"640 10 OFFCURVE",
"654 -6 OFFCURVE",
"679 -6 CURVE SMOOTH"
);
}
);
width = 803;
},
{
anchors = (
{
name = bottom;
position = "{351, 0}";
},
{
name = top;
position = "{474, 700}";
}
);
layerId = "2214C8E2-2079-4DC2-8649-1937C1DD8804";
paths = (
{
closed = 1;
nodes = (
"649 -5 OFFCURVE",
"653 1 OFFCURVE",
"655 12 CURVE SMOOTH",
"696 239 OFFCURVE",
"736 466 OFFCURVE",
"736 589 CURVE SMOOTH",
"736 671 OFFCURVE",
"720 711 OFFCURVE",
"688 711 CURVE SMOOTH",
"623 711 OFFCURVE",
"463 541 OFFCURVE",
"393 302 CURVE",
"402 302 LINE",
"405 536 OFFCURVE",
"336 711 OFFCURVE",
"259 711 CURVE SMOOTH",
"197 711 OFFCURVE",
"149 599 OFFCURVE",
"97 322 CURVE SMOOTH",
"74 200 OFFCURVE",
"42 27 OFFCURVE",
"40 13 CURVE SMOOTH",
"39 3 OFFCURVE",
"49 0 OFFCURVE",
"55 0 CURVE SMOOTH",
"62 0 OFFCURVE",
"70 3 OFFCURVE",
"72 14 CURVE SMOOTH",
"102 177 OFFCURVE",
"117 261 OFFCURVE",
"128 323 CURVE SMOOTH",
"161 510 OFFCURVE",
"214 682 OFFCURVE",
"260 682 CURVE SMOOTH",
"291 682 OFFCURVE",
"329 604 OFFCURVE",
"349 524 CURVE SMOOTH",
"371 434 OFFCURVE",
"377 308 OFFCURVE",
"380 282 CURVE SMOOTH",
"381 272 OFFCURVE",
"384 268 OFFCURVE",
"396 268 CURVE SMOOTH",
"404 268 OFFCURVE",
"411 270 OFFCURVE",
"415 282 CURVE SMOOTH",
"444 364 OFFCURVE",
"478 459 OFFCURVE",
"533 536 CURVE SMOOTH",
"574 593 OFFCURVE",
"653 679 OFFCURVE",
"682 679 CURVE SMOOTH",
"701 679 OFFCURVE",
"705 644 OFFCURVE",
"705 593 CURVE SMOOTH",
"705 460 OFFCURVE",
"661 200 OFFCURVE",
"624 12 CURVE SMOOTH",
"622 4 OFFCURVE",
"622 -5 OFFCURVE",
"637 -5 CURVE SMOOTH"
);
}
);
width = 775;
},
{
anchors = (
{
name = bottom;
position = "{363, 0}";
},
{
name = top;
position = "{486, 700}";
}
);
layerId = "AEE50E4E-1B30-4E16-A434-AC23B12A4294";
paths = (
{
closed = 1;
nodes = (
"663 -6 OFFCURVE",
"677 11 OFFCURVE",
"681 32 CURVE SMOOTH",
"722 271 OFFCURVE",
"757 472 OFFCURVE",
"757 582 CURVE SMOOTH",
"757 666 OFFCURVE",
"739 712 OFFCURVE",
"693 712 CURVE SMOOTH",
"590 712 OFFCURVE",
"458 488 OFFCURVE",
"403 324 CURVE",
"422 324 LINE",
"418 487 OFFCURVE",
"388 712 OFFCURVE",
"280 712 CURVE SMOOTH",
"201 712 OFFCURVE",
"148 591 OFFCURVE",
"99 328 CURVE SMOOTH",
"83 242 OFFCURVE",
"51 74 OFFCURVE",
"45 38 CURVE SMOOTH",
"40 14 OFFCURVE",
"51 -1 OFFCURVE",
"76 -1 CURVE SMOOTH",
"103 -1 OFFCURVE",
"118 11 OFFCURVE",
"121 31 CURVE SMOOTH",
"141 144 OFFCURVE",
"157 237 OFFCURVE",
"175 327 CURVE SMOOTH",
"203 472 OFFCURVE",
"245 624 OFFCURVE",
"277 624 CURVE SMOOTH",
"300 624 OFFCURVE",
"326 541 OFFCURVE",
"340 480 CURVE SMOOTH",
"354 410 OFFCURVE",
"365 305 OFFCURVE",
"369 280 CURVE SMOOTH",
"372 260 OFFCURVE",
"384 252 OFFCURVE",
"407 252 CURVE SMOOTH",
"427 252 OFFCURVE",
"446 258 OFFCURVE",
"456 282 CURVE SMOOTH",
"491 365 OFFCURVE",
"515 421 OFFCURVE",
"554 485 CURVE SMOOTH",
"584 534 OFFCURVE",
"643 622 OFFCURVE",
"670 622 CURVE SMOOTH",
"680 622 OFFCURVE",
"687 609 OFFCURVE",
"687 568 CURVE SMOOTH",
"687 479 OFFCURVE",
"648 273 OFFCURVE",
"603 31 CURVE SMOOTH",
"599 10 OFFCURVE",
"612 -6 OFFCURVE",
"637 -6 CURVE SMOOTH"
);
}
);
width = 803;
},
{
anchors = (
{
name = bottom;
position = "{370, 0}";
},
{
name = top;
position = "{493, 700}";
}
);
layerId = "F86CB789-B416-49E2-AD1B-BE88A4A88FF7";
paths = (
{
closed = 1;
nodes = (
"673 -7 OFFCURVE",
"700 19 OFFCURVE",
"708 64 CURVE SMOOTH",
"741 248 OFFCURVE",
"776 472 OFFCURVE",
"776 564 CURVE SMOOTH",
"776 660 OFFCURVE",
"752 713 OFFCURVE",
"686 713 CURVE SMOOTH",
"527 713 OFFCURVE",
"438 407 OFFCURVE",
"406 357 CURVE",
"441 357 LINE",
"424 411 OFFCURVE",
"457 713 OFFCURVE",
"294 713 CURVE SMOOTH",
"198 713 OFFCURVE",
"141 607 OFFCURVE",
"90 336 CURVE SMOOTH",
"75 256 OFFCURVE",
"60 183 OFFCURVE",
"42 77 CURVE SMOOTH",
"32 28 OFFCURVE",
"46 -3 OFFCURVE",
"100 -3 CURVE SMOOTH",
"148 -3 OFFCURVE",
"178 22 OFFCURVE",
"184 57 CURVE SMOOTH",
"203 162 OFFCURVE",
"211 226 OFFCURVE",
"233 333 CURVE SMOOTH",
"251 423 OFFCURVE",
"274 536 OFFCURVE",
"283 536 CURVE SMOOTH",
"290 536 OFFCURVE",
"308 453 OFFCURVE",
"314 415 CURVE SMOOTH",
"321 371 OFFCURVE",
"329 296 OFFCURVE",
"333 277 CURVE SMOOTH",
"340 245 OFFCURVE",
"359 228 OFFCURVE",
"405 228 CURVE SMOOTH",
"449 228 OFFCURVE",
"478 244 OFFCURVE",
"495 281 CURVE SMOOTH",
"501 294 OFFCURVE",
"533 355 OFFCURVE",
"559 411 CURVE SMOOTH",
"574 441 OFFCURVE",
"621 536 OFFCURVE",
"634 536 CURVE SMOOTH",
"638 536 OFFCURVE",
"638 527 OFFCURVE",
"638 509 CURVE SMOOTH",
"638 444 OFFCURVE",
"594 262 OFFCURVE",
"561 59 CURVE SMOOTH",
"555 24 OFFCURVE",
"581 -7 OFFCURVE",
"627 -7 CURVE SMOOTH"
);
}
);
width = 809;
}
);
note = M;
unicode = 004D;
},
{
color = 9;
glyphname = N;
lastChange = "2018-03-20 12:00:42 +0000";
layers = (
{
anchors = (
{
name = bottom;
position = "{359, 0}";
},
{
name = top;
position = "{359, 700}";
}
);
layerId = "0B1DFD06-3317-40CA-B510-4969A0718C16";
paths = (
{
closed = 1;
nodes = (
"107 12 OFFCURVE",
"114 18 OFFCURVE",
"114 23 CURVE SMOOTH",
"114 44 OFFCURVE",
"113 337 OFFCURVE",
"113 359 CURVE SMOOTH",
"112 512 OFFCURVE",
"110 532 OFFCURVE",
"111 675 CURVE",
"101 675 LINE",
"118 671 OFFCURVE",
"250 469 OFFCURVE",
"325 351 CURVE SMOOTH",
"396 239 OFFCURVE",
"538 14 OFFCURVE",
"582 14 CURVE SMOOTH",
"614 14 OFFCURVE",
"628 42 OFFCURVE",
"629 256 CURVE SMOOTH",
"629 407 OFFCURVE",
"630 528 OFFCURVE",
"630 691 CURVE SMOOTH",
"630 703 OFFCURVE",
"624 711 OFFCURVE",
"612 711 CURVE SMOOTH",
"602 711 OFFCURVE",
"596 705 OFFCURVE",
"596 694 CURVE SMOOTH",
"596 539 OFFCURVE",
"597 356 OFFCURVE",
"597 295 CURVE SMOOTH",
"597 91 OFFCURVE",
"586 61 OFFCURVE",
"576 42 CURVE",
"589 42 LINE",
"558 49 OFFCURVE",
"419 264 OFFCURVE",
"350 370 CURVE SMOOTH",
"280 477 OFFCURVE",
"142 704 OFFCURVE",
"108 704 CURVE SMOOTH",
"83 704 OFFCURVE",
"80 680 OFFCURVE",
"80 662 CURVE SMOOTH",
"80 522 OFFCURVE",
"82 470 OFFCURVE",
"82 356 CURVE SMOOTH",
"82 181 OFFCURVE",
"82 146 OFFCURVE",
"82 23 CURVE SMOOTH",
"82 16 OFFCURVE",
"91 12 OFFCURVE",
"98 12 CURVE SMOOTH"
);
}
);
width = 710;
},
{
anchors = (
{
name = bottom;
position = "{388, 0}";
},
{
name = top;
position = "{388, 700}";
}
);
layerId = "2F8C22CF-EC86-44F4-AF1A-A6C7F26A0C3C";
paths = (
{
closed = 1;
nodes = (
"188 8 OFFCURVE",
"218 36 OFFCURVE",
"218 70 CURVE SMOOTH",
"218 189 OFFCURVE",
"217 250 OFFCURVE",
"217 325 CURVE SMOOTH",
"217 410 OFFCURVE",
"216 467 OFFCURVE",
"216 517 CURVE",
"182 517 LINE",
"197 496 OFFCURVE",
"251 405 OFFCURVE",
"334 272 CURVE SMOOTH",
"461 68 OFFCURVE",
"506 10 OFFCURVE",
"577 10 CURVE SMOOTH",
"668 10 OFFCURVE",
"687 105 OFFCURVE",
"687 344 CURVE SMOOTH",
"687 451 OFFCURVE",
"689 550 OFFCURVE",
"689 637 CURVE SMOOTH",
"689 691 OFFCURVE",
"666 715 OFFCURVE",
"617 715 CURVE SMOOTH",
"563 715 OFFCURVE",
"543 686 OFFCURVE",
"543 653 CURVE SMOOTH",
"543 551 OFFCURVE",
"542 465 OFFCURVE",
"542 370 CURVE SMOOTH",
"542 275 OFFCURVE",
"542 201 OFFCURVE",
"542 157 CURVE",
"576 157 LINE",
"525 226 OFFCURVE",
"558 184 OFFCURVE",
"401 435 CURVE SMOOTH",
"259 662 OFFCURVE",
"224 708 OFFCURVE",
"155 708 CURVE SMOOTH",
"84 708 OFFCURVE",
"70 660 OFFCURVE",
"70 519 CURVE SMOOTH",
"70 465 OFFCURVE",
"72 405 OFFCURVE",
"72 331 CURVE SMOOTH",
"72 233 OFFCURVE",
"72 178 OFFCURVE",
"72 70 CURVE SMOOTH",
"72 35 OFFCURVE",
"102 8 OFFCURVE",
"145 8 CURVE SMOOTH"
);
}
);
width = 759;
},
{
anchors = (
{
name = bottom;
position = "{375, 0}";
},
{
name = top;
position = "{375, 700}";
}
);
layerId = "17B9D149-A542-49FB-8130-D430586D7342";
paths = (
{
closed = 1;
nodes = (
"144 10 OFFCURVE",
"160 25 OFFCURVE",
"160 42 CURVE SMOOTH",
"160 62 OFFCURVE",
"159 327 OFFCURVE",
"159 345 CURVE SMOOTH",
"158 539 OFFCURVE",
"157 496 OFFCURVE",
"157 612 CURVE",
"138 612 LINE",
"182 557 OFFCURVE",
"224 491 OFFCURVE",
"332 319 CURVE SMOOTH",
"464 109 OFFCURVE",
"527 12 OFFCURVE",
"588 12 CURVE SMOOTH",
"635 12 OFFCURVE",
"656 69 OFFCURVE",
"657 296 CURVE SMOOTH",
"657 424 OFFCURVE",
"658 529 OFFCURVE",
"658 673 CURVE SMOOTH",
"658 697 OFFCURVE",
"645 713 OFFCURVE",
"618 713 CURVE SMOOTH",
"594 713 OFFCURVE",
"579 700 OFFCURVE",
"579 678 CURVE SMOOTH",
"579 530 OFFCURVE",
"579 413 OFFCURVE",
"579 309 CURVE SMOOTH",
"579 160 OFFCURVE",
"570 112 OFFCURVE",
"567 88 CURVE",
"584 88 LINE",
"546 136 OFFCURVE",
"488 214 OFFCURVE",
"371 400 CURVE SMOOTH",
"247 597 OFFCURVE",
"192 706 OFFCURVE",
"125 706 CURVE SMOOTH",
"91 706 OFFCURVE",
"80 684 OFFCURVE",
"80 643 CURVE SMOOTH",
"80 595 OFFCURVE",
"82 431 OFFCURVE",
"82 346 CURVE SMOOTH",
"82 202 OFFCURVE",
"82 159 OFFCURVE",
"82 42 CURVE SMOOTH",
"82 24 OFFCURVE",
"100 10 OFFCURVE",
"121 10 CURVE SMOOTH"
);
}
);
width = 743;
},
{
anchors = (
{
name = bottom;
position = "{317, 0}";
},
{
name = top;
position = "{440, 700}";
}
);
layerId = "2214C8E2-2079-4DC2-8649-1937C1DD8804";
paths = (
{
closed = 1;
nodes = (
"67 12 OFFCURVE",
"75 18 OFFCURVE",
"76 23 CURVE SMOOTH",
"78 34 OFFCURVE",
"123 295 OFFCURVE",
"134 359 CURVE SMOOTH",
"155 480 OFFCURVE",
"160 523 OFFCURVE",
"188 675 CURVE",
"178 675 LINE",
"193 666 OFFCURVE",
"240 577 OFFCURVE",
"345 351 CURVE SMOOTH",
"425 178 OFFCURVE",
"498 14 OFFCURVE",
"548 14 CURVE SMOOTH",
"573 14 OFFCURVE",
"596 55 OFFCURVE",
"632 256 CURVE SMOOTH",
"648 345 OFFCURVE",
"702 646 OFFCURVE",
"710 691 CURVE SMOOTH",
"712 703 OFFCURVE",
"707 711 OFFCURVE",
"695 711 CURVE SMOOTH",
"685 711 OFFCURVE",
"678 705 OFFCURVE",
"676 694 CURVE SMOOTH",
"654 567 OFFCURVE",
"622 381 OFFCURVE",
"607 295 CURVE SMOOTH",
"571 92 OFFCURVE",
"556 63 OFFCURVE",
"541 42 CURVE",
"554 42 LINE",
"545 44 OFFCURVE",
"517 65 OFFCURVE",
"373 370 CURVE SMOOTH",
"283 560 OFFCURVE",
"224 704 OFFCURVE",
"184 704 CURVE SMOOTH",
"167 704 OFFCURVE",
"158 678 OFFCURVE",
"155 662 CURVE SMOOTH",
"125 494 OFFCURVE",
"122 463 OFFCURVE",
"103 356 CURVE SMOOTH",
"74 189 OFFCURVE",
"48 43 OFFCURVE",
"44 23 CURVE SMOOTH",
"43 16 OFFCURVE",
"51 12 OFFCURVE",
"58 12 CURVE SMOOTH"
);
}
);
width = 710;
},
{
anchors = (
{
name = bottom;
position = "{333, 0}";
},
{
name = top;
position = "{456, 700}";
}
);
layerId = "AEE50E4E-1B30-4E16-A434-AC23B12A4294";
paths = (
{
closed = 1;
nodes = (
"105 10 OFFCURVE",
"122 26 OFFCURVE",
"125 42 CURVE SMOOTH",
"127 53 OFFCURVE",
"144 148 OFFCURVE",
"178 345 CURVE SMOOTH",
"208 517 OFFCURVE",
"202 499 OFFCURVE",
"223 612 CURVE",
"204 612 LINE",
"244 546 OFFCURVE",
"244 544 OFFCURVE",
"346 319 CURVE SMOOTH",
"441 109 OFFCURVE",
"487 12 OFFCURVE",
"548 12 CURVE SMOOTH",
"595 12 OFFCURVE",
"626 69 OFFCURVE",
"667 296 CURVE SMOOTH",
"676 346 OFFCURVE",
"731 651 OFFCURVE",
"735 673 CURVE SMOOTH",
"738 691 OFFCURVE",
"731 713 OFFCURVE",
"702 713 CURVE SMOOTH",
"678 713 OFFCURVE",
"661 701 OFFCURVE",
"657 678 CURVE SMOOTH",
"629 520 OFFCURVE",
"604 371 OFFCURVE",
"591 309 CURVE SMOOTH",
"560 162 OFFCURVE",
"558 146 OFFCURVE",
"541 88 CURVE",
"558 88 LINE",
"527 138 OFFCURVE",
"486 210 OFFCURVE",
"400 400 CURVE SMOOTH",
"303 615 OFFCURVE",
"271 706 OFFCURVE",
"206 706 CURVE SMOOTH",
"173 706 OFFCURVE",
"158 682 OFFCURVE",
"151 643 CURVE SMOOTH",
"148 627 OFFCURVE",
"133 530 OFFCURVE",
"101 346 CURVE SMOOTH",
"72 177 OFFCURVE",
"55 87 OFFCURVE",
"47 42 CURVE SMOOTH",
"44 24 OFFCURVE",
"60 10 OFFCURVE",
"82 10 CURVE SMOOTH"
);
}
);
width = 743;
},
{
anchors = (
{
name = bottom;
position = "{346, 0}";
},
{
name = top;
position = "{469, 700}";
}
);
layerId = "F86CB789-B416-49E2-AD1B-BE88A4A88FF7";
paths = (
{
closed = 1;
nodes = (
"147 8 OFFCURVE",
"182 36 OFFCURVE",
"188 70 CURVE SMOOTH",
"203 155 OFFCURVE",
"218 242 OFFCURVE",
"232 325 CURVE SMOOTH",
"247 410 OFFCURVE",
"256 467 OFFCURVE",
"265 517 CURVE",
"231 517 LINE",
"242 496 OFFCURVE",
"277 412 OFFCURVE",
"340 272 CURVE SMOOTH",
"431 70 OFFCURVE",
"464 10 OFFCURVE",
"538 10 CURVE SMOOTH",
"630 10 OFFCURVE",
"662 103 OFFCURVE",
"706 344 CURVE SMOOTH",
"723 437 OFFCURVE",
"751 592 OFFCURVE",
"759 637 CURVE SMOOTH",
"767 685 OFFCURVE",
"755 715 OFFCURVE",
"701 715 CURVE SMOOTH",
"647 715 OFFCURVE",
"622 686 OFFCURVE",
"616 653 CURVE SMOOTH",
"598 553 OFFCURVE",
"568 387 OFFCURVE",
"565 370 CURVE SMOOTH",
"548 275 OFFCURVE",
"535 201 OFFCURVE",
"528 157 CURVE",
"562 157 LINE",
"539 197 OFFCURVE",
"513 253 OFFCURVE",
"436 435 CURVE SMOOTH",
"340 661 OFFCURVE",
"308 708 OFFCURVE",
"236 708 CURVE SMOOTH",
"165 708 OFFCURVE",
"146 661 OFFCURVE",
"120 519 CURVE SMOOTH",
"110 463 OFFCURVE",
"107 440 OFFCURVE",
"88 331 CURVE SMOOTH",
"73 244 OFFCURVE",
"51 125 OFFCURVE",
"42 70 CURVE SMOOTH",
"37 40 OFFCURVE",
"61 8 OFFCURVE",
"104 8 CURVE SMOOTH"
);
}
);
width = 759;
}
);
note = N;
unicode = 004E;
},
{
color = 9;
glyphname = O;
lastChange = "2018-03-20 12:00:42 +0000";
layers = (
{
anchors = (
{
name = bottom;
position = "{384, 0}";
},
{
name = center;
position = "{384, 350}";
},
{
name = ogonek;
position = "{391, 18}";
},
{
name = top;
position = "{384, 700}";
},
{
name = topleft;
position = "{101, 518}";
},
{
name = topright;
position = "{665, 518}";
}
);
layerId = "0B1DFD06-3317-40CA-B510-4969A0718C16";
paths = (
{
closed = 1;
nodes = (
"538 10 OFFCURVE",
"716 101 OFFCURVE",
"716 337 CURVE SMOOTH",
"716 556 OFFCURVE",
"562 705 OFFCURVE",
"370 705 CURVE SMOOTH",
"175 705 OFFCURVE",
"50 552 OFFCURVE",
"50 341 CURVE SMOOTH",
"50 96 OFFCURVE",
"218 10 OFFCURVE",
"376 10 CURVE SMOOTH"
);
},
{
closed = 1;
nodes = (
"260 41 OFFCURVE",
"81 104 OFFCURVE",
"81 345 CURVE SMOOTH",
"81 545 OFFCURVE",
"205 674 OFFCURVE",
"373 674 CURVE SMOOTH",
"549 674 OFFCURVE",
"685 534 OFFCURVE",
"685 339 CURVE SMOOTH",
"685 117 OFFCURVE",
"510 41 OFFCURVE",
"379 41 CURVE SMOOTH"
);
}
);
width = 766;
},
{
anchors = (
{
name = bottom;
position = "{401, 0}";
},
{
name = center;
position = "{407, 351}";
},
{
name = ogonek;
position = "{478, 36}";
},
{
name = top;
position = "{401, 700}";
},
{
name = topleft;
position = "{136, 500}";
},
{
name = topright;
position = "{688, 500}";
}
);
layerId = "2F8C22CF-EC86-44F4-AF1A-A6C7F26A0C3C";
paths = (
{
closed = 1;
nodes = (
"611 6 OFFCURVE",
"762 137 OFFCURVE",
"762 342 CURVE SMOOTH",
"762 549 OFFCURVE",
"607 709 OFFCURVE",
"396 709 CURVE SMOOTH",
"191 709 OFFCURVE",
"50 558 OFFCURVE",
"50 346 CURVE SMOOTH",
"50 136 OFFCURVE",
"188 6 OFFCURVE",
"399 6 CURVE SMOOTH"
);
},
{
closed = 1;
nodes = (
"286 136 OFFCURVE",
"195 208 OFFCURVE",
"195 351 CURVE SMOOTH",
"195 482 OFFCURVE",
"272 579 OFFCURVE",
"402 579 CURVE SMOOTH",
"532 579 OFFCURVE",
"617 483 OFFCURVE",
"617 348 CURVE SMOOTH",
"617 207 OFFCURVE",
"523 136 OFFCURVE",
"405 136 CURVE SMOOTH"
);
}
);
width = 812;
},
{
anchors = (
{
name = bottom;
position = "{394, 0}";
},
{
name = center;
position = "{397, 350}";
},
{
name = ogonek;
position = "{429, 25}";
},
{
name = top;
position = "{394, 700}";
},
{
name = topleft;
position = "{119, 511}";
},
{
name = topright;
position = "{678, 511}";
}
);
layerId = "17B9D149-A542-49FB-8130-D430586D7342";
paths = (
{
closed = 1;
nodes = (
"571 8 OFFCURVE",
"738 115 OFFCURVE",
"738 338 CURVE SMOOTH",
"738 553 OFFCURVE",
"584 707 OFFCURVE",
"384 707 CURVE SMOOTH",
"185 707 OFFCURVE",
"54 554 OFFCURVE",
"54 343 CURVE SMOOTH",
"54 112 OFFCURVE",
"210 8 OFFCURVE",
"389 8 CURVE SMOOTH"
);
},
{
closed = 1;
nodes = (
"275 79 OFFCURVE",
"130 145 OFFCURVE",
"130 348 CURVE SMOOTH",
"130 519 OFFCURVE",
"234 636 OFFCURVE",
"388 636 CURVE SMOOTH",
"546 636 OFFCURVE",
"661 513 OFFCURVE",
"661 342 CURVE SMOOTH",
"661 153 OFFCURVE",
"519 79 OFFCURVE",
"394 79 CURVE SMOOTH"
);
}
);
width = 792;
},
{
anchors = (
{
name = bottom;
position = "{342, 0}";
},
{
name = center;
position = "{404, 350}";
},
{
name = ogonek;
position = "{352, 18}";
},
{
name = top;
position = "{465, 700}";
},
{
name = topleft;
position = "{150, 518}";
},
{
name = topright;
position = "{714, 518}";
}
);
layerId = "2214C8E2-2079-4DC2-8649-1937C1DD8804";
paths = (
{
closed = 1;
nodes = (
"574 10 OFFCURVE",
"740 169 OFFCURVE",
"740 407 CURVE SMOOTH",
"740 584 OFFCURVE",
"624 705 OFFCURVE",
"451 705 CURVE SMOOTH",
"229 705 OFFCURVE",
"61 506 OFFCURVE",
"61 273 CURVE SMOOTH",
"61 88 OFFCURVE",
"204 10 OFFCURVE",
"344 10 CURVE SMOOTH"
);
},
{
closed = 1;
nodes = (
"238 41 OFFCURVE",
"93 91 OFFCURVE",
"93 272 CURVE SMOOTH",
"93 479 OFFCURVE",
"241 674 OFFCURVE",
"450 674 CURVE SMOOTH",
"605 674 OFFCURVE",
"709 566 OFFCURVE",
"709 407 CURVE SMOOTH",
"709 196 OFFCURVE",
"551 41 OFFCURVE",
"344 41 CURVE SMOOTH"
);
}
);
width = 766;
},
{
anchors = (
{
name = bottom;
position = "{352, 0}";
},
{
name = center;
position = "{417, 350}";
},
{
name = ogonek;
position = "{391, 25}";
},
{
name = top;
position = "{475, 700}";
},
{
name = topleft;
position = "{167, 511}";
},
{
name = topright;
position = "{726, 511}";
}
);
layerId = "AEE50E4E-1B30-4E16-A434-AC23B12A4294";
paths = (
{
closed = 1;
nodes = (
"595 8 OFFCURVE",
"763 172 OFFCURVE",
"763 404 CURVE SMOOTH",
"763 580 OFFCURVE",
"636 707 OFFCURVE",
"454 707 CURVE SMOOTH",
"230 707 OFFCURVE",
"65 514 OFFCURVE",
"65 282 CURVE SMOOTH",
"65 105 OFFCURVE",
"200 8 OFFCURVE",
"358 8 CURVE SMOOTH"
);
},
{
closed = 1;
nodes = (
"260 79 OFFCURVE",
"143 131 OFFCURVE",
"143 285 CURVE SMOOTH",
"143 467 OFFCURVE",
"274 636 OFFCURVE",
"458 636 CURVE SMOOTH",
"596 636 OFFCURVE",
"685 542 OFFCURVE",
"685 404 CURVE SMOOTH",
"685 218 OFFCURVE",
"549 79 OFFCURVE",
"366 79 CURVE SMOOTH"
);
}
);
width = 792;
},
{
anchors = (
{
name = bottom;
position = "{359, 0}";
},
{
name = center;
position = "{427, 351}";
},
{
name = ogonek;
position = "{442, 36}";
},
{
name = top;
position = "{482, 700}";
},
{
name = topleft;
position = "{182, 500}";
},
{
name = topright;
position = "{734, 500}";
}
);
layerId = "F86CB789-B416-49E2-AD1B-BE88A4A88FF7";
paths = (
{
closed = 1;
nodes = (
"608 6 OFFCURVE",
"786 169 OFFCURVE",
"786 388 CURVE SMOOTH",
"786 581 OFFCURVE",
"649 709 OFFCURVE",
"456 709 CURVE SMOOTH",
"226 709 OFFCURVE",
"62 526 OFFCURVE",
"62 312 CURVE SMOOTH",
"62 124 OFFCURVE",
"189 6 OFFCURVE",
"382 6 CURVE SMOOTH"
);
},
{
closed = 1;
nodes = (
"283 136 OFFCURVE",
"210 188 OFFCURVE",
"210 306 CURVE SMOOTH",
"210 445 OFFCURVE",
"312 579 OFFCURVE",
"464 579 CURVE SMOOTH",
"575 579 OFFCURVE",
"641 508 OFFCURVE",
"641 395 CURVE SMOOTH",
"641 255 OFFCURVE",
"541 136 OFFCURVE",
"386 136 CURVE SMOOTH"
);
}
);
width = 812;
}
);
note = O;
unicode = 004F;
},
{
color = 9;
glyphname = P;
lastChange = "2018-03-20 12:00:42 +0000";
layers = (
{
anchors = (
{
name = bottom;
position = "{105, 0}";
},
{
name = top;
position = "{301, 700}";
}
);
layerId = "0B1DFD06-3317-40CA-B510-4969A0718C16";
paths = (
{
closed = 1;
nodes = (
"113 -6 OFFCURVE",
"123 -4 OFFCURVE",
"123 14 CURVE SMOOTH",
"126 317 LINE",
"163 294 OFFCURVE",
"216 277 OFFCURVE",
"288 277 CURVE SMOOTH",
"440 277 OFFCURVE",
"550 354 OFFCURVE",
"550 483 CURVE SMOOTH",
"550 626 OFFCURVE",
"413 704 OFFCURVE",
"282 704 CURVE SMOOTH",
"191 704 OFFCURVE",
"119 666 OFFCURVE",
"55 631 CURVE SMOOTH",
"52 629 OFFCURVE",
"50 625 OFFCURVE",
"50 621 CURVE SMOOTH",
"50 617 OFFCURVE",
"54 604 OFFCURVE",
"65 604 CURVE SMOOTH",
"67 604 OFFCURVE",
"70 605 OFFCURVE",
"72 606 CURVE SMOOTH",
"129 638 OFFCURVE",
"191 673 OFFCURVE",
"279 673 CURVE SMOOTH",
"406 673 OFFCURVE",
"519 596 OFFCURVE",
"519 485 CURVE SMOOTH",
"519 386 OFFCURVE",
"431 308 OFFCURVE",
"278 308 CURVE SMOOTH",
"232 308 OFFCURVE",
"183 315 OFFCURVE",
"126 348 CURVE",
"125 375 OFFCURVE",
"126 364 OFFCURVE",
"124 504 CURVE SMOOTH",
"123 550 OFFCURVE",
"122 675 OFFCURVE",
"121 689 CURVE SMOOTH",
"121 701 OFFCURVE",
"115 705 OFFCURVE",
"104 705 CURVE SMOOTH",
"90 705 OFFCURVE",
"87 697 OFFCURVE",
"87 684 CURVE SMOOTH",
"87 665 OFFCURVE",
"94 576 OFFCURVE",
"94 340 CURVE SMOOTH",
"94 162 OFFCURVE",
"90 49 OFFCURVE",
"90 24 CURVE SMOOTH",
"90 -1 OFFCURVE",
"94 -6 OFFCURVE",
"106 -6 CURVE SMOOTH"
);
}
);
width = 580;
},
{
anchors = (
{
name = bottom;
position = "{180, 0}";
},
{
name = top;
position = "{350, 700}";
}
);
layerId = "2F8C22CF-EC86-44F4-AF1A-A6C7F26A0C3C";
paths = (
{
closed = 1;
nodes = (
"227 -9 OFFCURVE",
"256 19 OFFCURVE",
"256 57 CURVE SMOOTH",
"258 257 LINE",
"281 250 OFFCURVE",
"328 240 OFFCURVE",
"378 240 CURVE SMOOTH",
"528 240 OFFCURVE",
"643 332 OFFCURVE",
"643 463 CURVE SMOOTH",
"643 603 OFFCURVE",
"511 707 OFFCURVE",
"348 707 CURVE SMOOTH",
"237 707 OFFCURVE",
"144 659 OFFCURVE",
"109 632 CURVE SMOOTH",
"84 613 OFFCURVE",
"68 590 OFFCURVE",
"68 567 CURVE SMOOTH",
"68 535 OFFCURVE",
"103 507 OFFCURVE",
"132 507 CURVE SMOOTH",
"144 507 OFFCURVE",
"158 511 OFFCURVE",
"174 519 CURVE SMOOTH",
"231 549 OFFCURVE",
"283 577 OFFCURVE",
"343 577 CURVE SMOOTH",
"420 577 OFFCURVE",
"477 532 OFFCURVE",
"477 468 CURVE SMOOTH",
"477 408 OFFCURVE",
"427 358 OFFCURVE",
"354 358 CURVE SMOOTH",
"321 358 OFFCURVE",
"277 368 OFFCURVE",
"258 377 CURVE",
"257 419 OFFCURVE",
"256 455 OFFCURVE",
"254 515 CURVE SMOOTH",
"252 572 OFFCURVE",
"253 528 OFFCURVE",
"250 642 CURVE SMOOTH",
"249 680 OFFCURVE",
"227 708 OFFCURVE",
"174 708 CURVE SMOOTH",
"122 708 OFFCURVE",
"104 681 OFFCURVE",
"104 622 CURVE SMOOTH",
"104 583 OFFCURVE",
"112 571 OFFCURVE",
"112 294 CURVE SMOOTH",
"112 156 OFFCURVE",
"110 113 OFFCURVE",
"108 61 CURVE SMOOTH",
"106 19 OFFCURVE",
"135 -9 OFFCURVE",
"181 -9 CURVE SMOOTH"
);
}
);
width = 683;
},
{
anchors = (
{
name = bottom;
position = "{132, 0}";
},
{
name = top;
position = "{322, 700}";
}
);
layerId = "17B9D149-A542-49FB-8130-D430586D7342";
paths = (
{
closed = 1;
nodes = (
"154 -7 OFFCURVE",
"170 7 OFFCURVE",
"170 31 CURVE SMOOTH",
"173 293 LINE",
"209 274 OFFCURVE",
"260 262 OFFCURVE",
"318 262 CURVE SMOOTH",
"470 262 OFFCURVE",
"581 345 OFFCURVE",
"581 474 CURVE SMOOTH",
"581 616 OFFCURVE",
"448 705 OFFCURVE",
"299 705 CURVE SMOOTH",
"205 705 OFFCURVE",
"137 669 OFFCURVE",
"71 631 CURVE SMOOTH",
"56 623 OFFCURVE",
"51 611 OFFCURVE",
"51 600 CURVE SMOOTH",
"51 581 OFFCURVE",
"70 565 OFFCURVE",
"88 565 CURVE SMOOTH",
"93 565 OFFCURVE",
"99 567 OFFCURVE",
"105 570 CURVE SMOOTH",
"162 600 OFFCURVE",
"223 635 OFFCURVE",
"300 635 CURVE SMOOTH",
"405 635 OFFCURVE",
"496 571 OFFCURVE",
"496 477 CURVE SMOOTH",
"496 391 OFFCURVE",
"419 328 OFFCURVE",
"304 328 CURVE SMOOTH",
"265 328 OFFCURVE",
"217 335 OFFCURVE",
"173 360 CURVE",
"172 415 OFFCURVE",
"172 434 OFFCURVE",
"170 508 CURVE SMOOTH",
"168 593 OFFCURVE",
"168 541 OFFCURVE",
"167 670 CURVE SMOOTH",
"167 693 OFFCURVE",
"152 706 OFFCURVE",
"126 706 CURVE SMOOTH",
"98 706 OFFCURVE",
"88 692 OFFCURVE",
"88 661 CURVE SMOOTH",
"88 635 OFFCURVE",
"95 574 OFFCURVE",
"95 318 CURVE SMOOTH",
"95 125 OFFCURVE",
"91 42 OFFCURVE",
"91 30 CURVE SMOOTH",
"91 8 OFFCURVE",
"106 -7 OFFCURVE",
"131 -7 CURVE SMOOTH"
);
}
);
width = 611;
},
{
anchors = (
{
name = bottom;
position = "{63, 0}";
},
{
name = top;
position = "{382, 700}";
}
);
layerId = "2214C8E2-2079-4DC2-8649-1937C1DD8804";
paths = (
{
closed = 1;
nodes = (
"70 -6 OFFCURVE",
"80 -4 OFFCURVE",
"83 14 CURVE SMOOTH",
"140 317 LINE",
"173 294 OFFCURVE",
"219 277 OFFCURVE",
"291 277 CURVE SMOOTH",
"452 277 OFFCURVE",
"596 364 OFFCURVE",
"596 508 CURVE SMOOTH",
"596 635 OFFCURVE",
"483 704 OFFCURVE",
"364 704 CURVE SMOOTH",
"276 704 OFFCURVE",
"192 666 OFFCURVE",
"124 631 CURVE SMOOTH",
"119 628 OFFCURVE",
"116 625 OFFCURVE",
"116 620 CURVE SMOOTH",
"116 611 OFFCURVE",
"124 602 OFFCURVE",
"130 602 CURVE SMOOTH",
"132 602 OFFCURVE",
"131 603 OFFCURVE",
"134 604 CURVE SMOOTH",
"197 636 OFFCURVE",
"274 673 OFFCURVE",
"363 673 CURVE SMOOTH",
"479 673 OFFCURVE",
"565 609 OFFCURVE",
"565 510 CURVE SMOOTH",
"565 389 OFFCURVE",
"437 308 OFFCURVE",
"289 308 CURVE SMOOTH",
"245 308 OFFCURVE",
"197 315 OFFCURVE",
"145 348 CURVE",
"148 368 OFFCURVE",
"149 365 OFFCURVE",
"171 504 CURVE SMOOTH",
"186 600 OFFCURVE",
"180 553 OFFCURVE",
"200 689 CURVE SMOOTH",
"202 700 OFFCURVE",
"199 705 OFFCURVE",
"187 705 CURVE SMOOTH",
"172 705 OFFCURVE",
"168 697 OFFCURVE",
"166 684 CURVE SMOOTH",
"161 657 OFFCURVE",
"154 581 OFFCURVE",
"112 340 CURVE SMOOTH",
"75 131 OFFCURVE",
"54 41 OFFCURVE",
"50 17 CURVE SMOOTH",
"47 1 OFFCURVE",
"48 -6 OFFCURVE",
"63 -6 CURVE SMOOTH"
);
}
);
width = 580;
},
{
anchors = (
{
name = bottom;
position = "{90, 0}";
},
{
name = top;
position = "{403, 700}";
}
);
layerId = "AEE50E4E-1B30-4E16-A434-AC23B12A4294";
paths = (
{
closed = 1;
nodes = (
"111 -7 OFFCURVE",
"129 7 OFFCURVE",
"133 31 CURVE SMOOTH",
"183 293 LINE",
"215 274 OFFCURVE",
"264 262 OFFCURVE",
"322 262 CURVE SMOOTH",
"495 262 OFFCURVE",
"626 348 OFFCURVE",
"626 500 CURVE SMOOTH",
"626 620 OFFCURVE",
"516 705 OFFCURVE",
"381 705 CURVE SMOOTH",
"287 705 OFFCURVE",
"213 669 OFFCURVE",
"140 631 CURVE SMOOTH",
"122 622 OFFCURVE",
"118 617 OFFCURVE",
"118 604 CURVE SMOOTH",
"118 586 OFFCURVE",
"133 565 OFFCURVE",
"149 565 CURVE SMOOTH",
"155 565 OFFCURVE",
"158 567 OFFCURVE",
"164 570 CURVE SMOOTH",
"225 601 OFFCURVE",
"293 635 OFFCURVE",
"370 635 CURVE SMOOTH",
"465 635 OFFCURVE",
"540 582 OFFCURVE",
"540 502 CURVE SMOOTH",
"540 394 OFFCURVE",
"448 328 OFFCURVE",
"322 328 CURVE SMOOTH",
"283 328 OFFCURVE",
"234 335 OFFCURVE",
"194 360 CURVE",
"203 415 OFFCURVE",
"207 434 OFFCURVE",
"218 508 CURVE SMOOTH",
"231 593 OFFCURVE",
"221 541 OFFCURVE",
"243 670 CURVE SMOOTH",
"247 693 OFFCURVE",
"234 706 OFFCURVE",
"208 706 CURVE SMOOTH",
"180 706 OFFCURVE",
"168 692 OFFCURVE",
"163 661 CURVE SMOOTH",
"158 635 OFFCURVE",
"154 574 OFFCURVE",
"109 318 CURVE SMOOTH",
"75 125 OFFCURVE",
"56 42 OFFCURVE",
"54 30 CURVE SMOOTH",
"50 8 OFFCURVE",
"63 -7 OFFCURVE",
"88 -7 CURVE SMOOTH"
);
}
);
width = 611;
},
{
anchors = (
{
name = bottom;
position = "{138, 0}";
},
{
name = top;
position = "{431, 700}";
}
);
layerId = "F86CB789-B416-49E2-AD1B-BE88A4A88FF7";
paths = (
{
closed = 1;
nodes = (
"183 -9 OFFCURVE",
"217 19 OFFCURVE",
"224 57 CURVE SMOOTH",
"261 257 LINE",
"283 250 OFFCURVE",
"328 240 OFFCURVE",
"378 240 CURVE SMOOTH",
"538 240 OFFCURVE",
"684 334 OFFCURVE",
"684 486 CURVE SMOOTH",
"684 607 OFFCURVE",
"579 707 OFFCURVE",
"431 707 CURVE SMOOTH",
"320 707 OFFCURVE",
"218 659 OFFCURVE",
"178 632 CURVE SMOOTH",
"146 611 OFFCURVE",
"130 601 OFFCURVE",
"130 576 CURVE SMOOTH",
"130 551 OFFCURVE",
"151 508 OFFCURVE",
"183 508 CURVE SMOOTH",
"196 508 OFFCURVE",
"210 512 OFFCURVE",
"224 519 CURVE SMOOTH",
"286 550 OFFCURVE",
"343 577 OFFCURVE",
"403 577 CURVE SMOOTH",
"473 577 OFFCURVE",
"520 540 OFFCURVE",
"520 486 CURVE SMOOTH",
"520 418 OFFCURVE",
"482 365 OFFCURVE",
"378 358 CURVE SMOOTH",
"345 356 OFFCURVE",
"300 368 OFFCURVE",
"282 377 CURVE",
"289 419 OFFCURVE",
"294 455 OFFCURVE",
"303 515 CURVE SMOOTH",
"311 572 OFFCURVE",
"314 583 OFFCURVE",
"321 642 CURVE SMOOTH",
"326 681 OFFCURVE",
"307 708 OFFCURVE",
"257 708 CURVE SMOOTH",
"205 708 OFFCURVE",
"180 681 OFFCURVE",
"172 622 CURVE SMOOTH",
"167 583 OFFCURVE",
"171 571 OFFCURVE",
"122 294 CURVE SMOOTH",
"98 156 OFFCURVE",
"88 109 OFFCURVE",
"77 57 CURVE SMOOTH",
"69 21 OFFCURVE",
"89 -9 OFFCURVE",
"137 -9 CURVE SMOOTH"
);
}
);
width = 683;
}
);
note = P;
unicode = 0050;
},
{
color = 9;
glyphname = Q;
lastChange = "2018-03-20 12:00:42 +0000";
layers = (
{
anchors = (
{
name = bottom;
position = "{379, 0}";
},
{
name = top;
position = "{379, 700}";
}
);
layerId = "0B1DFD06-3317-40CA-B510-4969A0718C16";
paths = (
{
closed = 1;
nodes = (
"551 15 OFFCURVE",
"705 153 OFFCURVE",
"705 359 CURVE SMOOTH",
"705 578 OFFCURVE",
"532 709 OFFCURVE",
"374 709 CURVE SMOOTH",
"222 709 OFFCURVE",
"50 588 OFFCURVE",
"50 350 CURVE SMOOTH",
"50 152 OFFCURVE",
"169 15 OFFCURVE",
"360 15 CURVE SMOOTH"
);
},
{
closed = 1;
nodes = (
"689 24 OFFCURVE",
"696 32 OFFCURVE",
"696 41 CURVE SMOOTH",
"696 46 OFFCURVE",
"694 50 OFFCURVE",
"690 54 CURVE SMOOTH",
"663 82 OFFCURVE",
"509 236 OFFCURVE",
"502 242 CURVE SMOOTH",
"500 244 OFFCURVE",
"497 245 OFFCURVE",
"494 245 CURVE SMOOTH",
"488 245 OFFCURVE",
"474 239 OFFCURVE",
"474 227 CURVE SMOOTH",
"474 223 OFFCURVE",
"476 220 OFFCURVE",
"478 218 CURVE SMOOTH",
"483 212 OFFCURVE",
"497 199 OFFCURVE",
"668 29 CURVE SMOOTH",
"671 26 OFFCURVE",
"676 24 OFFCURVE",
"680 24 CURVE SMOOTH"
);
},
{
closed = 1;
nodes = (
"190 46 OFFCURVE",
"81 175 OFFCURVE",
"81 348 CURVE SMOOTH",
"81 565 OFFCURVE",
"238 678 OFFCURVE",
"378 678 CURVE SMOOTH",
"518 678 OFFCURVE",
"674 557 OFFCURVE",
"674 356 CURVE SMOOTH",
"674 176 OFFCURVE",
"531 46 OFFCURVE",
"360 46 CURVE SMOOTH"
);
}
);
width = 755;
},
{
anchors = (
{
name = bottom;
position = "{403, 0}";
},
{
name = top;
position = "{396, 700}";
}
);
layerId = "2F8C22CF-EC86-44F4-AF1A-A6C7F26A0C3C";
paths = (
{
closed = 1;
nodes = (
"595 11 OFFCURVE",
"753 161 OFFCURVE",
"753 359 CURVE SMOOTH",
"753 556 OFFCURVE",
"595 713 OFFCURVE",
"397 713 CURVE SMOOTH",
"201 713 OFFCURVE",
"50 558 OFFCURVE",
"50 349 CURVE SMOOTH",
"50 150 OFFCURVE",
"186 11 OFFCURVE",
"387 11 CURVE SMOOTH"
);
},
{
closed = 1;
nodes = (
"708 8 OFFCURVE",
"742 45 OFFCURVE",
"742 85 CURVE SMOOTH",
"742 101 OFFCURVE",
"736 118 OFFCURVE",
"720 133 CURVE SMOOTH",
"636 214 OFFCURVE",
"606 242 OFFCURVE",
"533 309 CURVE SMOOTH",
"524 317 OFFCURVE",
"514 321 OFFCURVE",
"502 321 CURVE SMOOTH",
"462 321 OFFCURVE",
"419 275 OFFCURVE",
"419 241 CURVE SMOOTH",
"419 228 OFFCURVE",
"425 215 OFFCURVE",
"439 201 CURVE SMOOTH",
"518 124 OFFCURVE",
"571 71 OFFCURVE",
"615 29 CURVE",
"632 14 OFFCURVE",
"650 8 OFFCURVE",
"667 8 CURVE SMOOTH"
);
},
{
closed = 1;
nodes = (
"284 141 OFFCURVE",
"196 219 OFFCURVE",
"196 357 CURVE SMOOTH",
"196 493 OFFCURVE",
"282 583 OFFCURVE",
"400 583 CURVE SMOOTH",
"523 583 OFFCURVE",
"607 486 OFFCURVE",
"607 365 CURVE SMOOTH",
"607 224 OFFCURVE",
"494 141 OFFCURVE",
"387 141 CURVE SMOOTH"
);
}
);
width = 803;
},
{
anchors = (
{
name = bottom;
position = "{391, 0}";
},
{
name = top;
position = "{388, 700}";
}
);
layerId = "17B9D149-A542-49FB-8130-D430586D7342";
paths = (
{
closed = 1;
nodes = (
"571 13 OFFCURVE",
"727 156 OFFCURVE",
"727 359 CURVE SMOOTH",
"727 569 OFFCURVE",
"559 711 OFFCURVE",
"385 711 CURVE SMOOTH",
"216 711 OFFCURVE",
"52 576 OFFCURVE",
"52 350 CURVE SMOOTH",
"52 152 OFFCURVE",
"178 13 OFFCURVE",
"373 13 CURVE SMOOTH"
);
},
{
closed = 1;
nodes = (
"699 18 OFFCURVE",
"717 37 OFFCURVE",
"717 58 CURVE SMOOTH",
"717 68 OFFCURVE",
"713 77 OFFCURVE",
"704 86 CURVE SMOOTH",
"665 124 OFFCURVE",
"531 257 OFFCURVE",
"517 269 CURVE SMOOTH",
"512 273 OFFCURVE",
"506 275 OFFCURVE",
"500 275 CURVE SMOOTH",
"480 275 OFFCURVE",
"454 253 OFFCURVE",
"454 233 CURVE SMOOTH",
"454 225 OFFCURVE",
"458 218 OFFCURVE",
"465 211 CURVE SMOOTH",
"502 174 OFFCURVE",
"646 32 OFFCURVE",
"649 29 CURVE SMOOTH",
"655 23 OFFCURVE",
"666 18 OFFCURVE",
"677 18 CURVE SMOOTH"
);
},
{
closed = 1;
nodes = (
"230 84 OFFCURVE",
"129 193 OFFCURVE",
"129 352 CURVE SMOOTH",
"129 533 OFFCURVE",
"261 640 OFFCURVE",
"389 640 CURVE SMOOTH",
"523 640 OFFCURVE",
"650 521 OFFCURVE",
"650 360 CURVE SMOOTH",
"650 197 OFFCURVE",
"521 84 OFFCURVE",
"374 84 CURVE SMOOTH"
);
}
);
width = 781;
},
{
anchors = (
{
name = bottom;
position = "{337, 0}";
},
{
name = top;
position = "{460, 700}";
}
);
layerId = "2214C8E2-2079-4DC2-8649-1937C1DD8804";
paths = (
{
closed = 1;
nodes = (
"546 15 OFFCURVE",
"732 194 OFFCURVE",
"732 419 CURVE SMOOTH",
"732 597 OFFCURVE",
"603 709 OFFCURVE",
"450 709 CURVE SMOOTH",
"246 709 OFFCURVE",
"63 512 OFFCURVE",
"63 282 CURVE SMOOTH",
"63 127 OFFCURVE",
"156 15 OFFCURVE",
"321 15 CURVE SMOOTH"
);
},
{
closed = 1;
nodes = (
"652 24 OFFCURVE",
"661 34 OFFCURVE",
"661 45 CURVE SMOOTH",
"661 48 OFFCURVE",
"660 51 OFFCURVE",
"658 54 CURVE SMOOTH",
"635 82 OFFCURVE",
"509 236 OFFCURVE",
"503 242 CURVE SMOOTH",
"501 244 OFFCURVE",
"498 245 OFFCURVE",
"495 245 CURVE SMOOTH",
"489 245 OFFCURVE",
"472 238 OFFCURVE",
"472 225 CURVE SMOOTH",
"472 222 OFFCURVE",
"473 220 OFFCURVE",
"474 218 CURVE SMOOTH",
"478 212 OFFCURVE",
"490 199 OFFCURVE",
"631 29 CURVE SMOOTH",
"634 26 OFFCURVE",
"638 24 OFFCURVE",
"642 24 CURVE SMOOTH"
);
},
{
closed = 1;
nodes = (
"175 46 OFFCURVE",
"94 143 OFFCURVE",
"94 282 CURVE SMOOTH",
"94 485 OFFCURVE",
"256 678 OFFCURVE",
"453 678 CURVE SMOOTH",
"578 678 OFFCURVE",
"701 582 OFFCURVE",
"701 419 CURVE SMOOTH",
"701 218 OFFCURVE",
"523 46 OFFCURVE",
"324 46 CURVE SMOOTH"
);
}
);
width = 755;
},
{
anchors = (
{
name = bottom;
position = "{349, 0}";
},
{
name = top;
position = "{469, 700}";
}
);
layerId = "AEE50E4E-1B30-4E16-A434-AC23B12A4294";
paths = (
{
closed = 1;
nodes = (
"548 13 OFFCURVE",
"754 190 OFFCURVE",
"754 413 CURVE SMOOTH",
"754 587 OFFCURVE",
"629 711 OFFCURVE",
"474 711 CURVE SMOOTH",
"255 711 OFFCURVE",
"65 522 OFFCURVE",
"65 292 CURVE SMOOTH",
"65 135 OFFCURVE",
"151 13 OFFCURVE",
"331 13 CURVE SMOOTH"
);
},
{
closed = 1;
nodes = (
"662 18 OFFCURVE",
"686 41 OFFCURVE",
"686 65 CURVE SMOOTH",
"686 72 OFFCURVE",
"683 79 OFFCURVE",
"677 86 CURVE SMOOTH",
"645 124 OFFCURVE",
"534 257 OFFCURVE",
"522 269 CURVE SMOOTH",
"518 273 OFFCURVE",
"512 275 OFFCURVE",
"506 275 CURVE SMOOTH",
"485 275 OFFCURVE",
"453 250 OFFCURVE",
"453 229 CURVE SMOOTH",
"453 223 OFFCURVE",
"455 217 OFFCURVE",
"460 211 CURVE SMOOTH",
"491 174 OFFCURVE",
"610 32 OFFCURVE",
"612 29 CURVE SMOOTH",
"617 23 OFFCURVE",
"627 18 OFFCURVE",
"638 18 CURVE SMOOTH"
);
},
{
closed = 1;
nodes = (
"215 84 OFFCURVE",
"144 166 OFFCURVE",
"144 292 CURVE SMOOTH",
"144 471 OFFCURVE",
"296 640 OFFCURVE",
"468 640 CURVE SMOOTH",
"589 640 OFFCURVE",
"676 546 OFFCURVE",
"676 413 CURVE SMOOTH",
"676 236 OFFCURVE",
"507 84 OFFCURVE",
"333 84 CURVE SMOOTH"
);
}
);
width = 781;
},
{
anchors = (
{
name = bottom;
position = "{361, 0}";
},
{
name = top;
position = "{477, 700}";
}
);
layerId = "F86CB789-B416-49E2-AD1B-BE88A4A88FF7";
paths = (
{
closed = 1;
nodes = (
"574 11 OFFCURVE",
"780 186 OFFCURVE",
"780 405 CURVE SMOOTH",
"780 577 OFFCURVE",
"653 713 OFFCURVE",
"464 713 CURVE SMOOTH",
"248 713 OFFCURVE",
"63 536 OFFCURVE",
"63 315 CURVE SMOOTH",
"63 149 OFFCURVE",
"167 11 OFFCURVE",
"358 11 CURVE SMOOTH"
);
},
{
closed = 1;
nodes = (
"671 8 OFFCURVE",
"716 52 OFFCURVE",
"716 96 CURVE SMOOTH",
"716 113 OFFCURVE",
"709 124 OFFCURVE",
"701 133 CURVE SMOOTH",
"628 219 OFFCURVE",
"607 242 OFFCURVE",
"545 309 CURVE SMOOTH",
"538 317 OFFCURVE",
"529 321 OFFCURVE",
"517 321 CURVE SMOOTH",
"475 321 OFFCURVE",
"419 270 OFFCURVE",
"419 235 CURVE SMOOTH",
"419 224 OFFCURVE",
"424 211 OFFCURVE",
"432 201 CURVE SMOOTH",
"444 186 OFFCURVE",
"569 39 OFFCURVE",
"578 29 CURVE SMOOTH",
"592 13 OFFCURVE",
"612 8 OFFCURVE",
"627 8 CURVE SMOOTH"
);
},
{
closed = 1;
nodes = (
"280 141 OFFCURVE",
"212 198 OFFCURVE",
"212 310 CURVE SMOOTH",
"212 448 OFFCURVE",
"315 583 OFFCURVE",
"461 583 CURVE SMOOTH",
"568 583 OFFCURVE",
"633 510 OFFCURVE",
"633 408 CURVE SMOOTH",
"633 267 OFFCURVE",
"509 141 OFFCURVE",
"372 141 CURVE SMOOTH"
);
}
);
width = 803;
}
);
note = Q;
unicode = 0051;
},
{
color = 9;
glyphname = R;
lastChange = "2018-03-20 12:00:42 +0000";
layers = (
{
anchors = (
{
name = bottom;
position = "{326, 0}";
},
{
name = top;
position = "{326, 700}";
}
);
layerId = "0B1DFD06-3317-40CA-B510-4969A0718C16";
paths = (
{
closed = 1;
nodes = (
"428 293 OFFCURVE",
"564 356 OFFCURVE",
"564 498 CURVE SMOOTH",
"564 622 OFFCURVE",
"462 699 OFFCURVE",
"305 699 CURVE SMOOTH",
"243 699 OFFCURVE",
"195 687 OFFCURVE",
"116 652 CURVE SMOOTH",
"98 644 OFFCURVE",
"82 637 OFFCURVE",
"72 632 CURVE SMOOTH",
"64 628 OFFCURVE",
"60 624 OFFCURVE",
"60 618 CURVE SMOOTH",
"60 613 OFFCURVE",
"62 603 OFFCURVE",
"69 599 CURVE SMOOTH",
"72 597 OFFCURVE",
"76 597 OFFCURVE",
"79 598 CURVE SMOOTH",
"83 600 OFFCURVE",
"103 609 OFFCURVE",
"123 619 CURVE SMOOTH",
"195 653 OFFCURVE",
"247 668 OFFCURVE",
"307 668 CURVE SMOOTH",
"440 668 OFFCURVE",
"533 596 OFFCURVE",
"533 496 CURVE SMOOTH",
"533 379 OFFCURVE",
"406 324 OFFCURVE",
"286 324 CURVE SMOOTH",
"216 324 OFFCURVE",
"159 343 OFFCURVE",
"124 361 CURVE",
"124 331 LINE",
"185 305 OFFCURVE",
"233 293 OFFCURVE",
"292 293 CURVE SMOOTH"
);
},
{
closed = 1;
nodes = (
"128 -4 OFFCURVE",
"134 1 OFFCURVE",
"134 12 CURVE SMOOTH",
"134 136 OFFCURVE",
"135 181 OFFCURVE",
"135 277 CURVE SMOOTH",
"135 444 OFFCURVE",
"132 536 OFFCURVE",
"125 688 CURVE SMOOTH",
"125 699 OFFCURVE",
"118 701 OFFCURVE",
"109 701 CURVE SMOOTH",
"97 701 OFFCURVE",
"94 697 OFFCURVE",
"94 679 CURVE SMOOTH",
"94 646 OFFCURVE",
"104 582 OFFCURVE",
"104 303 CURVE SMOOTH",
"104 150 OFFCURVE",
"101 43 OFFCURVE",
"101 24 CURVE SMOOTH",
"101 1 OFFCURVE",
"105 -4 OFFCURVE",
"117 -4 CURVE SMOOTH"
);
},
{
closed = 1;
nodes = (
"542 15 OFFCURVE",
"550 24 OFFCURVE",
"550 33 CURVE SMOOTH",
"550 38 OFFCURVE",
"548 43 OFFCURVE",
"542 47 CURVE SMOOTH",
"124 342 LINE",
"124 303 LINE",
"517 23 LINE SMOOTH",
"521 20 OFFCURVE",
"529 15 OFFCURVE",
"534 15 CURVE SMOOTH"
);
}
);
width = 614;
},
{
anchors = (
{
name = bottom;
position = "{351, 0}";
},
{
name = top;
position = "{351, 700}";
}
);
layerId = "2F8C22CF-EC86-44F4-AF1A-A6C7F26A0C3C";
paths = (
{
closed = 1;
nodes = (
"514 269 OFFCURVE",
"642 342 OFFCURVE",
"642 480 CURVE SMOOTH",
"642 610 OFFCURVE",
"527 702 OFFCURVE",
"344 702 CURVE SMOOTH",
"293 702 OFFCURVE",
"234 695 OFFCURVE",
"174 667 CURVE SMOOTH",
"157 659 OFFCURVE",
"136 649 OFFCURVE",
"118 639 CURVE SMOOTH",
"87 622 OFFCURVE",
"70 607 OFFCURVE",
"70 579 CURVE SMOOTH",
"70 550 OFFCURVE",
"88 515 OFFCURVE",
"111 509 CURVE SMOOTH",
"118 507 OFFCURVE",
"128 507 OFFCURVE",
"135 509 CURVE SMOOTH",
"167 519 OFFCURVE",
"169 519 OFFCURVE",
"190 528 CURVE SMOOTH",
"255 555 OFFCURVE",
"294 571 OFFCURVE",
"349 571 CURVE SMOOTH",
"432 571 OFFCURVE",
"478 534 OFFCURVE",
"478 477 CURVE SMOOTH",
"478 416 OFFCURVE",
"425 379 OFFCURVE",
"335 379 CURVE SMOOTH",
"293 379 OFFCURVE",
"236 379 OFFCURVE",
"200 397 CURVE",
"200 287 LINE",
"242 275 OFFCURVE",
"296 269 OFFCURVE",
"345 269 CURVE SMOOTH"
);
},
{
closed = 1;
nodes = (
"226 -7 OFFCURVE",
"250 20 OFFCURVE",
"250 58 CURVE SMOOTH",
"250 156 OFFCURVE",
"250 295 OFFCURVE",
"250 390 CURVE SMOOTH",
"250 456 OFFCURVE",
"245 587 OFFCURVE",
"242 642 CURVE SMOOTH",
"240 684 OFFCURVE",
"213 704 OFFCURVE",
"170 704 CURVE SMOOTH",
"123 704 OFFCURVE",
"99 679 OFFCURVE",
"99 638 CURVE SMOOTH",
"99 572 OFFCURVE",
"100 510 OFFCURVE",
"102 390 CURVE SMOOTH",
"105 212 OFFCURVE",
"105 164 OFFCURVE",
"105 68 CURVE SMOOTH",
"105 23 OFFCURVE",
"130 -7 OFFCURVE",
"180 -7 CURVE SMOOTH"
);
},
{
closed = 1;
nodes = (
"604 9 OFFCURVE",
"630 40 OFFCURVE",
"630 77 CURVE SMOOTH",
"630 106 OFFCURVE",
"613 120 OFFCURVE",
"593 131 CURVE SMOOTH",
"200 357 LINE",
"200 216 LINE",
"507 26 LINE SMOOTH",
"519 18 OFFCURVE",
"542 9 OFFCURVE",
"564 9 CURVE SMOOTH"
);
}
);
width = 682;
},
{
anchors = (
{
name = bottom;
position = "{323, 0}";
},
{
name = top;
position = "{323, 700}";
}
);
layerId = "17B9D149-A542-49FB-8130-D430586D7342";
paths = (
{
closed = 1;
nodes = (
"448 283 OFFCURVE",
"582 350 OFFCURVE",
"582 491 CURVE SMOOTH",
"582 617 OFFCURVE",
"475 700 OFFCURVE",
"307 700 CURVE SMOOTH",
"252 700 OFFCURVE",
"198 691 OFFCURVE",
"126 658 CURVE SMOOTH",
"109 650 OFFCURVE",
"91 642 OFFCURVE",
"77 635 CURVE SMOOTH",
"58 625 OFFCURVE",
"51 616 OFFCURVE",
"51 603 CURVE SMOOTH",
"51 589 OFFCURVE",
"58 569 OFFCURVE",
"73 563 CURVE SMOOTH",
"77 561 OFFCURVE",
"85 561 OFFCURVE",
"88 562 CURVE SMOOTH",
"108 569 OFFCURVE",
"126 578 OFFCURVE",
"137 583 CURVE SMOOTH",
"205 614 OFFCURVE",
"255 629 OFFCURVE",
"312 629 CURVE SMOOTH",
"423 629 OFFCURVE",
"498 571 OFFCURVE",
"498 488 CURVE SMOOTH",
"498 400 OFFCURVE",
"418 351 OFFCURVE",
"294 351 CURVE SMOOTH",
"234 351 OFFCURVE",
"169 361 OFFCURVE",
"133 379 CURVE",
"133 322 LINE",
"186 302 OFFCURVE",
"245 283 OFFCURVE",
"302 283 CURVE SMOOTH"
);
},
{
closed = 1;
nodes = (
"152 -5 OFFCURVE",
"167 7 OFFCURVE",
"167 30 CURVE SMOOTH",
"167 144 OFFCURVE",
"168 223 OFFCURVE",
"168 298 CURVE SMOOTH",
"168 449 OFFCURVE",
"164 543 OFFCURVE",
"159 670 CURVE SMOOTH",
"158 693 OFFCURVE",
"143 702 OFFCURVE",
"120 702 CURVE SMOOTH",
"94 702 OFFCURVE",
"83 690 OFFCURVE",
"83 659 CURVE SMOOTH",
"83 641 OFFCURVE",
"87 612 OFFCURVE",
"90 375 CURVE SMOOTH",
"92 187 OFFCURVE",
"90 171 OFFCURVE",
"90 36 CURVE SMOOTH",
"90 10 OFFCURVE",
"104 -5 OFFCURVE",
"130 -5 CURVE SMOOTH"
);
},
{
closed = 1;
nodes = (
"558 13 OFFCURVE",
"571 37 OFFCURVE",
"571 58 CURVE SMOOTH",
"571 71 OFFCURVE",
"564 80 OFFCURVE",
"551 88 CURVE SMOOTH",
"133 347 LINE",
"133 255 LINE",
"500 24 LINE SMOOTH",
"507 19 OFFCURVE",
"521 13 OFFCURVE",
"533 13 CURVE SMOOTH"
);
}
);
width = 641;
},
{
anchors = (
{
name = bottom;
position = "{284, 0}";
},
{
name = top;
position = "{407, 700}";
}
);
layerId = "2214C8E2-2079-4DC2-8649-1937C1DD8804";
paths = (
{
closed = 1;
nodes = (
"462 293 OFFCURVE",
"613 371 OFFCURVE",
"613 518 CURVE SMOOTH",
"613 629 OFFCURVE",
"527 699 OFFCURVE",
"386 699 CURVE SMOOTH",
"324 699 OFFCURVE",
"274 687 OFFCURVE",
"189 652 CURVE SMOOTH",
"170 644 OFFCURVE",
"152 637 OFFCURVE",
"141 632 CURVE SMOOTH",
"131 627 OFFCURVE",
"127 622 OFFCURVE",
"127 613 CURVE SMOOTH",
"127 606 OFFCURVE",
"129 597 OFFCURVE",
"138 597 CURVE SMOOTH",
"139 597 OFFCURVE",
"141 598 OFFCURVE",
"142 598 CURVE SMOOTH",
"147 600 OFFCURVE",
"168 609 OFFCURVE",
"190 619 CURVE SMOOTH",
"268 653 OFFCURVE",
"323 668 OFFCURVE",
"383 668 CURVE SMOOTH",
"504 668 OFFCURVE",
"581 609 OFFCURVE",
"581 523 CURVE SMOOTH",
"581 388 OFFCURVE",
"430 324 OFFCURVE",
"301 324 CURVE SMOOTH",
"231 324 OFFCURVE",
"177 343 OFFCURVE",
"146 361 CURVE",
"140 331 LINE",
"197 305 OFFCURVE",
"243 293 OFFCURVE",
"302 293 CURVE SMOOTH"
);
},
{
closed = 1;
nodes = (
"85 -4 OFFCURVE",
"92 1 OFFCURVE",
"94 12 CURVE SMOOTH",
"116 136 OFFCURVE",
"125 181 OFFCURVE",
"142 277 CURVE SMOOTH",
"171 444 OFFCURVE",
"185 536 OFFCURVE",
"204 688 CURVE SMOOTH",
"206 699 OFFCURVE",
"200 701 OFFCURVE",
"191 701 CURVE SMOOTH",
"179 701 OFFCURVE",
"175 697 OFFCURVE",
"172 679 CURVE SMOOTH",
"166 646 OFFCURVE",
"159 548 OFFCURVE",
"115 303 CURVE SMOOTH",
"88 150 OFFCURVE",
"65 36 OFFCURVE",
"61 17 CURVE SMOOTH",
"59 7 OFFCURVE",
"59 -4 OFFCURVE",
"74 -4 CURVE SMOOTH"
);
},
{
closed = 1;
nodes = (
"504 15 OFFCURVE",
"514 26 OFFCURVE",
"514 36 CURVE SMOOTH",
"514 40 OFFCURVE",
"513 44 OFFCURVE",
"508 47 CURVE SMOOTH",
"142 342 LINE",
"135 303 LINE",
"479 23 LINE SMOOTH",
"483 20 OFFCURVE",
"490 15 OFFCURVE",
"495 15 CURVE SMOOTH"
);
}
);
width = 614;
},
{
anchors = (
{
name = bottom;
position = "{281, 0}";
},
{
name = top;
position = "{404, 700}";
}
);
layerId = "AEE50E4E-1B30-4E16-A434-AC23B12A4294";
paths = (
{
closed = 1;
nodes = (
"476 283 OFFCURVE",
"630 363 OFFCURVE",
"630 511 CURVE SMOOTH",
"630 625 OFFCURVE",
"540 700 OFFCURVE",
"388 700 CURVE SMOOTH",
"333 700 OFFCURVE",
"278 691 OFFCURVE",
"200 658 CURVE SMOOTH",
"182 650 OFFCURVE",
"162 642 OFFCURVE",
"147 635 CURVE SMOOTH",
"122 623 OFFCURVE",
"115 613 OFFCURVE",
"115 595 CURVE SMOOTH",
"115 579 OFFCURVE",
"120 561 OFFCURVE",
"139 561 CURVE SMOOTH",
"142 561 OFFCURVE",
"146 562 OFFCURVE",
"147 562 CURVE SMOOTH",
"168 569 OFFCURVE",
"186 578 OFFCURVE",
"198 583 CURVE SMOOTH",
"271 614 OFFCURVE",
"324 629 OFFCURVE",
"381 629 CURVE SMOOTH",
"481 629 OFFCURVE",
"544 582 OFFCURVE",
"544 511 CURVE SMOOTH",
"544 404 OFFCURVE",
"439 351 OFFCURVE",
"314 351 CURVE SMOOTH",
"254 351 OFFCURVE",
"191 361 OFFCURVE",
"158 379 CURVE",
"147 314 LINE",
"196 294 OFFCURVE",
"253 283 OFFCURVE",
"310 283 CURVE SMOOTH"
);
},
{
closed = 1;
nodes = (
"109 -5 OFFCURVE",
"126 7 OFFCURVE",
"130 30 CURVE SMOOTH",
"150 144 OFFCURVE",
"165 223 OFFCURVE",
"179 298 CURVE SMOOTH",
"205 449 OFFCURVE",
"218 543 OFFCURVE",
"235 670 CURVE SMOOTH",
"238 693 OFFCURVE",
"225 702 OFFCURVE",
"202 702 CURVE SMOOTH",
"176 702 OFFCURVE",
"163 690 OFFCURVE",
"157 659 CURVE SMOOTH",
"154 641 OFFCURVE",
"156 612 OFFCURVE",
"114 375 CURVE SMOOTH",
"81 187 OFFCURVE",
"78 172 OFFCURVE",
"54 36 CURVE SMOOTH",
"51 17 OFFCURVE",
"58 -5 OFFCURVE",
"87 -5 CURVE SMOOTH"
);
},
{
closed = 1;
nodes = (
"521 13 OFFCURVE",
"538 40 OFFCURVE",
"538 62 CURVE SMOOTH",
"538 72 OFFCURVE",
"532 80 OFFCURVE",
"523 86 CURVE SMOOTH",
"152 331 LINE",
"136 255 LINE",
"462 24 LINE SMOOTH",
"468 19 OFFCURVE",
"481 13 OFFCURVE",
"493 13 CURVE SMOOTH"
);
}
);
width = 641;
},
{
anchors = (
{
name = bottom;
position = "{309, 0}";
},
{
name = top;
position = "{432, 700}";
}
);
layerId = "F86CB789-B416-49E2-AD1B-BE88A4A88FF7";
paths = (
{
closed = 1;
nodes = (
"527 269 OFFCURVE",
"688 335 OFFCURVE",
"688 489 CURVE SMOOTH",
"688 605 OFFCURVE",
"597 702 OFFCURVE",
"421 702 CURVE SMOOTH",
"374 702 OFFCURVE",
"317 695 OFFCURVE",
"250 667 CURVE SMOOTH",
"231 659 OFFCURVE",
"207 648 OFFCURVE",
"189 639 CURVE SMOOTH",
"150 619 OFFCURVE",
"129 603 OFFCURVE",
"129 567 CURVE SMOOTH",
"129 535 OFFCURVE",
"147 513 OFFCURVE",
"159 509 CURVE SMOOTH",
"167 507 OFFCURVE",
"180 508 OFFCURVE",
"183 509 CURVE SMOOTH",
"223 521 OFFCURVE",
"219 519 OFFCURVE",
"241 528 CURVE SMOOTH",
"318 560 OFFCURVE",
"367 571 OFFCURVE",
"411 571 CURVE SMOOTH",
"482 571 OFFCURVE",
"522 542 OFFCURVE",
"522 491 CURVE SMOOTH",
"522 423 OFFCURVE",
"451 379 OFFCURVE",
"360 379 CURVE SMOOTH",
"318 379 OFFCURVE",
"261 379 OFFCURVE",
"228 397 CURVE",
"211 296 LINE",
"250 284 OFFCURVE",
"297 269 OFFCURVE",
"353 269 CURVE SMOOTH"
);
},
{
closed = 1;
nodes = (
"182 -7 OFFCURVE",
"211 18 OFFCURVE",
"218 58 CURVE SMOOTH",
"233 141 OFFCURVE",
"274 373 OFFCURVE",
"277 390 CURVE SMOOTH",
"288 454 OFFCURVE",
"311 617 OFFCURVE",
"313 642 CURVE SMOOTH",
"316 679 OFFCURVE",
"298 704 OFFCURVE",
"252 704 CURVE SMOOTH",
"205 704 OFFCURVE",
"177 679 OFFCURVE",
"169 638 CURVE SMOOTH",
"165 618 OFFCURVE",
"142 470 OFFCURVE",
"129 390 CURVE SMOOTH",
"103 224 OFFCURVE",
"77 84 OFFCURVE",
"75 68 CURVE SMOOTH",
"68 24 OFFCURVE",
"85 -7 OFFCURVE",
"136 -7 CURVE SMOOTH"
);
},
{
closed = 1;
nodes = (
"566 9 OFFCURVE",
"589 49 OFFCURVE",
"589 88 CURVE SMOOTH",
"589 106 OFFCURVE",
"577 117 OFFCURVE",
"561 126 CURVE SMOOTH",
"214 329 LINE",
"196 202 LINE",
"470 26 LINE SMOOTH",
"484 17 OFFCURVE",
"504 9 OFFCURVE",
"523 9 CURVE SMOOTH"
);
}
);
width = 682;
}
);
note = R;
unicode = 0052;
},
{
color = 9;
glyphname = S;
lastChange = "2018-03-20 12:00:42 +0000";
layers = (
{
anchors = (
{
name = bottom;
position = "{259, 0}";
},
{
name = top;
position = "{259, 700}";
}
);
layerId = "0B1DFD06-3317-40CA-B510-4969A0718C16";
paths = (
{
closed = 1;
nodes = (
"381 2 OFFCURVE",
"454 65 OFFCURVE",
"454 169 CURVE SMOOTH",
"454 301 OFFCURVE",
"344 338 OFFCURVE",
"267 361 CURVE SMOOTH",
"171 390 OFFCURVE",
"81 418 OFFCURVE",
"81 520 CURVE SMOOTH",
"81 605 OFFCURVE",
"144 675 OFFCURVE",
"255 675 CURVE SMOOTH",
"350 675 OFFCURVE",
"417 611 OFFCURVE",
"417 519 CURVE SMOOTH",
"417 509 OFFCURVE",
"421 505 OFFCURVE",
"433 505 CURVE SMOOTH",
"445 505 OFFCURVE",
"448 510 OFFCURVE",
"448 527 CURVE SMOOTH",
"448 613 OFFCURVE",
"382 706 OFFCURVE",
"248 706 CURVE SMOOTH",
"139 706 OFFCURVE",
"50 634 OFFCURVE",
"50 520 CURVE SMOOTH",
"50 389 OFFCURVE",
"167 356 OFFCURVE",
"242 336 CURVE SMOOTH",
"352 306 OFFCURVE",
"423 265 OFFCURVE",
"423 168 CURVE SMOOTH",
"423 80 OFFCURVE",
"359 33 OFFCURVE",
"265 33 CURVE SMOOTH",
"148 33 OFFCURVE",
"83 101 OFFCURVE",
"83 211 CURVE SMOOTH",
"83 219 OFFCURVE",
"81 227 OFFCURVE",
"68 227 CURVE SMOOTH",
"54 227 OFFCURVE",
"52 218 OFFCURVE",
"52 206 CURVE SMOOTH",
"52 98 OFFCURVE",
"129 2 OFFCURVE",
"270 2 CURVE SMOOTH"
);
}
);
width = 504;
},
{
anchors = (
{
name = bottom;
position = "{318, 0}";
},
{
name = top;
position = "{318, 700}";
}
);
layerId = "2F8C22CF-EC86-44F4-AF1A-A6C7F26A0C3C";
paths = (
{
closed = 1;
nodes = (
"460 -1 OFFCURVE",
"566 80 OFFCURVE",
"566 199 CURVE SMOOTH",
"566 340 OFFCURVE",
"417 388 OFFCURVE",
"345 410 CURVE SMOOTH",
"250 440 OFFCURVE",
"205 448 OFFCURVE",
"205 493 CURVE SMOOTH",
"205 548 OFFCURVE",
"253 580 OFFCURVE",
"309 580 CURVE SMOOTH",
"374 580 OFFCURVE",
"411 536 OFFCURVE",
"418 496 CURVE SMOOTH",
"425 454 OFFCURVE",
"429 432 OFFCURVE",
"489 432 CURVE SMOOTH",
"540 432 OFFCURVE",
"561 448 OFFCURVE",
"561 498 CURVE SMOOTH",
"561 607 OFFCURVE",
"459 709 OFFCURVE",
"313 709 CURVE SMOOTH",
"176 709 OFFCURVE",
"60 619 OFFCURVE",
"60 495 CURVE SMOOTH",
"60 347 OFFCURVE",
"223 307 OFFCURVE",
"287 289 CURVE SMOOTH",
"349 271 OFFCURVE",
"421 252 OFFCURVE",
"421 196 CURVE SMOOTH",
"421 148 OFFCURVE",
"367 129 OFFCURVE",
"323 129 CURVE SMOOTH",
"270 129 OFFCURVE",
"214 157 OFFCURVE",
"208 230 CURVE SMOOTH",
"206 254 OFFCURVE",
"202 296 OFFCURVE",
"132 296 CURVE SMOOTH",
"87 296 OFFCURVE",
"62 279 OFFCURVE",
"62 224 CURVE SMOOTH",
"62 107 OFFCURVE",
"171 -1 OFFCURVE",
"326 -1 CURVE SMOOTH"
);
}
);
width = 626;
},
{
anchors = (
{
name = bottom;
position = "{289, 0}";
},
{
name = top;
position = "{289, 700}";
}
);
layerId = "17B9D149-A542-49FB-8130-D430586D7342";
paths = (
{
closed = 1;
nodes = (
"420 1 OFFCURVE",
"505 70 OFFCURVE",
"505 181 CURVE SMOOTH",
"505 320 OFFCURVE",
"371 361 OFFCURVE",
"305 381 CURVE SMOOTH",
"214 408 OFFCURVE",
"137 430 OFFCURVE",
"137 509 CURVE SMOOTH",
"137 582 OFFCURVE",
"194 637 OFFCURVE",
"280 637 CURVE SMOOTH",
"368 637 OFFCURVE",
"416 579 OFFCURVE",
"424 510 CURVE SMOOTH",
"426 492 OFFCURVE",
"428 476 OFFCURVE",
"463 476 CURVE SMOOTH",
"492 476 OFFCURVE",
"500 487 OFFCURVE",
"500 516 CURVE SMOOTH",
"500 614 OFFCURVE",
"409 707 OFFCURVE",
"280 707 CURVE SMOOTH",
"161 707 OFFCURVE",
"60 628 OFFCURVE",
"60 510 CURVE SMOOTH",
"60 370 OFFCURVE",
"200 336 OFFCURVE",
"266 317 CURVE SMOOTH",
"355 291 OFFCURVE",
"429 263 OFFCURVE",
"429 180 CURVE SMOOTH",
"429 106 OFFCURVE",
"367 71 OFFCURVE",
"292 71 CURVE SMOOTH",
"211 71 OFFCURVE",
"146 122 OFFCURVE",
"139 219 CURVE SMOOTH",
"138 234 OFFCURVE",
"135 255 OFFCURVE",
"100 255 CURVE SMOOTH",
"67 255 OFFCURVE",
"62 237 OFFCURVE",
"62 211 CURVE SMOOTH",
"62 102 OFFCURVE",
"148 1 OFFCURVE",
"299 1 CURVE SMOOTH"
);
}
);
width = 563;
},
{
anchors = (
{
name = bottom;
position = "{217, 0}";
},
{
name = top;
position = "{340, 700}";
}
);
layerId = "2214C8E2-2079-4DC2-8649-1937C1DD8804";
paths = (
{
closed = 1;
nodes = (
"352 2 OFFCURVE",
"445 78 OFFCURVE",
"445 192 CURVE SMOOTH",
"445 298 OFFCURVE",
"364 337 OFFCURVE",
"289 361 CURVE SMOOTH",
"198 390 OFFCURVE",
"129 413 OFFCURVE",
"129 498 CURVE SMOOTH",
"129 594 OFFCURVE",
"218 675 OFFCURVE",
"332 675 CURVE SMOOTH",
"419 675 OFFCURVE",
"467 627 OFFCURVE",
"470 529 CURVE SMOOTH",
"471 514 OFFCURVE",
"466 505 OFFCURVE",
"483 505 CURVE SMOOTH",
"498 505 OFFCURVE",
"502 512 OFFCURVE",
"502 530 CURVE SMOOTH",
"502 625 OFFCURVE",
"449 706 OFFCURVE",
"331 706 CURVE SMOOTH",
"205 706 OFFCURVE",
"97 615 OFFCURVE",
"97 497 CURVE SMOOTH",
"97 387 OFFCURVE",
"192 356 OFFCURVE",
"259 336 CURVE SMOOTH",
"350 308 OFFCURVE",
"414 280 OFFCURVE",
"414 194 CURVE SMOOTH",
"414 100 OFFCURVE",
"338 33 OFFCURVE",
"226 33 CURVE SMOOTH",
"128 33 OFFCURVE",
"74 85 OFFCURVE",
"74 199 CURVE SMOOTH",
"74 217 OFFCURVE",
"74 227 OFFCURVE",
"60 227 CURVE SMOOTH",
"44 227 OFFCURVE",
"43 215 OFFCURVE",
"43 199 CURVE SMOOTH",
"43 76 OFFCURVE",
"104 2 OFFCURVE",
"227 2 CURVE SMOOTH"
);
}
);
width = 504;
},
{
anchors = (
{
name = bottom;
position = "{247, 0}";
},
{
name = top;
position = "{370, 700}";
}
);
layerId = "AEE50E4E-1B30-4E16-A434-AC23B12A4294";
paths = (
{
closed = 1;
nodes = (
"400 1 OFFCURVE",
"498 78 OFFCURVE",
"498 195 CURVE SMOOTH",
"498 316 OFFCURVE",
"395 359 OFFCURVE",
"330 381 CURVE SMOOTH",
"257 406 OFFCURVE",
"183 420 OFFCURVE",
"183 494 CURVE SMOOTH",
"183 569 OFFCURVE",
"258 637 OFFCURVE",
"351 637 CURVE SMOOTH",
"434 637 OFFCURVE",
"472 582 OFFCURVE",
"472 525 CURVE SMOOTH",
"472 499 OFFCURVE",
"464 476 OFFCURVE",
"504 476 CURVE SMOOTH",
"528 476 OFFCURVE",
"551 484 OFFCURVE",
"551 537 CURVE SMOOTH",
"551 636 OFFCURVE",
"469 707 OFFCURVE",
"351 707 CURVE SMOOTH",
"218 707 OFFCURVE",
"105 616 OFFCURVE",
"105 495 CURVE SMOOTH",
"105 375 OFFCURVE",
"215 338 OFFCURVE",
"280 317 CURVE SMOOTH",
"362 290 OFFCURVE",
"421 269 OFFCURVE",
"421 199 CURVE SMOOTH",
"421 123 OFFCURVE",
"353 71 OFFCURVE",
"263 71 CURVE SMOOTH",
"192 71 OFFCURVE",
"136 104 OFFCURVE",
"135 197 CURVE SMOOTH",
"135 239 OFFCURVE",
"134 255 OFFCURVE",
"100 255 CURVE SMOOTH",
"67 255 OFFCURVE",
"54 241 OFFCURVE",
"54 193 CURVE SMOOTH",
"54 74 OFFCURVE",
"133 1 OFFCURVE",
"265 1 CURVE SMOOTH"
);
}
);
width = 563;
},
{
anchors = (
{
name = bottom;
position = "{276, 0}";
},
{
name = top;
position = "{399, 700}";
}
);
layerId = "F86CB789-B416-49E2-AD1B-BE88A4A88FF7";
paths = (
{
closed = 1;
nodes = (
"437 -1 OFFCURVE",
"562 72 OFFCURVE",
"562 209 CURVE SMOOTH",
"562 344 OFFCURVE",
"441 388 OFFCURVE",
"375 410 CURVE SMOOTH",
"276 443 OFFCURVE",
"249 450 OFFCURVE",
"249 485 CURVE SMOOTH",
"249 535 OFFCURVE",
"304 580 OFFCURVE",
"372 580 CURVE SMOOTH",
"433 580 OFFCURVE",
"463 543 OFFCURVE",
"463 483 CURVE SMOOTH",
"463 450 OFFCURVE",
"472 432 OFFCURVE",
"521 432 CURVE SMOOTH",
"580 432 OFFCURVE",
"610 459 OFFCURVE",
"610 521 CURVE SMOOTH",
"610 630 OFFCURVE",
"510 709 OFFCURVE",
"375 709 CURVE SMOOTH",
"229 709 OFFCURVE",
"102 617 OFFCURVE",
"102 488 CURVE SMOOTH",
"102 361 OFFCURVE",
"231 310 OFFCURVE",
"296 289 CURVE SMOOTH",
"349 272 OFFCURVE",
"415 256 OFFCURVE",
"415 205 CURVE SMOOTH",
"415 158 OFFCURVE",
"361 129 OFFCURVE",
"300 129 CURVE SMOOTH",
"214 129 OFFCURVE",
"208 186 OFFCURVE",
"208 244 CURVE SMOOTH",
"208 263 OFFCURVE",
"204 296 OFFCURVE",
"145 296 CURVE SMOOTH",
"83 296 OFFCURVE",
"56 260 OFFCURVE",
"56 199 CURVE SMOOTH",
"56 82 OFFCURVE",
"153 -1 OFFCURVE",
"300 -1 CURVE SMOOTH"
);
}
);
width = 626;
}
);
note = S;
unicode = 0053;
},
{
color = 9;
glyphname = T;
lastChange = "2018-03-20 12:00:42 +0000";
layers = (
{
anchors = (
{
name = bottom;
position = "{229, 0}";
},
{
name = center;
position = "{258, 350}";
},
{
name = top;
position = "{258, 700}";
}
);
layerId = "0B1DFD06-3317-40CA-B510-4969A0718C16";
paths = (
{
closed = 1;
nodes = (
"247 0 OFFCURVE",
"254 4 OFFCURVE",
"254 19 CURVE SMOOTH",
"255 85 OFFCURVE",
"259 186 OFFCURVE",
"264 331 CURVE SMOOTH",
"268 460 OFFCURVE",
"273 548 OFFCURVE",
"280 671 CURVE",
"248 671 LINE",
"245 618 OFFCURVE",
"240 517 OFFCURVE",
"232 330 CURVE SMOOTH",
"226 191 OFFCURVE",
"220 81 OFFCURVE",
"219 15 CURVE SMOOTH",
"219 4 OFFCURVE",
"227 0 OFFCURVE",
"237 0 CURVE SMOOTH"
);
},
{
closed = 1;
nodes = (
"123 659 OFFCURVE",
"164 663 OFFCURVE",
"272 663 CURVE SMOOTH",
"349 663 OFFCURVE",
"396 661 OFFCURVE",
"473 655 CURVE SMOOTH",
"484 654 OFFCURVE",
"487 663 OFFCURVE",
"487 670 CURVE SMOOTH",
"487 680 OFFCURVE",
"482 686 OFFCURVE",
"471 687 CURVE SMOOTH",
"411 692 OFFCURVE",
"353 694 OFFCURVE",
"279 694 CURVE SMOOTH",
"174 694 OFFCURVE",
"112 690 OFFCURVE",
"42 682 CURVE SMOOTH",
"33 681 OFFCURVE",
"30 675 OFFCURVE",
"30 667 CURVE SMOOTH",
"30 656 OFFCURVE",
"36 650 OFFCURVE",
"44 651 CURVE SMOOTH"
);
}
);
width = 517;
},
{
anchors = (
{
name = bottom;
position = "{280, 0}";
},
{
name = center;
position = "{295, 350}";
},
{
name = top;
position = "{280, 700}";
}
);
layerId = "2F8C22CF-EC86-44F4-AF1A-A6C7F26A0C3C";
paths = (
{
closed = 1;
nodes = (
"341 -10 OFFCURVE",
"354 9 OFFCURVE",
"354 56 CURVE SMOOTH",
"354 139 OFFCURVE",
"355 265 OFFCURVE",
"357 340 CURVE SMOOTH",
"359 450 OFFCURVE",
"363 508 OFFCURVE",
"374 624 CURVE",
"226 629 LINE",
"219 517 OFFCURVE",
"216 447 OFFCURVE",
"210 340 CURVE SMOOTH",
"204 221 OFFCURVE",
"203 189 OFFCURVE",
"203 55 CURVE SMOOTH",
"203 8 OFFCURVE",
"228 -10 OFFCURVE",
"284 -10 CURVE SMOOTH"
);
},
{
closed = 1;
nodes = (
"192 564 OFFCURVE",
"243 567 OFFCURVE",
"324 567 CURVE SMOOTH",
"391 567 OFFCURVE",
"423 565 OFFCURVE",
"486 561 CURVE SMOOTH",
"532 558 OFFCURVE",
"561 578 OFFCURVE",
"561 626 CURVE SMOOTH",
"561 675 OFFCURVE",
"531 688 OFFCURVE",
"497 692 CURVE SMOOTH",
"457 696 OFFCURVE",
"360 698 OFFCURVE",
"310 698 CURVE SMOOTH",
"248 698 OFFCURVE",
"142 695 OFFCURVE",
"89 687 CURVE SMOOTH",
"55 682 OFFCURVE",
"30 667 OFFCURVE",
"30 626 CURVE SMOOTH",
"30 580 OFFCURVE",
"61 552 OFFCURVE",
"107 558 CURVE"
);
}
);
width = 591;
},
{
anchors = (
{
name = bottom;
position = "{255, 0}";
},
{
name = center;
position = "{278, 350}";
},
{
name = top;
position = "{272, 700}";
}
);
layerId = "17B9D149-A542-49FB-8130-D430586D7342";
paths = (
{
closed = 1;
nodes = (
"289 -10 OFFCURVE",
"300 2 OFFCURVE",
"300 32 CURVE SMOOTH",
"300 92 OFFCURVE",
"302 189 OFFCURVE",
"307 335 CURVE SMOOTH",
"311 457 OFFCURVE",
"315 552 OFFCURVE",
"323 652 CURVE",
"245 654 LINE",
"244 637 OFFCURVE",
"237 510 OFFCURVE",
"229 334 CURVE SMOOTH",
"223 201 OFFCURVE",
"218 78 OFFCURVE",
"218 46 CURVE SMOOTH",
"218 4 OFFCURVE",
"227 -10 OFFCURVE",
"259 -10 CURVE SMOOTH"
);
},
{
closed = 1;
nodes = (
"152 621 OFFCURVE",
"198 625 OFFCURVE",
"298 625 CURVE SMOOTH",
"369 625 OFFCURVE",
"405 623 OFFCURVE",
"484 617 CURVE SMOOTH",
"509 615 OFFCURVE",
"522 630 OFFCURVE",
"522 653 CURVE SMOOTH",
"522 679 OFFCURVE",
"506 687 OFFCURVE",
"487 689 CURVE SMOOTH",
"444 694 OFFCURVE",
"351 696 OFFCURVE",
"288 696 CURVE SMOOTH",
"189 696 OFFCURVE",
"130 691 OFFCURVE",
"66 684 CURVE SMOOTH",
"46 682 OFFCURVE",
"36 670 OFFCURVE",
"36 650 CURVE SMOOTH",
"36 624 OFFCURVE",
"52 612 OFFCURVE",
"75 614 CURVE SMOOTH"
);
}
);
width = 557;
},
{
anchors = (
{
name = bottom;
position = "{187, 0}";
},
{
name = center;
position = "{278, 350}";
},
{
name = top;
position = "{339, 700}";
}
);
layerId = "2214C8E2-2079-4DC2-8649-1937C1DD8804";
paths = (
{
closed = 1;
nodes = (
"210 0 OFFCURVE",
"213 9 OFFCURVE",
"215 19 CURVE SMOOTH",
"219 38 OFFCURVE",
"221 50 OFFCURVE",
"280 331 CURVE SMOOTH",
"307 460 OFFCURVE",
"328 548 OFFCURVE",
"356 671 CURVE",
"324 671 LINE",
"287 507 OFFCURVE",
"312 621 OFFCURVE",
"248 330 CURVE SMOOTH",
"217 190 OFFCURVE",
"187 52 OFFCURVE",
"180 15 CURVE SMOOTH",
"178 4 OFFCURVE",
"185 0 OFFCURVE",
"195 0 CURVE SMOOTH"
);
},
{
closed = 1;
nodes = (
"131 651 OFFCURVE",
"198 663 OFFCURVE",
"362 663 CURVE SMOOTH",
"429 663 OFFCURVE",
"463 661 OFFCURVE",
"546 655 CURVE SMOOTH",
"560 654 OFFCURVE",
"563 668 OFFCURVE",
"563 675 CURVE SMOOTH",
"563 680 OFFCURVE",
"561 686 OFFCURVE",
"550 687 CURVE SMOOTH",
"491 692 OFFCURVE",
"434 694 OFFCURVE",
"360 694 CURVE SMOOTH",
"255 694 OFFCURVE",
"192 690 OFFCURVE",
"120 682 CURVE SMOOTH",
"109 681 OFFCURVE",
"105 672 OFFCURVE",
"105 663 CURVE SMOOTH",
"105 654 OFFCURVE",
"109 651 OFFCURVE",
"116 651 CURVE SMOOTH"
);
}
);
width = 517;
},
{
anchors = (
{
name = bottom;
position = "{213, 0}";
},
{
name = center;
position = "{298, 350}";
},
{
name = top;
position = "{353, 700}";
}
);
layerId = "AEE50E4E-1B30-4E16-A434-AC23B12A4294";
paths = (
{
closed = 1;
nodes = (
"247 -10 OFFCURVE",
"259 5 OFFCURVE",
"264 32 CURVE SMOOTH",
"275 96 OFFCURVE",
"287 161 OFFCURVE",
"324 335 CURVE SMOOTH",
"358 495 OFFCURVE",
"373 563 OFFCURVE",
"396 652 CURVE",
"318 654 LINE",
"312 629 OFFCURVE",
"299 572 OFFCURVE",
"246 334 CURVE SMOOTH",
"216 201 OFFCURVE",
"197 111 OFFCURVE",
"184 46 CURVE SMOOTH",
"176 8 OFFCURVE",
"181 -10 OFFCURVE",
"215 -10 CURVE SMOOTH"
);
},
{
closed = 1;
nodes = (
"219 621 OFFCURVE",
"265 625 OFFCURVE",
"366 625 CURVE SMOOTH",
"437 625 OFFCURVE",
"473 623 OFFCURVE",
"551 617 CURVE SMOOTH",
"578 615 OFFCURVE",
"596 635 OFFCURVE",
"596 660 CURVE SMOOTH",
"596 682 OFFCURVE",
"582 687 OFFCURVE",
"566 689 CURVE SMOOTH",
"530 694 OFFCURVE",
"424 696 OFFCURVE",
"364 696 CURVE SMOOTH",
"268 696 OFFCURVE",
"213 691 OFFCURVE",
"145 684 CURVE SMOOTH",
"123 682 OFFCURVE",
"108 667 OFFCURVE",
"108 643 CURVE SMOOTH",
"108 620 OFFCURVE",
"121 612 OFFCURVE",
"141 614 CURVE SMOOTH"
);
}
);
width = 557;
},
{
anchors = (
{
name = bottom;
position = "{238, 0}";
},
{
name = center;
position = "{315, 350}";
},
{
name = top;
position = "{361, 700}";
}
);
layerId = "F86CB789-B416-49E2-AD1B-BE88A4A88FF7";
paths = (
{
closed = 1;
nodes = (
"297 -10 OFFCURVE",
"314 9 OFFCURVE",
"322 56 CURVE SMOOTH",
"339 150 OFFCURVE",
"354 232 OFFCURVE",
"375 340 CURVE SMOOTH",
"397 452 OFFCURVE",
"404 482 OFFCURVE",
"442 624 CURVE",
"295 629 LINE",
"285 587 OFFCURVE",
"263 485 OFFCURVE",
"230 340 CURVE SMOOTH",
"208 244 OFFCURVE",
"199 194 OFFCURVE",
"171 55 CURVE SMOOTH",
"162 11 OFFCURVE",
"188 -10 OFFCURVE",
"238 -10 CURVE SMOOTH"
);
},
{
closed = 1;
nodes = (
"171 557 OFFCURVE",
"258 567 OFFCURVE",
"388 567 CURVE SMOOTH",
"446 567 OFFCURVE",
"481 565 OFFCURVE",
"543 561 CURVE SMOOTH",
"598 557 OFFCURVE",
"631 593 OFFCURVE",
"631 640 CURVE SMOOTH",
"631 680 OFFCURVE",
"606 689 OFFCURVE",
"577 692 CURVE SMOOTH",
"538 696 OFFCURVE",
"440 698 OFFCURVE",
"392 698 CURVE SMOOTH",
"325 698 OFFCURVE",
"208 694 OFFCURVE",
"168 687 CURVE SMOOTH",
"121 679 OFFCURVE",
"97 655 OFFCURVE",
"97 615 CURVE SMOOTH",
"97 578 OFFCURVE",
"117 557 OFFCURVE",
"149 557 CURVE SMOOTH"
);
}
);
width = 591;
}
);
note = T;
unicode = 0054;
},
{
color = 9;
glyphname = U;
lastChange = "2018-03-20 12:00:42 +0000";
layers = (
{
anchors = (
{
name = bottom;
position = "{308, 0}";
},
{
name = ogonek;
position = "{534, 7}";
},
{
name = top;
position = "{308, 700}";
},
{
name = topright;
position = "{537, 544}";
}
);
layerId = "0B1DFD06-3317-40CA-B510-4969A0718C16";
paths = (
{
closed = 1;
nodes = (
"549 -1 OFFCURVE",
"553 5 OFFCURVE",
"553 15 CURVE SMOOTH",
"553 315 OFFCURVE",
"550 429 OFFCURVE",
"546 689 CURVE SMOOTH",
"546 701 OFFCURVE",
"541 707 OFFCURVE",
"529 707 CURVE SMOOTH",
"516 707 OFFCURVE",
"515 699 OFFCURVE",
"515 689 CURVE SMOOTH",
"515 662 OFFCURVE",
"522 297 OFFCURVE",
"519 245 CURVE SMOOTH",
"515 178 OFFCURVE",
"460 35 OFFCURVE",
"283 35 CURVE SMOOTH",
"164 35 OFFCURVE",
"92 111 OFFCURVE",
"92 294 CURVE SMOOTH",
"92 351 OFFCURVE",
"98 511 OFFCURVE",
"98 684 CURVE SMOOTH",
"98 694 OFFCURVE",
"94 700 OFFCURVE",
"82 700 CURVE SMOOTH",
"71 700 OFFCURVE",
"67 696 OFFCURVE",
"67 686 CURVE SMOOTH",
"66 627 OFFCURVE",
"60 390 OFFCURVE",
"60 260 CURVE SMOOTH",
"60 157 OFFCURVE",
"101 3 OFFCURVE",
"293 3 CURVE SMOOTH",
"423 3 OFFCURVE",
"492 73 OFFCURVE",
"528 166 CURVE",
"521 166 LINE",
"521 101 OFFCURVE",
"521 58 OFFCURVE",
"521 16 CURVE SMOOTH",
"521 3 OFFCURVE",
"526 -1 OFFCURVE",
"537 -1 CURVE"
);
}
);
width = 613;
},
{
anchors = (
{
name = bottom;
position = "{349, 0}";
},
{
name = ogonek;
position = "{581, 31}";
},
{
name = top;
position = "{349, 700}";
},
{
name = topright;
position = "{604, 532}";
}
);
layerId = "2F8C22CF-EC86-44F4-AF1A-A6C7F26A0C3C";
paths = (
{
closed = 1;
nodes = (
"618 -4 OFFCURVE",
"633 18 OFFCURVE",
"633 75 CURVE SMOOTH",
"633 266 OFFCURVE",
"628 482 OFFCURVE",
"628 645 CURVE SMOOTH",
"628 687 OFFCURVE",
"598 710 OFFCURVE",
"553 710 CURVE SMOOTH",
"506 710 OFFCURVE",
"485 685 OFFCURVE",
"485 645 CURVE SMOOTH",
"485 490 OFFCURVE",
"486 450 OFFCURVE",
"486 338 CURVE SMOOTH",
"486 220 OFFCURVE",
"401 131 OFFCURVE",
"324 131 CURVE SMOOTH",
"269 131 OFFCURVE",
"217 177 OFFCURVE",
"217 262 CURVE SMOOTH",
"217 457 OFFCURVE",
"221 604 OFFCURVE",
"221 628 CURVE SMOOTH",
"221 682 OFFCURVE",
"200 704 OFFCURVE",
"151 704 CURVE SMOOTH",
"97 704 OFFCURVE",
"77 678 OFFCURVE",
"76 643 CURVE SMOOTH",
"72 487 OFFCURVE",
"70 421 OFFCURVE",
"70 262 CURVE SMOOTH",
"70 108 OFFCURVE",
"158 0 OFFCURVE",
"303 0 CURVE SMOOTH",
"441 0 OFFCURVE",
"518 99 OFFCURVE",
"518 168 CURVE",
"488 168 LINE",
"488 119 OFFCURVE",
"488 89 OFFCURVE",
"488 70 CURVE SMOOTH",
"488 17 OFFCURVE",
"516 -4 OFFCURVE",
"566 -4 CURVE SMOOTH"
);
}
);
width = 704;
},
{
anchors = (
{
name = bottom;
position = "{332, 0}";
},
{
name = ogonek;
position = "{561, 17}";
},
{
name = top;
position = "{332, 700}";
},
{
name = topright;
position = "{574, 539}";
}
);
layerId = "17B9D149-A542-49FB-8130-D430586D7342";
paths = (
{
closed = 1;
nodes = (
"581 -2 OFFCURVE",
"593 10 OFFCURVE",
"593 31 CURVE SMOOTH",
"592 304 OFFCURVE",
"590 420 OFFCURVE",
"587 671 CURVE SMOOTH",
"587 694 OFFCURVE",
"573 708 OFFCURVE",
"547 708 CURVE SMOOTH",
"522 708 OFFCURVE",
"511 696 OFFCURVE",
"511 673 CURVE SMOOTH",
"513 495 OFFCURVE",
"515 386 OFFCURVE",
"514 282 CURVE SMOOTH",
"513 188 OFFCURVE",
"427 73 OFFCURVE",
"319 73 CURVE SMOOTH",
"210 73 OFFCURVE",
"150 137 OFFCURVE",
"150 262 CURVE SMOOTH",
"150 402 OFFCURVE",
"154 492 OFFCURVE",
"155 668 CURVE SMOOTH",
"155 689 OFFCURVE",
"142 702 OFFCURVE",
"116 702 CURVE SMOOTH",
"91 702 OFFCURVE",
"79 690 OFFCURVE",
"79 669 CURVE SMOOTH",
"77 492 OFFCURVE",
"72 406 OFFCURVE",
"72 261 CURVE SMOOTH",
"72 127 OFFCURVE",
"131 2 OFFCURVE",
"302 2 CURVE SMOOTH",
"429 2 OFFCURVE",
"518 81 OFFCURVE",
"535 167 CURVE",
"516 167 LINE",
"516 108 OFFCURVE",
"516 70 OFFCURVE",
"516 38 CURVE SMOOTH",
"516 9 OFFCURVE",
"529 -2 OFFCURVE",
"555 -2 CURVE"
);
}
);
width = 667;
},
{
anchors = (
{
name = bottom;
position = "{266, 0}";
},
{
name = ogonek;
position = "{493, 7}";
},
{
name = top;
position = "{389, 700}";
},
{
name = topright;
position = "{591, 544}";
}
);
layerId = "2214C8E2-2079-4DC2-8649-1937C1DD8804";
paths = (
{
closed = 1;
nodes = (
"507 -1 OFFCURVE",
"512 5 OFFCURVE",
"514 15 CURVE SMOOTH",
"557 256 OFFCURVE",
"594 506 OFFCURVE",
"625 689 CURVE SMOOTH",
"627 699 OFFCURVE",
"626 707 OFFCURVE",
"612 707 CURVE SMOOTH",
"599 707 OFFCURVE",
"596 699 OFFCURVE",
"594 689 CURVE SMOOTH",
"562 510 OFFCURVE",
"531 286 OFFCURVE",
"520 245 CURVE SMOOTH",
"502 178 OFFCURVE",
"423 35 OFFCURVE",
"253 35 CURVE SMOOTH",
"150 35 OFFCURVE",
"93 87 OFFCURVE",
"93 198 CURVE SMOOTH",
"93 288 OFFCURVE",
"131 445 OFFCURVE",
"177 684 CURVE SMOOTH",
"179 694 OFFCURVE",
"175 700 OFFCURVE",
"163 700 CURVE SMOOTH",
"152 700 OFFCURVE",
"148 696 OFFCURVE",
"146 686 CURVE SMOOTH",
"70 316 OFFCURVE",
"61 253 OFFCURVE",
"61 201 CURVE SMOOTH",
"61 109 OFFCURVE",
"96 3 OFFCURVE",
"253 3 CURVE SMOOTH",
"381 3 OFFCURVE",
"463 73 OFFCURVE",
"515 166 CURVE",
"508 166 LINE",
"503 138 OFFCURVE",
"483 23 OFFCURVE",
"482 16 CURVE SMOOTH",
"480 3 OFFCURVE",
"484 -1 OFFCURVE",
"495 -1 CURVE"
);
}
);
width = 613;
},
{
anchors = (
{
name = bottom;
position = "{290, 0}";
},
{
name = ogonek;
position = "{522, 17}";
},
{
name = top;
position = "{413, 700}";
},
{
name = topright;
position = "{627, 539}";
}
);
layerId = "AEE50E4E-1B30-4E16-A434-AC23B12A4294";
paths = (
{
closed = 1;
nodes = (
"539 -2 OFFCURVE",
"552 9 OFFCURVE",
"556 31 CURVE SMOOTH",
"598 275 OFFCURVE",
"641 557 OFFCURVE",
"663 671 CURVE SMOOTH",
"667 691 OFFCURVE",
"657 708 OFFCURVE",
"629 708 CURVE SMOOTH",
"605 708 OFFCURVE",
"592 696 OFFCURVE",
"588 673 CURVE SMOOTH",
"561 500 OFFCURVE",
"529 318 OFFCURVE",
"522 282 CURVE SMOOTH",
"501 181 OFFCURVE",
"393 73 OFFCURVE",
"273 73 CURVE SMOOTH",
"190 73 OFFCURVE",
"149 124 OFFCURVE",
"149 199 CURVE SMOOTH",
"149 274 OFFCURVE",
"189 432 OFFCURVE",
"231 668 CURVE SMOOTH",
"235 691 OFFCURVE",
"221 702 OFFCURVE",
"198 702 CURVE SMOOTH",
"173 702 OFFCURVE",
"159 690 OFFCURVE",
"155 669 CURVE SMOOTH",
"89 344 OFFCURVE",
"69 254 OFFCURVE",
"69 199 CURVE SMOOTH",
"69 105 OFFCURVE",
"130 2 OFFCURVE",
"273 2 CURVE SMOOTH",
"398 2 OFFCURVE",
"490 81 OFFCURVE",
"522 167 CURVE",
"503 167 LINE",
"493 108 OFFCURVE",
"501 154 OFFCURVE",
"481 38 CURVE SMOOTH",
"477 15 OFFCURVE",
"483 -2 OFFCURVE",
"513 -2 CURVE"
);
}
);
width = 667;
},
{
anchors = (
{
name = bottom;
position = "{307, 0}";
},
{
name = ogonek;
position = "{544, 31}";
},
{
name = top;
position = "{430, 700}";
},
{
name = topright;
position = "{656, 532}";
}
);
layerId = "F86CB789-B416-49E2-AD1B-BE88A4A88FF7";
paths = (
{
closed = 1;
nodes = (
"574 -4 OFFCURVE",
"594 16 OFFCURVE",
"604 75 CURVE SMOOTH",
"609 105 OFFCURVE",
"697 619 OFFCURVE",
"701 645 CURVE SMOOTH",
"707 682 OFFCURVE",
"685 710 OFFCURVE",
"636 710 CURVE SMOOTH",
"589 710 OFFCURVE",
"564 685 OFFCURVE",
"557 645 CURVE SMOOTH",
"525 468 OFFCURVE",
"520 430 OFFCURVE",
"504 338 CURVE SMOOTH",
"483 219 OFFCURVE",
"382 131 OFFCURVE",
"305 131 CURVE SMOOTH",
"257 131 OFFCURVE",
"218 166 OFFCURVE",
"218 225 CURVE SMOOTH",
"218 261 OFFCURVE",
"232 327 OFFCURVE",
"290 628 CURVE SMOOTH",
"299 675 OFFCURVE",
"288 704 OFFCURVE",
"233 704 CURVE SMOOTH",
"179 704 OFFCURVE",
"154 677 OFFCURVE",
"147 643 CURVE SMOOTH",
"97 403 OFFCURVE",
"73 285 OFFCURVE",
"73 214 CURVE SMOOTH",
"73 85 OFFCURVE",
"152 0 OFFCURVE",
"299 0 CURVE SMOOTH",
"415 0 OFFCURVE",
"492 95 OFFCURVE",
"506 168 CURVE",
"476 168 LINE",
"467 119 OFFCURVE",
"460 83 OFFCURVE",
"458 70 CURVE SMOOTH",
"451 25 OFFCURVE",
"464 -4 OFFCURVE",
"524 -4 CURVE SMOOTH"
);
}
);
width = 704;
}
);
note = U;
unicode = 0055;
},
{
color = 9;
glyphname = V;
lastChange = "2018-03-20 12:00:42 +0000";
layers = (
{
anchors = (
{
name = bottom;
position = "{325, 0}";
},
{
name = top;
position = "{325, 700}";
}
);
layerId = "0B1DFD06-3317-40CA-B510-4969A0718C16";
paths = (
{
closed = 1;
nodes = (
"353 1 OFFCURVE",
"373 15 OFFCURVE",
"385 40 CURVE SMOOTH",
"400 71 OFFCURVE",
"414 104 OFFCURVE",
"493 383 CURVE SMOOTH",
"523 490 OFFCURVE",
"542 544 OFFCURVE",
"577 684 CURVE SMOOTH",
"578 687 OFFCURVE",
"578 689 OFFCURVE",
"578 691 CURVE SMOOTH",
"577 701 OFFCURVE",
"569 704 OFFCURVE",
"561 704 CURVE SMOOTH",
"556 704 OFFCURVE",
"550 701 OFFCURVE",
"548 695 CURVE SMOOTH",
"511 554 OFFCURVE",
"494 498 OFFCURVE",
"461 382 CURVE SMOOTH",
"369 63 OFFCURVE",
"358 33 OFFCURVE",
"327 32 CURVE SMOOTH",
"297 32 OFFCURVE",
"281 63 OFFCURVE",
"183 382 CURVE SMOOTH",
"141 518 OFFCURVE",
"132 558 OFFCURVE",
"90 699 CURVE SMOOTH",
"88 704 OFFCURVE",
"83 707 OFFCURVE",
"78 707 CURVE SMOOTH",
"68 707 OFFCURVE",
"59 703 OFFCURVE",
"59 695 CURVE SMOOTH",
"59 693 OFFCURVE",
"60 691 OFFCURVE",
"61 688 CURVE SMOOTH",
"75 645 OFFCURVE",
"156 370 OFFCURVE",
"153 379 CURVE SMOOTH",
"238 100 OFFCURVE",
"256 66 OFFCURVE",
"271 39 CURVE SMOOTH",
"286 12 OFFCURVE",
"302 1 OFFCURVE",
"326 1 CURVE SMOOTH"
);
}
);
width = 638;
},
{
anchors = (
{
name = bottom;
position = "{347, 0}";
},
{
name = top;
position = "{347, 700}";
}
);
layerId = "2F8C22CF-EC86-44F4-AF1A-A6C7F26A0C3C";
paths = (
{
closed = 1;
nodes = (
"396 -2 OFFCURVE",
"442 23 OFFCURVE",
"460 61 CURVE SMOOTH",
"475 93 OFFCURVE",
"524 250 OFFCURVE",
"557 365 CURVE SMOOTH",
"587 470 OFFCURVE",
"611 552 OFFCURVE",
"629 625 CURVE SMOOTH",
"631 634 OFFCURVE",
"632 644 OFFCURVE",
"632 651 CURVE SMOOTH",
"632 692 OFFCURVE",
"597 709 OFFCURVE",
"549 709 CURVE SMOOTH",
"518 709 OFFCURVE",
"496 700 OFFCURVE",
"488 674 CURVE SMOOTH",
"459 573 OFFCURVE",
"445 519 OFFCURVE",
"415 393 CURVE SMOOTH",
"382 255 OFFCURVE",
"361 185 OFFCURVE",
"344 185 CURVE SMOOTH",
"328 185 OFFCURVE",
"307 259 OFFCURVE",
"270 393 CURVE SMOOTH",
"237 513 OFFCURVE",
"220 580 OFFCURVE",
"190 674 CURVE SMOOTH",
"182 699 OFFCURVE",
"158 709 OFFCURVE",
"126 709 CURVE SMOOTH",
"89 709 OFFCURVE",
"50 687 OFFCURVE",
"50 650 CURVE SMOOTH",
"50 645 OFFCURVE",
"51 639 OFFCURVE",
"53 633 CURVE SMOOTH",
"80 544 OFFCURVE",
"97 479 OFFCURVE",
"131 364 CURVE SMOOTH",
"167 242 OFFCURVE",
"217 95 OFFCURVE",
"236 59 CURVE SMOOTH",
"255 22 OFFCURVE",
"299 -2 OFFCURVE",
"347 -2 CURVE SMOOTH"
);
}
);
width = 681;
},
{
anchors = (
{
name = bottom;
position = "{334, 0}";
},
{
name = top;
position = "{335, 700}";
}
);
layerId = "17B9D149-A542-49FB-8130-D430586D7342";
paths = (
{
closed = 1;
nodes = (
"370 0 OFFCURVE",
"401 18 OFFCURVE",
"415 48 CURVE SMOOTH",
"430 80 OFFCURVE",
"458 162 OFFCURVE",
"519 376 CURVE SMOOTH",
"549 482 OFFCURVE",
"569 551 OFFCURVE",
"599 663 CURVE SMOOTH",
"600 666 OFFCURVE",
"600 669 OFFCURVE",
"600 672 CURVE SMOOTH",
"600 692 OFFCURVE",
"582 706 OFFCURVE",
"558 706 CURVE SMOOTH",
"542 706 OFFCURVE",
"529 701 OFFCURVE",
"524 687 CURVE SMOOTH",
"490 562 OFFCURVE",
"475 506 OFFCURVE",
"443 386 CURVE SMOOTH",
"374 140 OFFCURVE",
"359 94 OFFCURVE",
"334 93 CURVE SMOOTH",
"310 93 OFFCURVE",
"292 141 OFFCURVE",
"218 386 CURVE SMOOTH",
"180 516 OFFCURVE",
"167 567 OFFCURVE",
"130 689 CURVE SMOOTH",
"126 702 OFFCURVE",
"114 708 OFFCURVE",
"98 708 CURVE SMOOTH",
"77 708 OFFCURVE",
"57 695 OFFCURVE",
"57 675 CURVE SMOOTH",
"57 671 OFFCURVE",
"58 668 OFFCURVE",
"59 664 CURVE SMOOTH",
"94 545 OFFCURVE",
"111 484 OFFCURVE",
"144 373 CURVE SMOOTH",
"210 156 OFFCURVE",
"239 78 OFFCURVE",
"255 48 CURVE SMOOTH",
"271 17 OFFCURVE",
"301 0 OFFCURVE",
"335 0 CURVE SMOOTH"
);
}
);
width = 662;
},
{
anchors = (
{
name = bottom;
position = "{283, 0}";
},
{
name = top;
position = "{406, 700}";
}
);
layerId = "2214C8E2-2079-4DC2-8649-1937C1DD8804";
paths = (
{
closed = 1;
nodes = (
"311 1 OFFCURVE",
"334 15 OFFCURVE",
"350 40 CURVE SMOOTH",
"371 71 OFFCURVE",
"390 104 OFFCURVE",
"519 383 CURVE SMOOTH",
"567 490 OFFCURVE",
"597 553 OFFCURVE",
"657 689 CURVE SMOOTH",
"658 691 OFFCURVE",
"658 692 OFFCURVE",
"658 694 CURVE SMOOTH",
"657 700 OFFCURVE",
"647 704 OFFCURVE",
"640 704 CURVE SMOOTH",
"635 704 OFFCURVE",
"630 701 OFFCURVE",
"627 695 CURVE SMOOTH",
"565 554 OFFCURVE",
"539 498 OFFCURVE",
"485 382 CURVE SMOOTH",
"337 63 OFFCURVE",
"319 33 OFFCURVE",
"288 32 CURVE SMOOTH",
"258 32 OFFCURVE",
"249 63 OFFCURVE",
"208 382 CURVE SMOOTH",
"193 500 OFFCURVE",
"185 589 OFFCURVE",
"171 699 CURVE SMOOTH",
"170 704 OFFCURVE",
"164 707 OFFCURVE",
"159 707 CURVE SMOOTH",
"151 707 OFFCURVE",
"140 705 OFFCURVE",
"140 695 CURVE SMOOTH",
"140 694 OFFCURVE",
"140 692 OFFCURVE",
"140 690 CURVE SMOOTH",
"151 587 OFFCURVE",
"163 498 OFFCURVE",
"178 379 CURVE SMOOTH",
"214 100 OFFCURVE",
"224 67 OFFCURVE",
"233 40 CURVE SMOOTH",
"242 13 OFFCURVE",
"260 1 OFFCURVE",
"284 1 CURVE SMOOTH"
);
}
);
width = 638;
},
{
anchors = (
{
name = bottom;
position = "{292, 0}";
},
{
name = top;
position = "{416, 700}";
}
);
layerId = "AEE50E4E-1B30-4E16-A434-AC23B12A4294";
paths = (
{
closed = 1;
nodes = (
"334 0 OFFCURVE",
"362 18 OFFCURVE",
"381 48 CURVE SMOOTH",
"402 80 OFFCURVE",
"445 162 OFFCURVE",
"543 376 CURVE SMOOTH",
"592 482 OFFCURVE",
"624 551 OFFCURVE",
"674 663 CURVE SMOOTH",
"676 668 OFFCURVE",
"677 673 OFFCURVE",
"677 677 CURVE SMOOTH",
"677 694 OFFCURVE",
"657 706 OFFCURVE",
"635 706 CURVE SMOOTH",
"619 706 OFFCURVE",
"611 701 OFFCURVE",
"603 687 CURVE SMOOTH",
"547 562 OFFCURVE",
"522 506 OFFCURVE",
"469 386 CURVE SMOOTH",
"357 140 OFFCURVE",
"327 84 OFFCURVE",
"303 84 CURVE SMOOTH",
"281 84 OFFCURVE",
"272 141 OFFCURVE",
"241 386 CURVE SMOOTH",
"226 516 OFFCURVE",
"222 559 OFFCURVE",
"206 681 CURVE SMOOTH",
"205 694 OFFCURVE",
"196 708 OFFCURVE",
"174 708 CURVE SMOOTH",
"152 708 OFFCURVE",
"131 699 OFFCURVE",
"131 683 CURVE SMOOTH",
"131 678 OFFCURVE",
"131 675 OFFCURVE",
"132 667 CURVE SMOOTH",
"146 559 OFFCURVE",
"151 491 OFFCURVE",
"168 373 CURVE SMOOTH",
"199 155 OFFCURVE",
"215 78 OFFCURVE",
"225 48 CURVE SMOOTH",
"236 17 OFFCURVE",
"265 0 OFFCURVE",
"299 0 CURVE SMOOTH"
);
}
);
width = 662;
},
{
anchors = (
{
name = bottom;
position = "{305, 0}";
},
{
name = top;
position = "{428, 700}";
}
);
layerId = "F86CB789-B416-49E2-AD1B-BE88A4A88FF7";
paths = (
{
closed = 1;
nodes = (
"354 -2 OFFCURVE",
"404 23 OFFCURVE",
"429 61 CURVE SMOOTH",
"448 90 OFFCURVE",
"516 230 OFFCURVE",
"579 365 CURVE SMOOTH",
"631 476 OFFCURVE",
"671 566 OFFCURVE",
"697 625 CURVE SMOOTH",
"702 636 OFFCURVE",
"704 647 OFFCURVE",
"704 655 CURVE SMOOTH",
"704 688 OFFCURVE",
"674 709 OFFCURVE",
"629 709 CURVE SMOOTH",
"600 709 OFFCURVE",
"577 700 OFFCURVE",
"565 674 CURVE SMOOTH",
"518 573 OFFCURVE",
"498 526 OFFCURVE",
"442 393 CURVE SMOOTH",
"383 253 OFFCURVE",
"348 185 OFFCURVE",
"332 185 CURVE SMOOTH",
"314 185 OFFCURVE",
"305 262 OFFCURVE",
"292 393 CURVE SMOOTH",
"281 502 OFFCURVE",
"274 589 OFFCURVE",
"262 674 CURVE SMOOTH",
"258 699 OFFCURVE",
"239 709 OFFCURVE",
"207 709 CURVE SMOOTH",
"163 709 OFFCURVE",
"119 697 OFFCURVE",
"119 640 CURVE SMOOTH",
"119 636 OFFCURVE",
"119 630 OFFCURVE",
"120 625 CURVE SMOOTH",
"133 523 OFFCURVE",
"140 473 OFFCURVE",
"153 364 CURVE SMOOTH",
"168 240 OFFCURVE",
"193 91 OFFCURVE",
"204 59 CURVE SMOOTH",
"217 22 OFFCURVE",
"257 -2 OFFCURVE",
"305 -2 CURVE SMOOTH"
);
}
);
width = 681;
}
);
note = V;
unicode = 0056;
},
